<?xml version="1.0" encoding="utf-8"?>
<!-- Generator: Adobe Illustrator 22.1.0, SVG Export Plug-In . SVG Version: 6.00 Build 0)  -->
<svg version="1.1" id="Layer_1" xmlns="http://www.w3.org/2000/svg" xmlns:xlink="http://www.w3.org/1999/xlink" x="0px" y="0px"
	 width="1000px" height="314px" viewBox="0 0 1000 314" style="enable-background:new 0 0 1000 314;" xml:space="preserve">
<style type="text/css">
	.st0{stroke:#FFFFFF;stroke-width:2.171;stroke-linecap:round;stroke-linejoin:round;stroke-miterlimit:10;}
	.st1{fill:#FFFFFF;}
	.st2{fill:#32312F;}
</style>
<g id="banner_2_">
	<g>
		<path class="st0" d="M51.4,194.9c-12.5-13.5-25.2-26.9-38-40.2c50.4-30.5,103.1-55.9,157.2-76.1c12.5,32.5,24.9,65.1,37.4,97.7
			c-48,17.9-94.6,40.4-139.3,67.4C62.7,227.5,57,211.2,51.4,194.9z"/>
	</g>
	<g>
		<path class="st1" d="M171.5,78.2c-28.1,28-53.8,57.4-77.1,87.8c23,11.8,45.2,24.4,66.5,37.8c11.3-19.1,23.5-38.1,36.8-56.7
			C188.9,124.1,180.2,101.2,171.5,78.2z"/>
	</g>
	<g>
		<path class="st0" d="M948,194.9c12.5-13.5,25.1-26.9,38-40.2c-50.4-30.5-103.1-55.9-157.2-76.1c-12.5,32.5-24.9,65.1-37.4,97.7
			c48,17.9,94.6,40.4,139.3,67.4C936.7,227.5,942.4,211.2,948,194.9z"/>
	</g>
	<g>
		<path class="st1" d="M828,78.2c28.1,28,53.8,57.4,77.1,87.8c-23,11.8-45.2,24.4-66.5,37.8c-11.3-19.1-23.5-38.1-36.8-56.7
			C810.5,124.1,819.2,101.2,828,78.2z"/>
	</g>
	<g>
		<path class="st0" d="M94.7,165.6c253.9-129.6,556.1-129.4,809.8,0.6c-16.2,30.9-32.4,61.8-48.7,92.7
			c-223.3-114.4-489.2-114.5-712.6-0.5C127,227.5,110.8,196.6,94.7,165.6z"/>
	</g>
	<g>
		<g>
			<path class="st2" d="M104.9,182.7c0,0,43-15.7,55.1-21.5"/>
			<path class="st1" d="M104.5,181.7c9.3-3.2,18.6-6.5,27.9-9.9c4.6-1.7,9.3-3.4,13.9-5.1c4.6-1.8,9.2-3.5,13.7-5.5
				c-4.4,2.1-9,4.1-13.5,6c-4.6,1.9-9.1,3.8-13.7,5.6c-9.1,3.7-18.3,7.3-27.5,10.9L104.5,181.7z"/>
		</g>
		<g>
			<path class="st2" d="M101.7,174.7c0,0,43-15.7,55.1-21.5"/>
			<path class="st1" d="M101.3,173.7c9.3-3.2,18.6-6.5,27.9-9.9c4.6-1.7,9.3-3.4,13.9-5.1c4.6-1.8,9.2-3.5,13.7-5.5
				c-4.4,2.1-9,4.1-13.5,6c-4.5,1.9-9.1,3.8-13.7,5.6c-9.1,3.7-18.3,7.3-27.5,10.9L101.3,173.7z"/>
		</g>
		<g>
			<path class="st2" d="M108.7,190.8c0,0,43-15.7,55.1-21.5"/>
			<path class="st1" d="M108.3,189.8c9.3-3.2,18.6-6.5,27.9-9.9c4.6-1.7,9.3-3.4,13.9-5.1c4.6-1.8,9.2-3.5,13.7-5.5
				c-4.4,2.1-9,4.1-13.5,6c-4.6,1.9-9.1,3.8-13.7,5.6c-9.1,3.7-18.3,7.3-27.5,10.9L108.3,189.8z"/>
		</g>
		<g>
			<path class="st2" d="M113.1,200.4c0,0,43-15.7,55.1-21.5"/>
			<path class="st1" d="M112.7,199.4c9.3-3.2,18.6-6.5,27.9-9.9c4.6-1.7,9.3-3.4,13.9-5.1c4.6-1.8,9.2-3.5,13.7-5.5
				c-4.4,2.1-9,4.1-13.5,6c-4.5,1.9-9.1,3.8-13.7,5.6c-9.1,3.7-18.3,7.3-27.5,10.9L112.7,199.4z"/>
		</g>
		<g>
			<path class="st2" d="M118.9,210.3c0,0,43-15.7,55.1-21.5"/>
			<path class="st1" d="M118.5,209.3c9.3-3.2,18.6-6.5,27.9-9.9c4.6-1.7,9.3-3.4,13.9-5.1c4.6-1.8,9.2-3.5,13.7-5.5
				c-4.4,2.1-9,4.1-13.5,6c-4.5,1.9-9.1,3.8-13.7,5.6c-9.1,3.7-18.3,7.3-27.5,10.9L118.5,209.3z"/>
		</g>
		<g>
			<path class="st2" d="M123.3,220.2c0,0,43-15.7,55.1-21.5"/>
			<path class="st1" d="M122.9,219.2c9.3-3.2,18.6-6.5,27.9-9.9c4.6-1.7,9.3-3.4,13.9-5.1c4.6-1.8,9.2-3.5,13.7-5.5
				c-4.4,2.1-9,4.1-13.5,6c-4.6,1.9-9.1,3.8-13.7,5.6c-9.1,3.7-18.3,7.3-27.5,10.9L122.9,219.2z"/>
		</g>
		<g>
			<path class="st2" d="M128.5,230.5c0,0,43-15.7,55.1-21.5"/>
			<path class="st1" d="M128.1,229.5c9.3-3.2,18.6-6.5,27.9-9.9c4.6-1.7,9.3-3.4,13.9-5.1c4.6-1.8,9.2-3.5,13.7-5.5
				c-4.4,2.1-9,4.1-13.5,6c-4.6,1.9-9.1,3.8-13.7,5.6c-9.1,3.7-18.3,7.3-27.5,10.9L128.1,229.5z"/>
		</g>
		<g>
			<path class="st2" d="M132.6,238.8c0,0,43-15.7,55.1-21.5"/>
			<path class="st1" d="M132.2,237.8c9.3-3.2,18.6-6.5,27.9-9.9c4.6-1.7,9.3-3.4,13.9-5.1c4.6-1.8,9.2-3.5,13.7-5.5
				c-4.4,2.1-9,4.1-13.5,6c-4.6,1.9-9.1,3.8-13.7,5.6c-9.1,3.7-18.3,7.3-27.5,10.9L132.2,237.8z"/>
		</g>
		<g>
			<path class="st2" d="M136.1,248.1c0,0,43-15.7,55.1-21.5"/>
			<path class="st1" d="M135.7,247.1c9.3-3.2,18.6-6.5,27.9-9.9c4.6-1.7,9.3-3.4,13.9-5.1c4.6-1.8,9.2-3.5,13.7-5.5
				c-4.4,2.1-9,4.1-13.5,6c-4.5,1.9-9.1,3.8-13.7,5.6c-9.1,3.7-18.3,7.3-27.5,10.9L135.7,247.1z"/>
		</g>
	</g>
	<g>
		<g>
			<path class="st2" d="M123.2,144.9"/>
		</g>
		<g>
			<path class="st2" d="M175.7,118"/>
		</g>
		<g>
			<path class="st2" d="M116.9,135.3"/>
		</g>
		<g>
			<path class="st2" d="M164.4,100.4c0,0-41.1,20-52.5,26.9"/>
			<path class="st1" d="M164.9,101.4c-8.9,4.2-17.8,8.4-26.7,12.6c-4.4,2.1-8.8,4.3-13.3,6.5c-4.4,2.2-8.8,4.4-13.1,6.8
				c4.2-2.6,8.5-5,12.8-7.3c4.3-2.4,8.7-4.7,13-7c8.7-4.6,17.4-9.1,26.2-13.6L164.9,101.4z"/>
		</g>
		<g>
			<path class="st2" d="M160,91.5c0,0-41.1,20-52.5,26.9"/>
			<path class="st1" d="M160.4,92.5c-8.9,4.2-17.8,8.4-26.7,12.6c-4.4,2.1-8.8,4.3-13.3,6.5c-4.4,2.2-8.8,4.4-13.1,6.8
				c4.2-2.6,8.5-4.9,12.8-7.3c4.3-2.3,8.7-4.7,13-7c8.7-4.6,17.4-9.1,26.2-13.6L160.4,92.5z"/>
		</g>
	</g>
	<g>
		<g>
			<path class="st2" d="M894.6,182.5c0,0-45.6-15.5-58.4-21.1"/>
			<path class="st1" d="M894.3,183.5c-9.7-3.5-19.5-7.1-29.2-10.7c-4.8-1.8-9.7-3.7-14.5-5.5c-4.8-1.9-9.6-3.8-14.4-5.9
				c4.8,2,9.7,3.7,14.6,5.4c4.9,1.7,9.8,3.4,14.7,5c9.8,3.3,19.6,6.5,29.5,9.7L894.3,183.5z"/>
		</g>
		<g>
			<path class="st2" d="M898,174.5c0,0-45.6-15.5-58.4-21.1"/>
			<path class="st1" d="M897.7,175.6c-9.7-3.5-19.5-7.1-29.2-10.7c-4.8-1.8-9.7-3.7-14.5-5.5c-4.8-1.9-9.6-3.8-14.4-5.9
				c4.8,2,9.7,3.7,14.5,5.4c4.9,1.7,9.8,3.4,14.7,5c9.8,3.3,19.6,6.5,29.5,9.7L897.7,175.6z"/>
		</g>
		<g>
			<path class="st2" d="M890.6,190.4c0,0-45.6-15.5-58.4-21.1"/>
			<path class="st1" d="M890.3,191.4c-9.7-3.5-19.5-7.1-29.2-10.7c-4.8-1.8-9.7-3.7-14.5-5.5c-4.8-1.9-9.6-3.8-14.4-5.9
				c4.8,2,9.7,3.7,14.5,5.4c4.9,1.7,9.8,3.4,14.7,5c9.8,3.3,19.6,6.5,29.5,9.7L890.3,191.4z"/>
		</g>
		<g>
			<path class="st2" d="M886,199.8c0,0-45.6-15.5-58.4-21.1"/>
			<path class="st1" d="M885.6,200.9c-9.7-3.5-19.5-7.1-29.1-10.7c-4.8-1.8-9.7-3.7-14.5-5.5c-4.8-1.9-9.6-3.8-14.4-5.9
				c4.8,2,9.7,3.7,14.5,5.4c4.9,1.7,9.8,3.4,14.7,5c9.8,3.3,19.6,6.5,29.5,9.7L885.6,200.9z"/>
		</g>
		<g>
			<path class="st2" d="M879.8,209.6c0,0-45.6-15.5-58.4-21.1"/>
			<path class="st1" d="M879.5,210.6c-9.7-3.5-19.5-7.1-29.2-10.7c-4.8-1.8-9.7-3.7-14.5-5.5c-4.8-1.9-9.6-3.8-14.4-5.9
				c4.8,2,9.7,3.7,14.5,5.4c4.9,1.7,9.8,3.4,14.7,5c9.8,3.3,19.6,6.5,29.5,9.7L879.5,210.6z"/>
		</g>
		<g>
			<path class="st2" d="M875.2,219.3c0,0-45.6-15.5-58.4-21.1"/>
			<path class="st1" d="M874.8,220.4c-9.7-3.5-19.5-7.1-29.2-10.7c-4.8-1.8-9.7-3.7-14.5-5.5c-4.8-1.9-9.6-3.8-14.4-5.9
				c4.8,2,9.7,3.7,14.5,5.4c4.9,1.7,9.8,3.4,14.7,5c9.8,3.3,19.6,6.5,29.5,9.7L874.8,220.4z"/>
		</g>
		<g>
			<path class="st2" d="M869.6,229.4c0,0-45.6-15.5-58.4-21.1"/>
			<path class="st1" d="M869.3,230.4c-9.7-3.5-19.5-7.1-29.2-10.7c-4.8-1.8-9.7-3.7-14.5-5.5c-4.8-1.9-9.6-3.8-14.4-5.9
				c4.8,2,9.7,3.7,14.5,5.4c4.9,1.7,9.8,3.4,14.7,5c9.8,3.3,19.6,6.5,29.5,9.7L869.3,230.4z"/>
		</g>
		<g>
			<path class="st2" d="M865.3,237.6c0,0-45.6-15.5-58.4-21.1"/>
			<path class="st1" d="M864.9,238.6c-9.7-3.5-19.5-7.1-29.2-10.7c-4.8-1.8-9.7-3.7-14.5-5.5c-4.8-1.9-9.6-3.8-14.4-5.9
				c4.8,2,9.7,3.7,14.5,5.4c4.9,1.7,9.8,3.4,14.7,5c9.8,3.3,19.6,6.5,29.5,9.7L864.9,238.6z"/>
		</g>
		<g>
			<path class="st2" d="M861.6,246.7c0,0-45.6-15.5-58.4-21.1"/>
			<path class="st1" d="M861.2,247.8c-9.7-3.5-19.5-7.1-29.2-10.7c-4.8-1.8-9.7-3.7-14.5-5.5c-4.8-1.9-9.6-3.8-14.4-5.9
				c4.8,2,9.7,3.7,14.5,5.4c4.9,1.7,9.8,3.4,14.7,5c9.8,3.3,19.6,6.5,29.5,9.7L861.2,247.8z"/>
		</g>
	</g>
	<g>
		<g>
			<g>
				<path class="st1" d="M247.1,137.5c0,0,0.2,0.7,0.5,2.2c0.4,1.6,0.7,2.7,1,3.1c0,0.2,0,0.5,0.1,0.9c0,0.4,0.1,0.7,0.1,0.9
					c0,0.7-0.3,1.1-0.8,1.4c0,0-0.2,0-0.6,0.1c-0.4-0.1-0.7-0.7-0.9-1.7c-0.1-0.2-0.3-0.4-0.6-0.7c-0.3-0.3-0.5-0.5-0.6-0.7
					c-0.1-0.1-0.3-0.2-0.6-0.3c-0.3-0.1-0.5-0.2-0.6-0.4c-0.3,0.1-0.7,0-1.3-0.1c-1,0.3-2.3,0.7-4,1.4c-1.8,0.7-3.1,1.2-3.9,1.4
					c-0.1,0.5,0.1,1.5,0.6,3.1c0,0.4,0.3,1.4,0.7,3.1c0,0.3,0.1,0.8,0.4,1.5c0.3,0.6,0.4,1.2,0.4,1.6c0.3,0.5,0.9,2.1,1.8,4.9
					c0,0,0.1,0,0.1,0.1c0.1,0,0.1,0.1,0.1,0.1c0,0,0,0.1,0,0.1c0,0,0,0-0.1,0.1c0,0,0,0,0.1,0.1c0.1,0,0.1,0.1,0.1,0.1
					c0,0.5,0.4,1.8,1.2,3.8c0.2,0.4,0.7,0.6,1.3,0.8c0.7,0.2,1.2,0.4,1.4,0.6c0.1,0.7,0,1.1-0.1,1.2c-0.1,0.1-0.2,0.2-0.3,0.4
					c-0.1,0.3-0.2,0.4-0.2,0.5c0.2,1.3,0.2,2,0.2,2.2c0.1,0.5,0.4,1.3,0.9,2.4c0.4,0.9,0.7,1.7,0.8,2.2c0.1,0.2,1.2,3.2,3.5,8.9
					c0.1,0.2,0.4,0.5,0.8,1c0.3,0.4,0.6,0.8,0.8,1.2c0.1,0.1,0.3,0.2,0.7,0.5c0.3,0.2,0.5,0.4,0.7,0.6c1,0.6,1.5,0.9,1.5,0.9
					c0.5-0.2,1,0.2,1.3,1.1c-0.3,0.4-0.8,0.7-1.6,0.9c-1.1,0.3-1.7,0.5-1.8,0.6c-0.8-0.1-1.4-0.1-1.8,0c-0.1-0.1-0.4-0.2-0.8-0.3
					c-0.1,0-0.2,0-0.4-0.2c-0.1-0.1-0.3-0.1-0.4,0c-0.2,0.1-0.4,0.2-0.4,0.4c-0.1,0.3-0.2,0.4-0.3,0.5c0,0.1-0.1,0.3-0.3,0.5
					c-0.2,0.2-0.3,0.3-0.3,0.4c-0.1,0.1-1.7,0.5-4.7,1.4c-0.3-0.5-0.6-0.7-0.9-0.7c0,0,0.2-0.4,0.5-1.2c0.1-0.1,0.3-0.3,0.4-0.5
					c0.1-0.3,0.3-0.4,0.4-0.5c0-0.2,0.1-0.5,0.2-0.9c0.1-0.4,0.2-0.7,0.2-0.9c0.1-0.2,0.1-0.5,0.1-0.9c0-0.4,0.1-0.7,0.2-0.8
					c-0.7-3-1.1-4.8-1.3-5.2c-0.1-0.3-0.1-0.7-0.1-1.1c-0.3-0.6-0.6-1.4-1-2.5c-0.5-1.5-0.8-2.4-1-2.9c-0.4-1-1.2-2.7-2.5-5.1
					c-0.4-0.4-1.1-1-2.1-1.9c0-0.3,0.1-0.9,0.2-2c0.1-0.8,0.2-1.5,0.1-2.1c-1.1-2.7-1.7-4.1-1.9-4.4c-0.3-1.1-0.5-1.8-0.6-2
					c-0.2-0.4-0.6-1.1-1.2-2.2c-0.5-0.9-0.8-1.7-1-2.4c-0.2-0.2-0.5-0.6-0.7-1.1c-0.3-0.6-0.5-1.1-0.6-1.3c0-0.2-0.2-0.3-0.4-0.4
					c-0.2-0.1-0.4-0.2-0.4-0.4c-0.6-0.7-0.9-1-0.8-0.9c-0.5,0-1.5,0.5-3.2,1.4c-1.6,0.2-3.5,1.1-5.5,2.7c-0.2,0.2-0.4,0.6-0.7,1.1
					c-0.3,0.5-0.5,0.9-0.7,1.1c0,0.4,0,1-0.2,1.9c0.2,1,0.3,1.5,0.4,1.4c-0.2,0.1-0.4,0.1-0.6,0.2c-0.2,0-0.4,0.1-0.6,0.1
					c-0.4-0.2-0.7-0.4-0.9-0.8c0-0.1-0.1-0.3-0.3-0.7c-0.1-0.3-0.2-0.6-0.4-0.8c-0.6-0.8-1-1.4-1.1-1.8c-0.1-0.1-0.3-0.3-0.5-0.6
					c-0.2-0.2-0.4-0.4-0.5-0.7c-0.1-0.2-0.2-0.3-0.5-0.5c-0.3-0.1-0.5-0.3-0.5-0.6c0-0.1,0.1-0.3,0-0.6c0-0.2,0-0.4,0-0.5
					c0.1-0.1,0.3-0.2,0.4-0.4c0.1-0.2,0.3-0.3,0.5-0.3c-0.1,0,0.1,0,0.5,0.1c0.2,0,0.3-0.1,0.3-0.2c0.5-0.1,1.3-0.4,2.4-0.9
					c1-0.5,1.9-0.8,2.6-0.9c2.3-1.4,6.8-3.3,13.4-5.6c3.4-1.2,6.5-2.3,9.4-3.4c-0.1,0,0.3-0.1,1.2-0.4c0.7-0.2,1.3-0.5,1.7-0.6
					c0.1,0,0.4-0.2,0.9-0.4c0.4-0.2,0.7-0.3,0.9-0.4c0.2,0,0.3-0.1,0.3-0.2c0-0.1,0.1-0.2,0.2-0.2c0.1-0.1,0.3-0.1,0.4-0.1
					c0.1,0,0.3,0,0.4,0C246.8,137.3,247.1,137.5,247.1,137.5z"/>
				<path class="st1" d="M291.9,126.6c-0.1-0.2-0.4-0.3-1-0.4c-0.5,0.1-1.2,0.4-2.1,1.1c-0.2,0.1-0.3,0.3-0.4,0.6
					c-0.1,0.3-0.2,0.5-0.4,0.6c0.2,0.5,0.2,1.5-0.1,2.9c0,0.2,0.1,0.4,0.3,0.6c0.1,0.2,0.2,0.4,0.2,0.6c0-0.1,0.3,1.5,0.9,4.6
					c0.1,0.4,0.3,1.2,0.7,2.5c0.9,2.7,1.2,4,1.1,3.9c0.2,1.4,0.4,2.5,0.7,3.2c0.1,0.1,0.4,0.3,0.8,0.8c0.1,0.2,0.3,0.3,0.6,0.3
					c0.3,0.1,0.5,0.2,0.5,0.4c0.5,0,0.8,0.1,1.1,0.5c0.1,0.3,0.1,0.6-0.2,0.8c-0.1,0-0.2,0.1-0.4,0.2c-0.2,0.1-0.3,0.2-0.4,0.3
					c0,0.3-0.2,0.6-0.4,1c-0.3,0.4-0.4,0.8-0.5,1c0.1,0.3,0.1,0.6,0,0.8c0.4,0.8,0.8,1.9,1,3.4c0.3,1.8,0.6,3,0.7,3.6
					c0,0.1,0,0.3,0,0.6c0,0.2,0,0.4,0,0.6c0.2,0.8,0.5,1.9,0.8,3.2c0.4,1.4,0.6,2.4,0.8,3c0,0.1,0.5,1,1.3,2.8
					c0.4,0.4,0.7,0.7,1,0.9c0.1,0.1,0.2,0.1,0.5,0.3c0.2,0.1,0.4,0.2,0.5,0.3c0.3,0,0.6-0.1,0.8-0.4c0.2-0.2,0.4-0.3,0.5-0.1
					c0.3-0.1,0.5-0.1,0.7,0.1c0.3,0.3,0.5,0.4,0.5,0.4c0,0.5-0.4,1.1-1,1.5c-0.1,0.1-0.4,0.3-0.9,0.5c-0.4,0.2-0.7,0.4-0.8,0.6
					c-0.4,0.1-0.9,0.2-1.3,0.4c0,0-0.3,0-0.7,0.1c-0.7-0.4-1.1-0.7-1.1-1c-0.2,0.4-0.5,0.5-0.7,0.5c0.1,0.2,0,0.5-0.3,0.8
					c0,0.2-0.2,0.4-0.5,0.7c-0.3,0.3-0.5,0.5-0.5,0.6c-0.2,0-0.5,0.1-0.9,0.2c-0.4,0.2-0.8,0.2-1.1,0.2c-0.8,0-1.2-0.1-1.1-0.2
					c-0.1-0.1-0.4-0.3-0.8-0.5c-0.3-0.2-0.6-0.4-0.7-0.6c-0.1,0-0.3-0.1-0.4-0.3c-0.1-0.2-0.2-0.4-0.3-0.4c0-0.1-0.1-0.2-0.3-0.2
					c-0.2,0-0.3-0.1-0.3-0.3c0,0,0.2-0.4,0.5-1.2c0.6-0.2,1.4,0,2.2,0.5c0.1-0.1,0.2-0.2,0.5-0.5c0.2-0.2,0.4-0.4,0.4-0.6
					c0-0.3,0-0.6,0-1.1c0-0.5,0-0.9,0-1.1c-0.4-0.7-0.8-2-1.3-3.8c-0.5-1.8-1-3.1-1.3-3.8c-0.1-1.2-0.4-2.5-0.9-4.1
					c-0.8-2.3-1.3-3.9-1.5-4.7c-2,0.3-4.1,0.9-6,1.7c-1.3,0.1-5.3,1.2-12.1,3.3c-0.1,0.1-0.2,0.4-0.1,0.8c0.1,0.5,0.1,0.8,0.1,0.9
					c0.3,0.7,0.6,1.6,0.9,2.8c0.2,1,0.5,1.8,0.8,2.5c0.1,0.4,0.2,1.2,0.5,2.2c0.2,1,0.4,1.7,0.4,2.1c0.1,0.3,0.4,1.1,0.9,2.4
					c0.4,1,0.7,1.8,0.8,2.4c1.2,1.4,1.7,2.1,1.6,2c0.1,0.4,0.4,0.7,0.8,0.9c0.5,0.2,0.9,0.4,1,0.6c0.1,0,0.4-0.1,0.6-0.2
					c0.3-0.1,0.6-0.2,0.7-0.2c0.5-0.2,0.8-0.2,1.1,0c0.3,0.5,0.3,1,0,1.3c-0.1,0.1-0.2,0.2-0.4,0.4c-0.2,0.2-0.4,0.3-0.5,0.4
					c-0.6,0.2-1.5,0.5-2.5,1.1c-1.1,0.1-2-0.1-2.7-0.7c0.1-0.2-0.2,0.3-0.9,1.5c-1.2,0.8-2.6,1.1-4.1,1c-0.1-0.1-0.4-0.2-0.9-0.5
					c-0.3-0.2-0.6-0.4-0.8-0.6c-0.4-0.1-0.6-0.3-0.6-0.6c0-0.2,0.1-0.5,0.2-1c0.4-0.1,0.9-0.1,1.4,0.1c0.6,0.2,1,0.2,1.4,0.2
					c0.5-0.4,0.6-1.2,0.1-2.6c-0.1-0.2-0.1-0.4-0.1-0.7c0.1-0.3,0.1-0.5,0-0.7c0,0.1-0.2-0.4-0.7-1.5c-0.3-1.8-1-4.2-1.9-7.3
					c-1-3.4-1.6-5.8-1.9-7.1c-0.1-0.1-0.3-0.3-0.5-0.5c-0.2-0.2-0.4-0.4-0.5-0.5c-0.1-0.2-0.3-0.2-0.7-0.2c-0.4,0-0.6,0-0.7-0.2
					c-0.3-0.4-0.5-0.9-0.6-1.7c0.7-0.3,1.1-0.4,1.2-0.4c0.1-0.1,0.1-0.3,0.1-0.7c0-0.3,0.1-0.5,0.2-0.6c0,0-0.8-2.9-2.5-8.7
					c-0.1-0.4-0.3-1-0.6-1.6c-0.4-0.9-0.6-1.4-0.6-1.6c0-0.1,0-0.2,0-0.4c0-0.2,0-0.3-0.1-0.4c0-0.1-0.2-0.4-0.5-0.9
					c-0.3-0.5-0.4-0.8-0.5-1c0,0,0-0.1,0-0.2c0.1-0.1,0.1-0.1,0.1-0.2c-0.1-0.1-0.2-0.4-0.6-0.8c-0.2-0.3-0.4-0.6-0.4-0.9
					c-0.1-0.1-0.2-0.2-0.5-0.2c-0.2-0.1-0.3-0.2-0.3-0.5c-0.2,0-0.5-0.1-0.8-0.3c-0.3-0.1-0.6-0.2-0.9-0.2c-0.8,0.3-1.2,0.5-1.2,0.8
					c0,0.4-0.4,0.6-1.1,0.6c-0.3-0.3-0.4-0.7-0.2-1.2c0.3-0.6,0.4-1,0.3-1.3c0.4-0.2,1-0.7,1.6-1.4c0.9-0.5,1.9-0.8,2.9-1.1
					c0.1,0,0.5,0,1.2,0c0.5,0,0.9,0.1,1.1,0.2c-0.1,0.1,0.8-0.6,2.7-2.1c0.2-0.1,0.6-0.2,1.1-0.2c0.4,0,0.8-0.1,1.1-0.3
					c2.2,1,3.5,1.7,3.9,2.3c-0.2,0.5-0.6,0.8-1.2,0.9c-1,0.1-1.7,0.2-2,0.3c-0.2,0.1-0.3,0.3-0.4,0.5c-0.1,0.3-0.2,0.5-0.4,0.6
					c0,0.3-0.1,0.7-0.3,1.3c0.1,0.5,0.3,1.6,0.5,3.2c0.2,1.3,0.4,2.4,0.6,3.3c0.1,0.2,0.2,0.3,0.3,0.4c0.2,0.1,0.3,0.2,0.3,0.4
					c0.1,0.2,0.1,0.4,0.1,0.6c-0.1,0.3-0.1,0.4-0.1,0.6c0.5,1,1,2.5,1.4,4.4c0.4,2,0.8,3.4,1.1,4c0.6,0,1.8-0.3,3.8-0.9
					c4.9-0.8,7.8-1.4,8.9-1.9c0.7-0.2,1.7-0.5,3.1-1c1-0.4,1.9-0.6,2.6-0.7c0-0.6-0.2-1.6-0.7-3.1c-0.5-1.4-0.8-2.5-0.7-3.1
					c0.1,0.1-0.1-0.3-0.6-1c-0.1-0.8-0.6-2.6-1.6-5.3c-0.3-1.5-0.8-2.8-1.5-3.9c-0.2-0.6-0.4-1.3-0.6-1.9c-0.2-0.3-0.4-0.7-0.7-1.3
					c-0.2-0.5-0.5-0.9-0.8-1.2c-0.9,0.1-1.3,0.2-1.3,0.2c-0.3,0.1-0.5,0.2-0.6,0.4c-0.2,0.3-0.3,0.5-0.4,0.5c0.3,0.6,0.2,1-0.2,1.2
					c-0.3,0.2-0.6,0.2-0.9,0.1c0,0-0.2-0.1-0.6-0.3c0-0.7,0.2-1.4,0.6-2.1c0.1-0.2,0.3-0.5,0.6-0.9c0.3-0.4,0.5-0.7,0.6-0.9
					c1.7-1,2.5-1.5,2.4-1.4c0.1,0,0.9-0.3,2.5-0.9c0.2,0.1,0.6,0.2,1.1,0.2c0.5,0,0.9,0.1,1,0.2c0.4-0.2,0.8-0.5,1.2-1
					c0.4-0.5,0.8-0.8,1.2-1c0.5-0.1,1-0.3,1.6-0.4c0.4,0,0.9-0.1,1.5-0.2c0.5,0,1-0.1,1.4-0.1c0.1,0.2,0.3,0.2,0.6,0.2
					c0.4,0.3,0.9,0.7,1.5,1.3c0.1,0.1,0.3,0.3,0.7,0.6c0.3,0.2,0.4,0.4,0.3,0.8C293.4,126.1,292.9,126.3,291.9,126.6z"/>
				<path class="st1" d="M331.5,114.3c0,0,0,0.4,0.1,1.2c0.1,1.1,0.2,1.9,0.2,2.2c0,0.5,0.1,1,0.3,1.7c0.3,0.9,0.4,1.6,0.5,2.1
					c0.1,0.3,0.2,0.6,0.5,0.9c0.3,0.3,0.4,0.6,0.5,0.9c-0.2,0.1-0.4,0.2-0.7,0.5c-0.2,0.2-0.5,0.4-0.7,0.5c-0.1-0.2-0.3-0.3-0.8-0.2
					c-0.5-0.5-0.6-1.3-0.5-2.2c-0.1-0.3-0.3-0.5-0.7-0.8c-0.4-0.2-0.6-0.5-0.7-0.7c-0.5-0.1-0.8-0.3-0.9-0.6c0.1,0-0.1,0-0.5-0.1
					c-0.2,0-0.3-0.2-0.3-0.4c-0.4,0.1-1,0.1-1.6,0c-0.7-0.1-1.2-0.1-1.5-0.1c-0.5,0.1-1.3,0.3-2.1,0.6c-1,0.3-1.6,0.5-2,0.6
					c-0.2,0-0.5,0.1-0.9,0.1c-0.5,0-0.8,0-1,0.1c-0.2,0-0.4,0.1-0.6,0.2c-0.3,0.1-0.6,0.2-0.7,0.2c0,0,0,0-0.1-0.1
					c0-0.1-0.1-0.1-0.1,0c-0.8,0.4-2.2,0.8-4.1,1.4c-2,0.6-3.5,1.1-4.4,1.5c0,0.1-0.1,1.4-0.3,3.9c0,0.2,0.2,0.8,0.5,1.7
					c0.2,0.6,0.2,1-0.1,1.3c0.9,2.2,1.5,4,1.5,5.4c0.8,2.1,1.3,3.9,1.7,5.2c2.6-0.6,4.3-1.1,5.1-1.6c-0.1-0.2-0.1-0.4,0.1-0.7
					c0.1-0.3,0.1-0.5,0-0.8c0-0.4-0.3-0.7-0.8-0.9c-0.5-0.2-0.6-0.4-0.5-0.8c-0.1-0.2-0.1-0.4,0.2-0.5c0.3-0.2,0.4-0.3,0.3-0.4
					c0.8-0.1,1.5,0.1,2.1,0.6c0,0.1,0.5,0.6,1.4,1.7c0.1,0.3,0.2,0.9,0.3,1.9c0.1,0.7,0.3,1.3,0.5,1.7c0.1,2.9-0.9,4.3-3,4.2
					c-0.4-0.8-0.5-1.1-0.3-1.1c-0.1-0.2-0.1-0.5,0-0.8c0.1-0.3,0.1-0.6,0.1-0.7c-1.3,0.1-2.9,0.4-4.8,1c0.2,0.5,0.4,1.3,0.6,2.4
					c0.2,1.1,0.4,1.9,0.6,2.5c0.6,1.7,1.1,3.5,1.6,5.4c0.4,1.8,1,3.2,1.6,4.3c0.1,0.4,0.3,0.8,0.7,1.3c0.6,0.6,0.9,0.9,0.8,0.9
					c0.1,0.5,0.2,1,0.5,1.4c0.8,0.8,1.4,1.3,2,1.5c6.3-1.8,11.6-3.4,15.8-4.9c0.1,0,0.2-0.1,0.3-0.3c0.1-0.1,0.3-0.2,0.4-0.2
					c0.3-0.2,0.6-0.5,1-1.1c0.3-0.5,0.7-0.9,1-1.1c-0.2-0.5-0.1-0.8,0.2-0.8c0-0.1-0.1-0.3-0.1-0.5c0-0.2,0-0.4,0-0.5
					c0-0.2-0.1-0.4-0.2-0.7c-0.1-0.3-0.2-0.6-0.2-0.7c-0.1-0.6,0-1,0.3-1.2c0.2,0,0.3-0.1,0.3-0.2c0.7-0.1,1.2,0.2,1.4,0.8
					c0.1,0.2,0.2,0.5,0.3,0.9c0.1,0.5,0.2,0.8,0.2,1c0.1,0.2,0.3,0.9,0.8,2.3c0.5,1.2,0.8,1.8,0.9,1.9c0,0.2,0,0.3-0.2,0.5
					c-0.1,0.2-0.2,0.3-0.2,0.4c0.1,0.5,0.2,1,0.3,1.6c-0.3,0.5-0.9,0.8-1.9,1.1c-1.7,0.4-2.5,0.6-2.4,0.5c-0.2,0.1-0.4,0.1-0.6,0
					c-0.2-0.1-0.4-0.1-0.6,0c-0.4,0.1-1.2,0.3-2.3,0.5c-0.2,0.1-0.5,0.2-1,0.4c-0.4,0.2-0.7,0.3-0.9,0.4c-0.1,0.1-1.3,0.3-3.6,0.8
					c-0.6,0.1-2.1,0.5-4.6,1.3c-2.1,0.6-3.9,1.1-5.4,1.4c-2.9,0.4-4.6,0.7-5,0.8c-0.3,0.1-0.5,0.4-0.6,0.8c-0.1,0.4-0.3,0.7-0.4,0.8
					c-0.1,0-0.5,0.2-1,0.6c-0.4,0.1-1,0.2-1.6,0.3c-0.7,0-1.2,0.1-1.4,0.2c0.1,0.1-0.3,0-1.3-0.4c-0.1,0-0.1,0-0.1-0.1
					c0-0.1-0.1-0.1-0.1-0.2c-0.1,0-0.2-0.1-0.4-0.1c-0.2,0-0.3-0.1-0.4-0.2c-0.3-0.1-0.4-0.4-0.4-0.9c0.2-0.4,0.9-0.6,2.1-0.6
					c0.4-0.3,0.7-0.5,0.9-0.6c0.1-0.1,0.3-0.3,0.5-0.7c0.2-0.3,0.4-0.5,0.6-0.7c-0.1-0.4-0.1-0.8,0.2-1.2c-0.1-1-0.2-2.1-0.5-3.4
					c-0.4-1.6-0.6-2.8-0.7-3.6c-0.3-1-0.9-3.1-1.6-6.2c-0.7-2.8-1.3-4.9-1.8-6.4c-0.2-0.1-0.7-0.3-1.5-0.4c-0.6-0.1-1.1-0.3-1.3-0.7
					c0-0.4,0.1-0.7,0.5-1c0.1-0.1,0.2-0.2,0.5-0.4c0.2-0.2,0.4-0.3,0.5-0.3c0-0.2,0-0.5,0.2-0.8c0.2-0.3,0.3-0.6,0.3-0.7
					c-0.1-0.2,0-0.3,0.1-0.4c-0.2-1.2-0.6-2.8-1.1-4.7c-0.7-2.6-1.1-4.2-1.3-4.8c-0.2-0.8-0.5-1.9-0.9-3.3c-0.5-1.7-0.9-2.9-1.1-3.5
					c0.1,0.1-0.2-0.4-0.9-1.6c-0.4-0.6-0.9-0.9-1.4-1c-0.1,0.1-0.4,0.3-0.8,0.5c-0.4,0.2-0.7,0.4-0.8,0.5c0,0.3-0.2,0.5-0.6,0.6
					c-0.4,0.1-0.7,0.1-0.9,0c-0.2-0.4-0.2-0.7,0.1-1c0.4-0.4,0.6-0.6,0.6-0.7c0.5-0.3,1-0.7,1.5-1.2c0.9-0.3,1.3-0.5,1.4-0.5
					c1.6-0.1,3-0.2,4.1-0.4c0.5-0.1,1.4-0.3,2.4-0.6c1.1-0.3,2-0.4,2.6-0.6c0.7-0.1,1.4-0.3,2.1-0.4c2.3-0.6,3.6-0.8,3.9-0.8
					c1-0.5,2.6-0.9,4.6-1.4c2.8-0.6,4.6-1,5.4-1.2c3.4-0.9,5.3-1.4,5.5-1.4C331.3,114.1,331.5,114.3,331.5,114.3z"/>
				<path class="st1" d="M394.9,126.4c0,0-0.3,0.4-0.8,1.3c0.1,2.9,0.2,4.7,0.5,5.4c-0.1,1.3,0,2.3,0.3,3c-0.1,0.1-0.1,0.3-0.1,0.6
					c0,0.3-0.1,0.5-0.1,0.6c0.2,0.9,0.2,1.9,0.1,3.1c-0.1,1.4-0.2,2.4-0.1,2.9c-0.1,0.2-0.3,0.5-0.4,1c-0.1,0.5-0.2,0.8-0.3,1
					c0,0-0.1,0.2-0.3,0.8c0,0,0,0.1,0,0.1c0,0.1,0,0.1,0,0.1c0,0-0.1,0-0.2,0c0,0-0.1,0-0.1,0c0,0.1,0,0.1,0,0.2
					c0,0.1,0.1,0.2,0,0.2c-0.1,0.2-0.2,0.3-0.4,0.6c-0.2,0.3-0.4,0.5-0.4,0.6c-0.1,0.1-0.1,0.2-0.2,0.3c-0.1,0.1-0.1,0.2-0.2,0.3
					c-0.4,0.6-0.6,0.9-0.6,1c-0.3,0.6-0.5,0.9-0.5,0.9c-0.2,0.2-0.6,0.5-1.1,1.1c-0.5,0.5-0.9,0.8-1.2,1c-0.3,0.3-0.8,0.5-1.5,0.8
					c-0.8,0.4-1.4,0.7-1.6,0.8c-1.2,0.2-1.9,0.4-2,0.5c-0.1,0-0.8,0-1.9,0.1c-0.7,0-1.3,0-1.7,0c-0.4,0-0.9-0.1-1.5-0.3
					c-0.6-0.2-1.1-0.3-1.5-0.3c-0.9-0.5-1.5-0.8-1.8-0.8c-0.7-0.5-1.2-0.8-1.7-0.9c-0.1-0.1-0.2-0.2-0.4-0.4
					c-0.2-0.1-0.3-0.3-0.3-0.5c-0.1,0-0.3-0.1-0.5-0.2c-0.2-0.1-0.4-0.1-0.5-0.2c-0.2-0.7-0.3-1-0.3-1c-0.2-0.1-0.5-0.3-0.8-0.7
					c-0.3-0.4-0.6-0.6-0.8-0.8c-0.1-0.4-0.1-0.7-0.2-1.1c-0.1-0.2-0.4-0.6-0.7-1.3c-0.3-0.6-0.5-1-0.8-1.2c-0.6-1.9-1.2-3.3-1.8-4.1
					c-0.1-0.2-0.1-0.3-0.1-0.5c0.1-0.2,0.1-0.4,0-0.5c-0.6-0.8-0.8-1.6-0.7-2.3c-0.5-1.1-0.8-1.8-0.7-2.2c0-0.1-0.2-0.2-0.4-0.3
					c-0.2-0.1-0.4-0.2-0.4-0.4c-0.3-0.1-0.5-0.4-0.6-0.8c-0.1,0-0.3-0.1-0.5-0.2c-0.2-0.1-0.4-0.2-0.5-0.3c-0.2,0-0.6-0.2-1-0.5
					c0,0,0.1-0.2,0.1-0.5c0-0.2,0.1-0.3,0.4-0.3c0.3-0.4,0.5-0.6,0.6-0.7c0.1-1,0.1-2.2,0.1-3.7c-0.1-0.4-0.2-1-0.5-1.7
					c-0.4-1.4-0.6-2-0.5-1.9c0,0,0-0.9-0.1-2.9c0.2-1.8,0.1-3.3-0.2-4.6c0-0.1,0.2-0.9,0.5-2.5c0.3-1.3,0.5-2.1,0.5-2.4
					c0.2-0.1,0.5-0.3,0.7-0.7c0.2-0.4,0.4-0.6,0.5-0.7c-0.1,0.1,0-0.1,0.3-0.8c0,0,0-0.1,0-0.1c0-0.1,0-0.1,0-0.1c0,0,0.1,0,0.3-0.1
					c0.1-0.1,0.2-0.2,0.1-0.4c0.7-0.6,1.2-1.1,1.5-1.6c0.4-0.1,1.3-0.6,2.6-1.5c0.5-0.1,1.1-0.3,1.7-0.6c0.8-0.4,1.3-0.6,1.6-0.7
					c0.1,0,0.2-0.1,0.3-0.1c0.1-0.1,0.1,0,0.2,0c1.4-0.2,3-0.3,4.8-0.2c1.1,0,2.5,0.2,4,0.4c0.2,0,0.6,0.2,1.1,0.4
					c0.4,0.2,0.8,0.3,1.2,0.3c0.1,0.3,0.4,0.6,0.9,0.9c0.2,0,0.3,0.1,0.6,0.3c0.2,0.2,0.4,0.3,0.6,0.3c0.1,0.3,0.3,0.5,0.6,0.7
					c0.4,0.3,0.7,0.5,0.7,0.5c0.7,1.1,1.1,1.7,1.2,1.7c0,0,0,0.3,0.1,0.8c0.8,1.1,1.4,2.3,1.6,3.5c0.1,0.1,0.2,0.3,0.4,0.7
					c0.2,0.3,0.3,0.5,0.4,0.7c0,0.7,0.3,1.6,0.9,2.7c0.1,1.4,0.7,3.6,1.8,6.5c0.1,0.2,0.4,0.5,0.9,0.7c0.5,0.2,0.8,0.4,0.9,0.7
					C394.9,126.2,394.9,126.4,394.9,126.4z M387.4,125.6c0,0,0.1-0.1,0.4-0.4c0.2-0.2,0.4-0.4,0.5-0.6c-0.1-0.3-0.1-0.5,0-0.8
					c0.1-0.3,0.2-0.5,0.1-0.7c-0.6-1.7-1-2.6-1.2-2.8c0-0.3-0.1-0.7-0.1-1c-0.5-0.6-0.9-1.5-1.2-2.8c-0.2-0.2-0.5-0.6-0.7-1.1
					c-0.3-0.7-0.5-1.1-0.6-1.2c-0.1-0.2-0.3-0.6-0.7-1.2c-0.3-0.5-0.5-0.9-0.6-1.2c-0.5-0.1-0.9-0.5-1.1-1c-0.5-0.2-0.9-0.5-1.2-0.8
					c-0.7-0.2-1-0.3-1-0.4c-1-0.2-1.6-0.3-1.7-0.5c-0.2,0.1-0.7,0.1-1.4,0.1c-0.1,0-0.3,0-0.4,0c-0.1,0-0.2,0-0.2,0.1
					c-0.6-0.1-0.9-0.2-0.7-0.3c-1.9,0.2-3.6,0.5-5,1.1c-1,0.5-1.4,0.8-1.3,0.8c-0.1,0.3-0.5,0.6-1.1,0.9c-0.1,0.3-0.2,0.6-0.4,1
					c-0.3,0.4-0.4,0.7-0.5,0.9c-0.2,0.2-0.4,0.5-0.5,1c-0.2,0.5-0.3,0.8-0.5,1c0,0.2,0,0.9-0.2,2.1c-0.1,0.8-0.1,1.6,0.2,2.3
					c0,0.1,0,0.3-0.1,0.4c-0.1,0.1-0.1,0.3,0,0.5c0.1,0.4,0.1,1.5,0.3,3.1c0.1,1.3,0.2,2.3,0.4,3.2c0.1,0.1,0.2,0.3,0.3,0.6
					c0.1,0.3,0.3,0.5,0.4,0.6c0.3,0.4,0.5,0.9,0.6,1.3c0.9,0.5,1.4,0.7,1.3,0.6c0,0.3,0.1,0.6,0.3,0.8c0.2,0.2,0.4,0.4,0.4,0.7
					c-0.7,0.4-1.1,1.1-1.4,2.3c0.1,0.8,0.4,1.8,0.8,3c0.5,1.3,0.8,2.2,0.9,2.8c0.4,0.6,0.9,1.6,1.3,3.1c1,1.6,1.8,2.8,2.2,3.7
					c0.1,0.1,0.4,0.4,0.8,0.8c0.3,0.3,0.6,0.5,0.9,0.6c0.1,0.2,0.4,0.4,0.9,0.7c0.1,0.1,0.2,0.3,0.5,0.4c0.2,0.1,0.4,0.3,0.5,0.4
					c0.2,0,0.5,0.1,0.8,0.4c0.5,0,1,0.1,1.8,0.2c0.9,0.1,1.5,0.2,1.8,0.2c0.4-0.1,1.3-0.3,2.5-0.4c1-0.5,1.7-0.8,2.1-0.9
					c0,0,0.3-0.3,0.9-0.7c0.6-0.5,1-0.7,1.1-0.7c0.1-0.7,0.4-1.1,0.8-1.4c0,0.1,0-0.1,0-0.6c0-0.3,0.1-0.4,0.3-0.4
					c0.1,0,0.1-0.2,0-0.6c-0.1-0.3,0-0.5,0.3-0.5c0.1-0.5,0.2-1.1,0.4-1.6c0.1-0.5,0.2-0.7,0.2-0.6c0.1-0.8,0.2-1.9,0.3-3.3
					c0.2-1.5,0.3-2.6,0.4-3.3c-0.1-0.6-0.3-1.5-0.3-2.5c-0.1-1.1-0.2-2-0.3-2.6c-0.3-0.5-0.6-1.1-0.9-1.6c-0.4-0.1-0.6-0.3-0.6-0.6
					c-0.2,0-0.5-0.1-0.8-0.4c-0.6,0.2-0.9,0-1-0.4c-0.1-0.2,0-0.5,0.2-0.7c0.2-0.3,0.4-0.4,0.4-0.5
					C387.4,125.7,387.4,125.6,387.4,125.6z M379.5,153.4c-0.1,0.1-0.1,0.1,0,0.1C379.5,153.6,379.5,153.5,379.5,153.4
					c0.1,0,0.1,0,0.1-0.1C379.5,153.4,379.5,153.4,379.5,153.4z"/>
				<path class="st1" d="M433.8,97.2c0,0.2,0,0.3,0,0.4c-0.1,0.4-0.5,0.7-1.3,0.8c-0.1,0.1-0.5,0.3-1.4,0.6
					c-0.1,0.2-0.2,0.3-0.3,0.5c-0.1,0.3-0.3,0.7-0.5,1.3c-0.2,0.6-0.4,1-0.5,1.2c-0.1,2.8-0.1,4.9-0.1,6.4c0.5,3,0.8,6.4,0.9,9.9
					c0.2,0.2,0.4,0.5,0.5,1c0.2,0.6,0.3,0.9,0.4,1.1c0.1,0.2,0.2,0.3,0.5,0.4c0.3,0.1,0.5,0.2,0.6,0.3c0.5,0.1,0.9,0.3,1.2,0.5
					c0.1,0.6-0.1,1.1-0.6,1.5c-0.6,0.7-1,1-1,1.2c-0.1,0.3-0.1,0.7-0.1,1.3c0,0.5-0.1,0.8-0.2,1c0-0.1,0.3,2,0.9,6.3
					c0.3,1.9,0.6,4,1.1,6.4c0.3,0.8,0.7,2.1,1.2,4c0.2,0.3,0.8,0.8,2,1.6c0.1,0.1,0.2,0.1,0.3,0.2c0.2,0.1,0.3,0.1,0.4,0.2
					c0.3,0.2,0.4,0.4,0.3,0.8c0.1,0.2,0,0.3-0.2,0.3c-0.2,0.1-0.4,0.1-0.4,0.2c0.1-0.2-0.2-0.2-0.6,0.1c-0.2,0-0.6,0-1,0
					c-0.4,0-0.7,0-1,0.1c-0.2-0.2-0.6-0.4-1.2-0.6c-0.6-0.2-1-0.3-1.2-0.5c-0.2,0.1-0.3,0.3-0.5,0.5c-0.2,0.3-0.4,0.4-0.5,0.5
					c-0.3,0-0.5,0.1-0.5,0.2c-0.2,0.1-0.7,0.1-1.3,0.2c-0.6,0-1,0.1-1.3,0.3c-1.3,0.2-2-0.2-2.1-1.2c0.7-0.7,1.3-1.1,2-1.4
					c0.6-1,1-1.5,1-1.5c0.1-3.2,0.1-5.1-0.2-5.7c0.1-0.2,0.1-0.9,0-1.9c-0.4-1.3-0.6-2.6-0.7-3.8c0-0.2-0.2-0.4-0.4-0.5
					c-0.3-0.2-0.4-0.3-0.5-0.5c-0.2-0.1-0.3-0.2-0.5-0.5c-0.2-0.3-0.3-0.5-0.4-0.6c-0.5-0.3-0.8-0.7-1-1c0-0.1-0.2-0.2-0.5-0.4
					c-0.2-0.1-0.4-0.3-0.4-0.5c-2.5-2.5-3.8-3.7-3.8-3.7c-0.4-0.2-0.9-0.6-1.4-1.1c-0.6-0.6-1.1-0.9-1.4-1.1
					c-0.2-0.4-0.6-0.8-1.2-1.3c-0.6-0.5-1-0.9-1.2-1.3c-0.3-0.1-0.6-0.3-1-0.6c-0.4-0.3-0.7-0.5-1-0.6c-0.1-0.1-0.2-0.3-0.4-0.6
					c-0.2-0.2-0.3-0.4-0.4-0.6c-1-0.6-1.7-1.1-2.1-1.7c-0.3,0-0.5-0.1-0.7-0.3c-0.3-0.2-0.5-0.4-0.6-0.4c0-0.2-0.2-0.4-0.4-0.5
					c-0.3-0.1-0.4-0.3-0.4-0.5c-0.6-0.3-1.3-0.8-2.2-1.5c-1-0.8-1.7-1.3-2.2-1.6c0,0.3,0,0.8,0,1.5c0,0.7,0,1.2,0,1.6
					c0,0.2,0.1,0.4,0.2,0.7c0.1,0.4,0.2,0.6,0.3,0.8c0.1,0.4,0.2,1.1,0.3,2.4c0.1,1.1,0.3,1.9,0.5,2.6c0.1,0.1,0.2,0.3,0.4,0.6
					c0.2,0.3,0.3,0.5,0.4,0.6c0.2,0.2,0.5,0.5,1,0.8c0.5,0.3,0.8,0.6,0.9,0.9c0,0.3-0.2,0.5-0.7,0.7c-0.5,0.2-0.8,0.4-0.9,0.6
					c0.1,0.5,0,0.8-0.2,0.8c0,0.1,0.1,0.2,0.2,0.4c0.1,0.1,0.1,0.2,0.2,0.3c0.1,0.2,0,0.4-0.2,0.6c0.2,0.3,0.3,0.5,0.4,0.8
					c0,0.4,0.1,0.7,0.2,0.8c0.3,1.4,0.6,3.3,0.8,5.7c0.3,2.8,0.6,4.6,0.7,5.5c0.7,4.2,1.9,7.2,3.7,9c1.3-0.3,2.1-0.1,2.2,0.5
					c0.1,0.5-0.2,0.9-0.8,1.1c-0.9,0.3-1.3,0.5-1.4,0.6c-0.4-0.1-0.8,0-1.1,0.1c-0.2,0-0.5-0.1-0.8-0.2c-0.3-0.1-0.5-0.2-0.8-0.1
					c-1.1-0.7-1.6-1-1.4-0.9c-0.1,0.6-0.5,1.2-1.1,1.9c-0.8,0.5-1.8,0.7-3,0.6c-0.3,0-1.3-0.2-3.1-0.4c-0.1-0.1-0.1-0.7,0-1.6
					c0.2,0,0.9,0,1.8-0.1c0.5-0.2,0.8-0.6,1-1.2c0.4-1.2,0.5-1.7,0.5-1.6c-0.1-0.9-0.1-1.4,0.1-1.6c-0.2-0.5-0.4-1.4-0.6-2.7
					c-0.1-1.3-0.4-2.2-0.7-2.9c-0.1-0.9-0.2-1.4-0.1-1.7c-0.2-0.4-0.4-1.2-0.6-2.4c-0.2-1.1-0.4-1.8-0.7-2.2c0-1.4-0.3-3.2-0.9-5.5
					c-0.1-0.1-0.3-0.3-0.6-0.7c-0.2-0.3-0.5-0.5-0.6-0.7c-1.5-0.2-2.3-0.3-2.3-0.3c-0.1-0.2-0.1-0.3,0-0.4c0.1-0.2,0.1-0.3,0-0.4
					c0-0.3,0.2-0.5,0.6-0.7c0.5-0.2,0.8-0.4,0.9-0.5c0,0,0.4-0.5,1-1.4c-0.1-0.5-0.2-1.7-0.4-3.6c-0.1-1.4-0.3-2.4-0.6-3.1
					c0-0.7-0.1-1.6-0.3-2.8c-0.2-1.2-0.4-2.2-0.3-3c-0.4-2.2-0.8-3.8-1-4.6c-0.6-1.5-1.4-2.5-2.4-3.1c-0.3,0.3-0.5,0.3-0.5,0.1
					c-0.2,0-0.4,0.2-0.8,0.3c-0.4,0.1-0.6,0.2-0.8,0.3c-0.6,0.2-1,0-1.2-0.5c0-0.2,0.2-0.5,0.5-0.6c0.6-0.4,0.8-0.5,0.8-0.5
					c0.8-0.1,1.5-0.2,2.3-0.3c0.4,0,0.9,0.1,1.6,0.1c0.8,0.1,1.3,0.1,1.6,0.1c1.3,0.1,2.2,0.4,2.7,0.9c0.2-0.1,0.9-0.6,2-1.4
					c0.4,0,1.3-0.2,2.6-0.6c1.1-0.4,2-0.5,2.6-0.3c0.3,0.4,0.4,0.8,0.5,1.2c-0.2,0.2-1,0.5-2.4,0.8c-0.8,0.5-1.3,1.3-1.6,2.5
					c0,0.3,0.1,0.6,0.3,1c0.2,0.4,0.3,0.7,0.3,1c1.2,1.8,2.5,3.1,3.8,4c0.4,0.4,1.1,1,2.2,1.7c1,0.7,1.7,1.3,2.1,1.8
					c0.2,0.1,0.6,0.3,1.1,0.6c0.4,0.3,0.8,0.5,1.1,0.6c0.4,0.4,1.1,1.1,2.3,1.9c1,0.8,1.7,1.5,2.2,2.1c0.2,0,0.5,0.2,0.7,0.6
					c0.2,0.3,0.5,0.5,0.8,0.5c0.7,0.8,1.6,1.7,2.7,2.8c0.3,0.3,0.8,0.7,1.5,1.2c0.8,0.6,1.3,1,1.5,1.2c0.1-0.1-0.1-0.8-0.4-1.9
					c-0.1-0.2-0.1-0.4,0-0.6c0.1-0.2,0.1-0.4,0.1-0.5c0,0.1-0.5-3.4-1.4-10.4c0-0.2-0.1-0.4-0.2-0.7c-0.2-0.2-0.2-0.4-0.3-0.6
					c-0.5-4.8-0.8-7.2-0.7-7.1c0,0.2-0.1-0.1-0.4-0.9c0-0.1-0.1-0.3-0.2-0.5c0-0.2-0.1-0.4-0.1-0.5c-0.1-0.2-0.7-0.9-1.8-1.9
					c-0.2,0-0.6,0-1.3,0c-0.6,0-1,0-1.2-0.1c-0.3-0.2-0.3-0.5-0.2-0.9c0.1-0.3,0.4-0.5,0.7-0.6c0.4-0.1,0.8-0.1,1.1,0
					c0.4,0.1,0.6,0.2,0.7,0.1c0.8-0.2,1.2-0.3,1.2-0.3c2.7,0.3,4.2,0.5,4.5,0.7c0.4-0.1,0.8-0.3,1.2-0.6c0.5-0.4,0.8-0.6,1-0.7
					c0.3,0,1.1-0.3,2.3-0.7c0.9-0.3,1.6-0.3,2.2,0C433.8,96.8,433.8,97,433.8,97.2z"/>
				<path class="st1" d="M474.3,95.9c0,0,0,0.4-0.1,1.2c-0.1,1.1-0.2,1.9-0.2,2.2c-0.1,0.5-0.1,1,0,1.7c0.1,0.9,0.2,1.6,0.1,2.2
					c0,0.3,0.1,0.6,0.3,0.9c0.2,0.3,0.3,0.7,0.3,0.9c-0.2,0-0.5,0.2-0.8,0.4c-0.3,0.2-0.5,0.3-0.8,0.3c0-0.3-0.3-0.4-0.7-0.3
					c-0.4-0.6-0.4-1.3-0.1-2.2c0-0.3-0.2-0.6-0.5-0.9c-0.3-0.3-0.5-0.6-0.6-0.9c-0.5-0.1-0.7-0.4-0.7-0.8c0.1,0-0.1,0-0.5-0.2
					c-0.2-0.1-0.3-0.2-0.2-0.4c-0.4,0-1-0.1-1.5-0.3c-0.7-0.2-1.2-0.3-1.5-0.4c-0.5,0-1.3,0-2.2,0.2c-1,0.1-1.7,0.2-2.1,0.2
					c-0.2,0-0.5,0-0.9-0.1c-0.4-0.1-0.8-0.1-1-0.1c-0.2,0-0.4,0-0.7,0.1c-0.3,0.1-0.6,0.1-0.7,0.1c0,0,0,0,0-0.1
					c0-0.1-0.1-0.1-0.1-0.1c-0.9,0.2-2.3,0.4-4.3,0.6c-2.1,0.2-3.6,0.5-4.5,0.7c0,0.1-0.3,1.3-0.9,3.8c0,0.2,0,0.8,0.2,1.8
					c0.1,0.6,0,1-0.3,1.3c0.5,2.4,0.7,4.2,0.5,5.6c0.4,2.2,0.6,4,0.7,5.4c2.6-0.1,4.4-0.3,5.3-0.7c0-0.2,0-0.5,0.2-0.7
					c0.1-0.2,0.2-0.5,0.1-0.8c0.1-0.4-0.2-0.7-0.6-1c-0.4-0.3-0.5-0.5-0.4-0.9c-0.1-0.2,0-0.4,0.2-0.5c0.3-0.1,0.4-0.2,0.4-0.4
					c0.8,0,1.4,0.4,1.9,1c0,0.1,0.4,0.7,1,1.9c0,0.3,0,0.9,0,1.9c0,0.7,0.1,1.3,0.2,1.8c-0.4,2.9-1.6,4.1-3.7,3.6
					c-0.3-0.8-0.3-1.2-0.1-1.1c0-0.3,0-0.5,0.2-0.8c0.2-0.3,0.2-0.5,0.3-0.7c-1.3-0.2-2.9-0.1-4.8,0.1c0.1,0.5,0.1,1.4,0.2,2.4
					c0,1.1,0.1,2,0.2,2.6c0.3,1.8,0.5,3.7,0.6,5.6c0.1,1.8,0.4,3.3,0.8,4.5c0,0.4,0.2,0.9,0.4,1.4c0.5,0.7,0.7,1.1,0.6,1.1
					c0,0.5,0.1,1,0.2,1.4c0.6,1,1.1,1.6,1.6,1.8c6.5-0.7,11.9-1.3,16.3-2c0.1,0,0.2-0.1,0.4-0.2c0.1-0.1,0.3-0.1,0.4-0.1
					c0.3-0.1,0.7-0.4,1.1-0.9c0.4-0.4,0.8-0.7,1.2-0.9c-0.1-0.5,0-0.8,0.3-0.8c0-0.1,0-0.3,0-0.5c0.1-0.2,0.1-0.4,0.1-0.5
					c0-0.2,0-0.4,0-0.7c0-0.4-0.1-0.6-0.1-0.7c0-0.6,0.2-1,0.5-1.1c0.2,0,0.3,0,0.3-0.2c0.7,0,1.1,0.4,1.3,1.1
					c0.1,0.2,0.1,0.6,0.1,1c0,0.5,0.1,0.9,0.1,1c0,0.2,0.2,1,0.4,2.4c0.2,1.2,0.4,1.9,0.6,2c0,0.2-0.1,0.3-0.2,0.4
					c-0.2,0.1-0.2,0.3-0.2,0.4c0,0.5,0,1.1,0.1,1.6c-0.4,0.4-1,0.7-2,0.7c-1.7,0.1-2.5,0.1-2.4,0.1c-0.2,0.1-0.4,0-0.6-0.1
					c-0.2-0.2-0.4-0.2-0.6-0.2c-0.4,0.1-1.2,0.1-2.3,0.1c-0.2,0.1-0.5,0.1-1,0.2c-0.4,0.1-0.8,0.2-0.9,0.2c-0.1,0-1.3,0.1-3.7,0.2
					c-0.6,0-2.2,0.2-4.8,0.4c-2.2,0.2-4,0.3-5.5,0.4c-2.9-0.1-4.6-0.2-5-0.1c-0.3,0.1-0.5,0.3-0.7,0.7c-0.2,0.4-0.4,0.6-0.6,0.8
					c-0.1,0-0.5,0.1-1.1,0.4c-0.5,0.1-1,0.1-1.6,0c-0.7-0.1-1.2-0.1-1.4-0.1c0.1,0.1-0.3-0.1-1.2-0.6c-0.1,0-0.1-0.1-0.1-0.1
					c0-0.1-0.1-0.1-0.1-0.2c-0.1,0-0.2-0.1-0.3-0.2c-0.2-0.1-0.3-0.2-0.4-0.2c-0.3-0.2-0.4-0.5-0.3-0.9c0.2-0.4,1-0.4,2.2-0.2
					c0.4-0.2,0.7-0.4,1-0.4c0.2-0.1,0.4-0.3,0.6-0.5c0.2-0.3,0.4-0.5,0.7-0.6c-0.1-0.4,0.1-0.8,0.4-1.1c0.1-1,0.2-2.1,0.1-3.5
					c-0.1-1.7-0.1-2.9,0-3.6c-0.1-1.1-0.3-3.2-0.5-6.4c-0.2-2.9-0.4-5.1-0.7-6.6c-0.2-0.2-0.7-0.4-1.4-0.7c-0.6-0.2-1-0.5-1.2-0.9
					c0-0.4,0.3-0.7,0.6-0.9c0.1-0.1,0.3-0.2,0.5-0.3c0.2-0.1,0.4-0.2,0.5-0.3c0-0.2,0.1-0.4,0.3-0.7c0.2-0.3,0.4-0.5,0.4-0.6
					c0-0.2,0-0.3,0.2-0.3c0-1.3-0.1-2.9-0.2-4.8c-0.2-2.7-0.3-4.3-0.4-5c0-0.8-0.1-1.9-0.3-3.4c-0.2-1.7-0.3-3-0.4-3.7
					c0.1,0.1-0.2-0.4-0.6-1.7c-0.3-0.7-0.7-1.1-1.2-1.2c-0.1,0.1-0.4,0.3-0.9,0.4c-0.4,0.1-0.7,0.2-0.8,0.4
					c-0.1,0.3-0.3,0.5-0.7,0.5c-0.4,0.1-0.7,0-0.9-0.2c-0.1-0.4-0.1-0.7,0.2-0.9c0.4-0.3,0.7-0.5,0.7-0.6c0.5-0.2,1.1-0.5,1.7-0.9
					c0.9-0.1,1.4-0.2,1.4-0.3c1.6,0.2,3,0.3,4.1,0.3c0.6,0,1.4,0,2.5-0.1c1.1-0.1,2-0.1,2.7-0.1c0.7,0,1.4,0,2.1,0
					c2.3-0.1,3.7-0.2,3.9-0.1c1.1-0.3,2.7-0.4,4.8-0.5c2.9-0.1,4.7-0.1,5.5-0.2c3.5-0.3,5.4-0.4,5.6-0.4
					C474.1,95.7,474.3,95.9,474.3,95.9z"/>
				<path class="st1" d="M529.6,98.7c-0.4-0.3-0.7-0.5-1-0.5c-0.1,0.8,0.2,2.6,0.9,5.2c0.6,3.3,1,5,1.1,5.2c0.2,1.6,0.5,3.4,0.9,5.3
					c0,1.6,0.3,3.4,1,5.2c0.4,0.6,1.1,1.1,2.2,1.7c0,0.3,0,0.5,0.2,0.7c0.2,0.2,0.4,0.4,0.4,0.6c-0.1,0.3-0.3,0.6-0.7,0.8
					c-0.4,0.3-0.7,0.5-0.7,0.7c-0.1,0.2-0.2,0.6-0.2,1c-0.1,0.5-0.1,0.9-0.2,1.1c0.1,0.5,0.2,1.4,0.5,2.6c0.2,1.1,0.4,1.8,0.4,2.3
					c0,0.1,0.2,0.5,0.4,1c0,1,0.2,1.8,0.8,2.5c0,0.8,0.3,1.7,0.7,2.7c0.5,1.3,0.8,2.1,0.9,2.5c0.9,1.6,1.3,2.4,1.4,2.6
					c0.1,0.1,0.4,0.3,0.9,0.6c0.5,0.2,0.7,0.4,0.7,0.8c0,0.5-0.2,0.8-0.7,0.9c-0.7,0.2-1.1,0.4-1.2,0.4c-1.5,0-2.6-0.4-3.4-1.3
					c-0.2,0-0.5,0.2-0.9,0.6c-0.4,0.3-0.7,0.5-1.1,0.5c-0.4,0-1.2-0.2-2.5-0.7c-0.4-0.5-0.9-1-1.3-1.5c-0.1-0.4-0.2-0.9-0.1-1.6
					c0.2,0,0.4,0,0.6-0.2c0.2-0.1,0.4-0.1,0.6-0.1c0.1,0,0.2,0.1,0.4,0.3c0.1,0.2,0.3,0.2,0.5,0.2c0.1,0,0.2-0.2,0.2-0.5
					c0-0.3,0.1-0.4,0.2-0.5c0-0.3,0-0.5-0.2-0.8c-0.2-0.3-0.3-0.5-0.3-0.7c-0.1-0.6-0.3-2-0.8-4c-0.4-1.8-0.7-3.3-0.8-4.4
					c-0.1-0.1-0.1-0.3-0.2-0.6c0-0.3-0.1-0.4-0.2-0.5c0-0.7-0.1-1.7-0.4-3c-0.2-1.1-0.3-2.1-0.2-3c-0.2-0.2-0.7-0.3-1.3-0.4
					c-0.6-0.1-1.1-0.1-1.4,0c-0.4-0.1-0.9-0.2-1.8-0.3c-0.9-0.1-1.5-0.2-1.8-0.3c-0.4,0-1.4,0-3.3-0.1c-1.4,0-2.4,0-3.1,0.1
					c-0.6,0.9-0.8,1.8-0.5,2.9c-0.2,0.1-0.3,0.2-0.3,0.5c-0.1,0.3-0.2,0.4-0.2,0.5c-0.1,1.3-0.3,2.6-0.7,4c-0.3,3.1-0.7,5.7-1.3,7.7
					c0,0.4,0,0.8-0.1,1.2c-0.1,0.6-0.1,1-0.1,1.2c-0.1,0.1-0.1,0.5-0.1,0.9c0,0.4-0.1,0.7-0.2,1c0.2,0.5,0.8,0.9,1.6,1.2
					c0.1,0.2,0.4,0.3,0.9,0.4c0.5,0.1,0.8,0.2,1,0.4c0,0.1,0,0.2,0.1,0.5c0.1,0.2,0.1,0.3,0,0.5c-0.1,0.2-0.4,0.3-1,0.4
					c-0.5,0.1-0.9,0.2-1,0.4c-2.1,0.3-3.7,0-4.6-0.7c-0.2,0-0.3,0-0.4,0.2c-0.1,0.2-0.2,0.3-0.3,0.2c-0.1,0.1-0.2,0.1-0.4,0.2
					c-0.2,0-0.3,0.1-0.4,0.1c-0.3,0.1-0.7,0-1.1-0.1c-0.4-0.1-0.7-0.2-0.9-0.3c0-0.2-0.2-0.3-0.5-0.5c-0.3-0.1-0.4-0.3-0.4-0.6
					c-0.1,0-0.4-0.1-0.7-0.2c-0.3-0.1-0.6-0.2-0.7-0.2c-0.5-0.3-0.7-0.7-0.6-1.3c0.5-0.6,1.1-0.6,1.8-0.1c0.2-0.1,0.5-0.2,1-0.3
					c0.3-0.1,0.6-0.2,0.9-0.4c0.1,0,0.2-0.1,0.3-0.3c0.1-0.2,0.2-0.2,0.4-0.2c0.8-2.7,1.2-4.6,1.2-5.6c1-3.7,1.5-6.1,1.6-7.1
					c0.5-0.8,0.7-1.7,0.7-2.7c0.3-0.7,0.6-1.8,0.9-3.2c-0.1-0.3-0.5-0.6-0.9-0.9c-0.6-0.3-1-0.6-1.1-0.8c0-0.7,0.2-1.1,0.8-1.5
					c0.3-0.1,0.9-0.3,1.8-0.4c0.1,0,0.2-0.1,0.2-0.3c0.1-0.1,0.2-0.2,0.3-0.2c0.3-0.4,0.6-1,0.8-1.9c0.2-1.1,0.5-1.8,0.6-2.1
					c0.1-0.4,0.2-1.1,0.4-2.2c0.2-0.9,0.4-1.6,0.5-2.2c0-0.1,0-0.2-0.1-0.4c-0.1-0.2-0.1-0.3,0-0.5c0.7-3.5,1.4-6.1,1.9-7.8
					c0.1-0.2,0-0.3-0.1-0.5c-0.1-0.2-0.1-0.3-0.1-0.5c0.2-0.3,0.3-0.8,0.4-1.3c0.1-0.6,0.2-1,0.3-1.2c-0.5-0.1-0.9,0.1-1.3,0.4
					c-0.4,0.4-0.9,0.5-1.3,0.5c0-0.1-0.1-0.2-0.3-0.3c-0.2,0-0.3-0.1-0.3-0.3c-0.2-0.2,0.1-0.8,0.7-1.7c0.4-0.3,0.7-0.8,0.9-1.4
					c0.4,0,0.7-0.2,0.9-0.6c0.4,0,0.8,0,1.1-0.2c0.6-0.2,0.9-0.3,1-0.3c0.5,0.2,1.3,0.3,2.4,0.4c1.1,0.1,1.7,0.3,2,0.3
					c0.2-0.1,0.5-0.2,1-0.3c0.5-0.1,0.8-0.2,1-0.3c0.4,0,0.9,0,1.4,0.1c0.6,0.1,1.1,0.1,1.4,0.1c0.1,0.3,0.5,0.4,1,0.4
					c0,0,0.9,0.5,2.8,1.5c0,0.2,0.2,0.5,0.5,0.8c0.1,0.1,0.2,0.3,0.2,0.6c0,0.8-0.2,1.2-0.8,1.4C530.4,99.1,529.9,99,529.6,98.7z
					 M522.2,99.3c-0.2,0.3-0.3,0.5-0.4,0.8c-0.3,1.1-0.4,1.8-0.4,2.1c-0.9,1.6-1.3,3.1-1.3,4.3c-1.4,4.3-2,6.6-2.1,6.9
					c-0.1,0.1-0.3,0.4-0.4,0.8c-0.2,0.4-0.3,0.7-0.5,0.8c0,0.2,0,0.6-0.1,1c-0.1,0.4-0.1,0.8-0.1,1.1c-0.5,1.5-0.7,2.1-0.7,2.1
					c0.6,0,2,0,4.2,0.1c1.5,0.1,2.7,0,3.7-0.1c0.6,0,1.2,0,1.7,0.1c0.7,0.1,1.2,0.1,1.6,0.1c0-0.7-0.2-1.7-0.5-3.1
					c-0.3-1.2-0.4-2.3-0.4-3.2c0-0.1-0.1-0.3-0.3-0.5c-0.1-0.2-0.2-0.3-0.2-0.5c-0.1-1.2-0.3-2.3-0.8-3.4c0-0.2-0.2-1.4-0.6-3.5
					c-0.1-0.3-0.2-0.9-0.4-1.7c-0.1-0.8-0.3-1.3-0.4-1.7c0-0.2-0.1-0.8-0.3-1.9c-0.1-0.8-0.3-1.3-0.5-1.6c0-0.1-0.2-0.2-0.3-0.2
					c0,0.2-0.1,0.3-0.2,0.5C522.5,98.7,522.4,99,522.2,99.3z"/>
				<path class="st1" d="M584.6,98.2c0,0.2,0,0.3-0.1,0.3c-0.1,0.4-0.6,0.6-1.5,0.5c-0.1,0.1-0.6,0.2-1.5,0.4
					c-0.1,0.1-0.3,0.3-0.4,0.4c-0.2,0.2-0.4,0.6-0.7,1.1c-0.3,0.5-0.5,0.9-0.7,1.1c-0.6,2.7-1,4.8-1.3,6.3c-0.1,3.1-0.4,6.4-0.9,9.9
					c0.2,0.2,0.3,0.6,0.3,1c0,0.6,0.1,1,0.2,1.1c0,0.2,0.2,0.3,0.5,0.5c0.3,0.1,0.5,0.3,0.5,0.4c0.4,0.2,0.8,0.4,1.1,0.8
					c0,0.6-0.3,1-0.9,1.4c-0.7,0.5-1.2,0.8-1.2,1c-0.1,0.2-0.2,0.7-0.3,1.3c-0.1,0.4-0.2,0.8-0.4,0.9c0-0.1-0.1,2-0.3,6.4
					c-0.1,1.9-0.1,4.1-0.1,6.5c0.2,0.9,0.3,2.2,0.4,4.2c0.1,0.3,0.7,1,1.7,1.9c0,0.1,0.1,0.2,0.3,0.2c0.2,0.1,0.3,0.2,0.4,0.3
					c0.3,0.2,0.3,0.5,0.1,0.9c0.1,0.2,0,0.3-0.3,0.3c-0.2,0-0.4,0.1-0.5,0.1c0.1-0.2-0.1-0.2-0.6-0.1c-0.2,0-0.6-0.1-1-0.2
					c-0.4-0.1-0.7-0.2-1-0.1c-0.2-0.3-0.5-0.5-1.1-0.8c-0.6-0.3-0.9-0.5-1.1-0.7c-0.2,0.1-0.4,0.2-0.6,0.4c-0.2,0.2-0.5,0.4-0.6,0.4
					c-0.3-0.1-0.5,0-0.5,0.1c-0.2,0-0.7,0-1.3-0.1c-0.6-0.1-1-0.1-1.4,0c-1.3,0-1.9-0.5-1.8-1.6c0.8-0.5,1.5-0.8,2.2-0.9
					c0.8-0.9,1.2-1.3,1.3-1.3c0.7-3.1,1-5,0.8-5.7c0.1-0.2,0.3-0.8,0.3-1.9c-0.2-1.4-0.1-2.7,0-3.9c0-0.2-0.1-0.4-0.3-0.6
					c-0.2-0.2-0.4-0.4-0.4-0.6c-0.2-0.1-0.3-0.3-0.4-0.5c-0.1-0.3-0.2-0.6-0.3-0.6c-0.4-0.4-0.7-0.8-0.8-1.2c0-0.1-0.2-0.3-0.5-0.5
					c-0.2-0.2-0.3-0.3-0.3-0.6c-2-2.9-3-4.4-3-4.4c-0.3-0.3-0.7-0.7-1.2-1.4c-0.5-0.7-0.9-1.1-1.2-1.4c-0.1-0.4-0.5-0.9-0.9-1.5
					c-0.5-0.6-0.8-1.1-0.9-1.5c-0.3-0.1-0.6-0.4-0.9-0.8c-0.3-0.4-0.6-0.7-0.9-0.8c0-0.1-0.1-0.4-0.3-0.6c-0.2-0.2-0.3-0.5-0.3-0.7
					c-0.9-0.8-1.5-1.4-1.7-2c-0.3,0-0.5-0.2-0.6-0.4c-0.2-0.3-0.4-0.4-0.5-0.5c0-0.2-0.1-0.4-0.3-0.6c-0.2-0.2-0.3-0.4-0.3-0.6
					c-0.5-0.4-1.1-1.1-1.9-1.9c-0.8-1-1.5-1.6-1.9-2c0,0.3-0.1,0.8-0.3,1.4c-0.1,0.7-0.2,1.2-0.3,1.6c0,0.2,0,0.4,0.1,0.8
					c0.1,0.4,0.1,0.7,0.1,0.8c0,0.4,0,1.2-0.2,2.4c-0.1,1.1-0.1,2,0,2.7c0.1,0.1,0.2,0.4,0.3,0.7c0.1,0.3,0.2,0.5,0.3,0.7
					c0.1,0.2,0.4,0.5,0.9,0.9c0.4,0.4,0.7,0.7,0.7,1.1c0,0.3-0.3,0.5-0.8,0.6c-0.5,0.1-0.9,0.3-1,0.4c0,0.5-0.1,0.8-0.4,0.8
					c0,0.1,0.1,0.3,0.1,0.4c0,0.1,0.1,0.3,0.1,0.3c0,0.2-0.1,0.4-0.3,0.6c0.2,0.3,0.2,0.6,0.2,0.9c0,0.4,0,0.7,0,0.9
					c0,1.4-0.1,3.3-0.3,5.7c-0.2,2.8-0.3,4.6-0.4,5.6c-0.1,4.2,0.5,7.4,1.9,9.5c1.4,0,2,0.3,2.1,0.9c0,0.5-0.4,0.8-1,0.9
					c-0.9,0.1-1.4,0.2-1.5,0.4c-0.4-0.2-0.8-0.2-1.1-0.1c-0.2,0-0.4-0.1-0.7-0.3c-0.2-0.2-0.5-0.3-0.8-0.3c-1-0.9-1.4-1.3-1.2-1.2
					c-0.2,0.5-0.7,1.1-1.4,1.7c-0.9,0.3-1.9,0.3-3.1,0c-0.3-0.1-1.3-0.4-3-1c0-0.1,0-0.7,0.3-1.6c0.2,0,0.8,0.1,1.8,0.3
					c0.5-0.1,0.9-0.4,1.2-1c0.6-1.1,0.8-1.6,0.7-1.5c0-0.9,0.2-1.4,0.4-1.5c-0.1-0.6-0.1-1.5-0.1-2.7c0.1-1.3,0.1-2.3-0.1-3
					c0-0.9,0.1-1.5,0.2-1.7c-0.1-0.4-0.1-1.2-0.1-2.5c0-1.1-0.1-1.9-0.3-2.3c0.3-1.4,0.3-3.2,0.2-5.6c-0.1-0.1-0.2-0.4-0.4-0.8
					c-0.2-0.3-0.3-0.6-0.5-0.8c-1.4-0.5-2.1-0.8-2.2-0.8c0-0.2,0-0.3,0.1-0.4c0.1-0.1,0.1-0.3,0.1-0.4c0.1-0.3,0.3-0.5,0.8-0.5
					c0.6-0.1,0.9-0.2,1-0.3c0.1,0,0.5-0.4,1.3-1.2c0-0.5,0.1-1.7,0.2-3.6c0.1-1.4,0.1-2.5,0-3.2c0.2-0.7,0.2-1.6,0.2-2.8
					c0-1.2,0.1-2.3,0.2-3c0-2.3,0-3.8-0.2-4.7c-0.3-1.5-0.9-2.7-1.8-3.6c-0.3,0.2-0.5,0.2-0.5,0c-0.2,0-0.5,0.1-0.8,0.2
					c-0.4,0.1-0.7,0.1-0.8,0.1c-0.6,0.1-0.9-0.2-1.1-0.8c0.1-0.2,0.3-0.4,0.6-0.5c0.6-0.3,0.9-0.4,0.8-0.3c0.8,0,1.5,0.1,2.3,0.1
					c0.4,0.1,0.9,0.2,1.6,0.4c0.7,0.2,1.3,0.4,1.6,0.4c1.2,0.4,2,0.8,2.5,1.4c0.2-0.1,1-0.4,2.2-1c0.4,0.1,1.3,0,2.6-0.2
					c1.2-0.2,2.1-0.1,2.6,0.2c0.2,0.4,0.3,0.9,0.3,1.3c-0.2,0.2-1.1,0.3-2.5,0.3c-0.8,0.4-1.5,1.1-2.1,2.1c0,0.3,0,0.6,0.1,1
					c0.1,0.4,0.1,0.8,0.1,1c0.8,2,1.8,3.5,3,4.7c0.3,0.5,0.9,1.2,1.8,2.1c0.9,0.8,1.4,1.6,1.7,2.2c0.2,0.1,0.6,0.4,1,0.8
					c0.4,0.4,0.7,0.6,1,0.8c0.3,0.5,0.9,1.3,1.9,2.3c0.8,0.9,1.4,1.8,1.7,2.4c0.2,0.1,0.4,0.3,0.6,0.7c0.2,0.3,0.4,0.6,0.7,0.7
					c0.5,0.9,1.2,2,2.1,3.2c0.3,0.4,0.7,0.9,1.2,1.5c0.7,0.7,1.1,1.2,1.3,1.5c0.1-0.1,0.1-0.8,0-1.9c0-0.2,0-0.4,0.1-0.6
					c0.1-0.2,0.2-0.4,0.2-0.5c0,0.1,0.2-3.4,0.6-10.5c0-0.2,0-0.4-0.1-0.7c-0.1-0.3-0.2-0.5-0.1-0.6c0.4-4.8,0.6-7.2,0.6-7.1
					c0,0.2-0.1-0.2-0.3-1c0-0.1,0-0.3-0.1-0.5c0-0.2,0-0.4,0-0.5c-0.1-0.2-0.5-1-1.4-2.2c-0.2-0.1-0.6-0.1-1.2-0.2
					c-0.6-0.1-1-0.2-1.2-0.3c-0.2-0.3-0.2-0.6,0-0.9c0.2-0.3,0.5-0.5,0.8-0.4c0.4,0,0.8,0.1,1.1,0.2c0.4,0.2,0.6,0.3,0.6,0.3
					c0.8,0,1.3,0,1.2,0c2.6,0.8,4,1.3,4.3,1.5c0.4,0,0.8-0.1,1.3-0.4c0.6-0.3,0.9-0.4,1.1-0.5c0.3,0,1.1-0.1,2.4-0.3
					c0.9-0.1,1.7,0,2.2,0.4C584.6,97.8,584.6,98,584.6,98.2z"/>
				<path class="st1" d="M617.8,128.6c-0.4,0.1-0.6,0.2-0.7,0.3c-0.1,0.1-0.3,0.4-0.5,0.8c-0.2,0.3-0.4,0.6-0.6,0.7
					c-0.4,1.7-0.5,2.7-0.4,3c-0.1,0-0.2,0.3-0.5,0.7c0,0.7-0.2,1.8-0.6,3.1c-0.3,1.1-0.4,1.9-0.2,2.4c-0.2,0-0.3,0.2-0.4,0.5
					c-0.1,0.4-0.2,0.6-0.3,0.6c-0.1,0.4-0.1,0.7-0.2,1.1c-0.2,0.5-0.5,1.1-0.9,1.8c-0.5,0.8-0.9,1.4-1,1.8c-0.5,0.8-1.1,2-1.9,3.4
					c-1.1,0.6-1.7,1-1.8,1.2c-0.8,0.1-1.4,0.3-1.9,0.9c-0.7,0-1.4,0.1-1.9,0.4c-1.2-0.2-2.1-0.2-2.7,0.1c-0.5-0.2-1.5-0.4-3-0.5
					c-0.5-0.1-1.6-0.5-3.3-1.1c-0.9-0.3-1.9-0.7-3-1c-0.1-0.1-0.2-0.2-0.4-0.5c-0.1-0.2-0.3-0.4-0.6-0.4c-0.3,0-0.5,0.2-0.7,0.5
					c-0.2,0.4-0.4,0.6-0.5,0.7c0,0.1-0.2,0.1-0.5,0.1c-0.2,0-0.3,0.1-0.3,0.3c-0.5,0-0.7,0-0.7,0.1c-0.9-0.1-1.3-0.1-1.4,0
					c-1.2-0.3-1.9-0.4-2.1-0.4c-0.4,0-0.5-0.2-0.5-0.5c0,0-0.2,0-0.6-0.1c-0.2,0-0.3-0.1-0.3-0.2c-0.4-0.1-0.7-0.4-0.8-1
					c0.2-0.4,0.6-0.6,1.2-0.6c0.5,0,1,0.1,1.6,0.4c0.5-0.1,1.2-0.4,2.1-1.1c0.1-0.8,0.4-1.5,0.8-2c0.2-2.7,0.5-4.7,0.9-6
					c0-1.7,0.2-4.1,0.4-7c0.2-3.2,0.4-5.4,0.4-6.5c0,0-0.1-0.2-0.3-0.4c-0.1-0.2-0.2-0.3-0.2-0.4c0-0.2-0.1-0.3-0.4-0.3
					c-0.3-0.1-0.5-0.1-0.5-0.3c-0.3-0.5-0.5-0.7-0.5-0.7c0.1-0.8,0.6-1.1,1.6-1.1c-0.1-0.4,0-0.6,0-0.7c0,0,0.2,0,0.6,0
					c0-0.3,0.1-0.5,0.2-0.5c0.2-1.5,0.2-2.8,0.1-4c0.5-1.7,0.8-3.4,0.9-5c0-0.1,0-0.3,0-0.5c-0.1-0.2-0.1-0.4-0.1-0.5
					c0.4-3.2,0.6-5.4,0.5-6.5c-0.1-1.3-0.4-2.2-1-2.7c-0.4-0.2-0.8-0.2-1.1,0c-0.4,0.2-0.8,0.2-1.2,0.1c-0.4-0.5-0.7-1.1-0.8-1.8
					c0.1,0,0.3-0.2,0.6-0.4c0.2-0.2,0.4-0.3,0.7-0.3c0.4-0.1,2,0.1,4.9,0.5c0-0.1,0.4,0.2,1.1,0.8c0,0,0.1,0.1,0,0.3
					c0,0.1,0,0.2,0.1,0.2c0,0,0.1,0,0.3,0c0.2,0,0.2,0,0.3,0c0.1,0.1,0.1,0.2,0.1,0.5c0,0.3,0.1,0.4,0.1,0.5c0.2,0,0.9-0.3,2.1-0.7
					c0.8-0.3,1.6-0.4,2.3-0.4c0.3,0.1,0.5,0,0.7-0.2c0.2-0.2,0.4-0.3,0.5-0.3c0.4,0,0.6,0,0.6-0.1c0.3,0.1,0.7,0.1,1.2,0.1
					c0.4,0,0.7,0.1,0.9,0.2c1.5,0.1,2.3,0.1,2.3,0.2c1.4,0.5,2.3,0.8,2.6,0.8c1.6,0.7,2.5,1.1,2.9,1.2c0.1,0.2,0.5,0.5,1.2,1
					c0.2,0.1,0.4,0.2,0.6,0.4c0.2,0.2,0.4,0.3,0.6,0.4c0.2,0.8,0.6,1.5,1.3,2c-0.1,0.5,0.1,0.8,0.4,1c0.1,1.2,0.4,2.3,0.9,3.4
					c-0.3,0.8-0.3,1.6,0,2.5c-0.3,1.8-0.4,2.9-0.3,3.2c-0.4,0.5-0.7,1.3-0.7,2.5c0,1.6,0,2.5-0.1,2.8c0.1,0.8,0.2,1.5,0.5,2
					c-0.1,0.1-0.2,0.5-0.2,1.3c0.2,0.8,0.9,1.5,1.9,2.2c-0.1,0.2-0.1,0.5,0,0.8c0.1,0.3,0.2,0.6,0.2,0.7
					C618.3,128.4,618.1,128.5,617.8,128.6z M609,125.3C609,125.3,609,125.3,609,125.3c0-0.1,0.2-0.3,0.7-0.7
					c0.6-3.2,0.9-5.1,0.8-5.8c0.1-0.2,0.3-1.1,0.6-3c0.1-0.4,0.2-1,0.2-1.7c0.1-0.8,0.2-1.4,0.2-1.8c-0.1-0.8-0.1-1.8-0.2-3.1
					c-0.3-0.2-0.4-0.4-0.4-0.8c0-0.1,0-0.3,0-0.6c0-0.2,0-0.4,0-0.5c-0.6-1.1-1.7-2.4-3.4-3.8c-0.4-0.1-1.2-0.4-2.4-0.9
					c-1.1-0.4-2-0.7-2.7-0.9c-0.2,0-0.5,0-0.9,0.1c-0.3,0-0.6,0-0.9,0c-2.4,1.4-3.7,2.4-4,2.7c-0.2,3.1-0.3,5-0.3,5.4
					c-0.2,0.5-0.5,2.3-0.8,5.3c-0.1,0.2-0.1,0.5-0.3,0.9c-0.2,0.4-0.3,0.7-0.3,0.9c0,1.3-0.1,2.7-0.1,4c0,0,0.2,0.4,0.5,1.1
					c0.2,0.5,0.4,0.8,0.8,0.9c0.6,0.9,0.9,1.5,0.9,1.9c-0.5,0.3-0.9,0.4-1,0.4c-0.1,0-0.3,0.1-0.5,0.3c-0.2,0.2-0.3,0.2-0.5,0.2
					c0,0.2-0.3,0.7-1,1.7c0.1,0.2,0.1,0.5,0,0.9c-0.1,0.5-0.2,0.8-0.2,1c0,0.6,0,1.8,0,3.7c0,1.6,0,2.9-0.2,3.9
					c0.2,1,0.1,3.4-0.1,7.2c0.1,0.3,0.3,0.7,0.5,1.2c0.2,0.5,0.4,1,0.4,1.3c0.3,0.2,1,0.7,2.2,1.6c3,0.5,5.6,0.3,7.7-0.6
					c1.1-1.3,1.7-2.1,1.8-2.2c0.2-0.7,0.6-1.9,1.2-3.4c0.1-0.8,0.2-2,0.4-3.9c0.2-1.9,0.4-3.3,0.5-4.2c0.4-3.3,0.6-5,0.5-5.2
					c0,0-0.1-0.2-0.5-0.6c-0.2-0.2-0.5-0.3-0.9-0.3c0.1-0.2-0.1-0.4-0.5-0.6c-0.4-0.1-0.5-0.3-0.5-0.5c-0.1-0.2-0.1-0.4,0.2-0.5
					c0.4-0.2,0.6-0.4,0.6-0.5C608.5,125.5,609,125.3,609,125.3z"/>
				<path class="st1" d="M673.1,137.4c0,0-0.4,0.3-1.3,1c-1,2.7-1.5,4.5-1.5,5.2c-0.6,1.2-0.9,2.1-0.8,2.9c-0.1,0-0.2,0.2-0.3,0.5
					c-0.1,0.3-0.3,0.5-0.3,0.5c-0.2,0.9-0.5,1.8-1,2.9c-0.6,1.3-1,2.2-1.1,2.7c-0.2,0.1-0.5,0.4-0.7,0.8c-0.3,0.4-0.5,0.7-0.7,0.8
					c0,0-0.2,0.2-0.6,0.6c0,0,0,0.1,0,0.1c0,0.1,0,0.1,0,0.1c0,0-0.1,0-0.2,0c0,0-0.1,0-0.1,0c0,0,0,0.1,0,0.2c0,0.1,0,0.2,0,0.2
					c-0.1,0.1-0.3,0.2-0.6,0.4c-0.3,0.2-0.5,0.3-0.6,0.4c-0.1,0.1-0.2,0.1-0.3,0.2c-0.1,0.1-0.2,0.2-0.3,0.2
					c-0.6,0.4-0.9,0.7-0.9,0.7c-0.5,0.5-0.8,0.7-0.8,0.7c-0.2,0.1-0.7,0.3-1.5,0.6c-0.6,0.3-1.1,0.4-1.5,0.5c-0.4,0.1-1,0.2-1.7,0.3
					c-0.9,0.1-1.5,0.1-1.7,0.2c-1.2-0.2-1.9-0.3-2.1-0.3c-0.1-0.1-0.7-0.3-1.8-0.6c-0.7-0.2-1.2-0.5-1.6-0.6
					c-0.3-0.1-0.8-0.4-1.3-0.8c-0.5-0.4-0.9-0.7-1.3-0.8c-0.6-0.8-1.1-1.3-1.4-1.4c-0.4-0.7-0.9-1.2-1.2-1.4c0-0.1-0.1-0.3-0.2-0.5
					c-0.1-0.2-0.2-0.4-0.2-0.6c-0.1-0.1-0.2-0.2-0.4-0.3c-0.2-0.1-0.3-0.3-0.3-0.4c0.1-0.7,0.1-1,0-1c-0.2-0.2-0.4-0.5-0.5-0.9
					c-0.2-0.5-0.3-0.8-0.5-1c0.1-0.4,0.1-0.7,0.2-1.1c-0.1-0.2-0.1-0.7-0.2-1.5c-0.1-0.6-0.2-1.1-0.3-1.4c0.1-2,0-3.5-0.2-4.5
					c0-0.2,0-0.3,0.1-0.5c0.1-0.2,0.2-0.3,0.2-0.5c-0.3-0.9-0.2-1.8,0.1-2.4c-0.1-1.2-0.1-1.9,0.1-2.3c0-0.1-0.1-0.3-0.2-0.4
					c-0.2-0.2-0.2-0.3-0.2-0.5c-0.2-0.2-0.3-0.5-0.3-0.9c-0.1-0.1-0.2-0.2-0.4-0.4c-0.2-0.2-0.3-0.4-0.4-0.5
					c-0.2-0.1-0.5-0.4-0.8-0.9c0,0,0.1-0.1,0.3-0.4c0.1-0.2,0.2-0.2,0.5-0.2c0.4-0.3,0.7-0.4,0.9-0.4c0.4-0.9,0.9-2,1.4-3.5
					c0.1-0.4,0.2-1,0.2-1.7c0.1-1.5,0.1-2.1,0.2-2c0,0,0.3-0.9,1-2.7c0.8-1.6,1.3-3,1.4-4.4c0,0,0.5-0.8,1.4-2.2
					c0.8-1.1,1.2-1.8,1.3-2.1c0.3,0,0.6-0.1,0.9-0.4c0.3-0.3,0.6-0.4,0.7-0.5c-0.1,0.1,0.1-0.1,0.6-0.6c0,0,0-0.1,0-0.1
					c0-0.1,0-0.1,0-0.1c0,0,0.1,0,0.3,0c0.2,0,0.2-0.1,0.2-0.3c0.9-0.3,1.6-0.6,1.9-0.9c0.4,0,1.4-0.1,3-0.4
					c0.5,0.1,1.1,0.1,1.8,0.1c0.9-0.1,1.5-0.1,1.7-0.1c0.1,0,0.2,0,0.3,0c0.1,0,0.1,0,0.1,0.1c1.4,0.3,2.9,0.8,4.5,1.5
					c1.1,0.4,2.3,1,3.7,1.8c0.2,0.1,0.5,0.4,0.9,0.7c0.4,0.3,0.7,0.5,1,0.7c0,0.3,0.2,0.7,0.6,1.1c0.1,0.1,0.3,0.2,0.4,0.5
					c0.1,0.2,0.3,0.4,0.5,0.5c0,0.3,0.1,0.6,0.3,0.9c0.3,0.4,0.4,0.7,0.5,0.8c0.3,1.3,0.5,2,0.5,2c0,0-0.1,0.3-0.2,0.8
					c0.4,1.3,0.5,2.6,0.3,3.8c0,0.1,0.1,0.4,0.1,0.8c0.1,0.4,0.1,0.6,0.2,0.8c-0.2,0.6-0.3,1.6-0.2,2.9c-0.4,1.3-0.6,3.6-0.6,6.7
					c0,0.3,0.2,0.6,0.6,0.9c0.4,0.3,0.6,0.7,0.6,0.9C673.1,137.2,673.1,137.4,673.1,137.4z M666.3,134c0,0,0.2-0.1,0.5-0.2
					c0.3-0.1,0.5-0.3,0.6-0.4c0-0.3,0.1-0.5,0.2-0.7c0.2-0.2,0.3-0.4,0.4-0.6c0-1.8,0-2.8-0.1-3.1c0.1-0.3,0.1-0.6,0.2-1
					c-0.3-0.7-0.3-1.7-0.1-3.1c-0.1-0.3-0.2-0.7-0.3-1.3c0-0.7-0.1-1.2-0.1-1.4c0-0.3-0.1-0.7-0.2-1.3c-0.2-0.5-0.2-1-0.1-1.4
					c-0.4-0.3-0.6-0.7-0.7-1.3c-0.4-0.4-0.7-0.8-0.9-1.2c-0.6-0.4-0.8-0.7-0.8-0.7c-0.9-0.5-1.4-0.9-1.4-1c-0.2,0-0.7-0.1-1.4-0.4
					c-0.1,0-0.2-0.1-0.4-0.1c-0.1,0-0.2,0-0.2,0c-0.5-0.3-0.7-0.5-0.5-0.5c-1.8-0.5-3.5-0.8-5.1-0.7c-1.1,0.1-1.6,0.2-1.5,0.3
					c-0.2,0.3-0.7,0.4-1.4,0.5c-0.2,0.2-0.4,0.5-0.7,0.8c-0.4,0.3-0.7,0.5-0.8,0.7c-0.2,0.1-0.5,0.3-0.8,0.7
					c-0.3,0.4-0.6,0.6-0.8,0.7c-0.1,0.2-0.4,0.8-0.9,1.9c-0.4,0.7-0.6,1.5-0.6,2.2c0,0.1-0.1,0.2-0.3,0.3c-0.1,0.1-0.2,0.2-0.2,0.4
					c-0.1,0.4-0.4,1.4-0.8,3c-0.4,1.2-0.6,2.3-0.8,3.1c0.1,0.1,0.1,0.3,0.1,0.7c0,0.3,0.1,0.5,0.1,0.7c0.2,0.5,0.2,1,0,1.5
					c0.7,0.8,1.1,1.2,1.1,1c-0.1,0.3-0.1,0.6,0,0.9c0.2,0.3,0.2,0.5,0.1,0.7c-0.7,0.1-1.5,0.7-2.2,1.6c-0.2,0.8-0.3,1.8-0.3,3
					c0,1.3-0.1,2.3-0.2,2.9c0.2,0.7,0.2,1.8,0.1,3.4c0.4,1.8,0.7,3.2,0.7,4.2c0.1,0.1,0.2,0.5,0.5,1c0.2,0.4,0.4,0.7,0.7,0.9
					c0,0.2,0.2,0.5,0.6,1c0,0.1,0.1,0.3,0.3,0.6c0.2,0.2,0.3,0.4,0.3,0.6c0.2,0,0.4,0.3,0.6,0.7c0.4,0.2,0.9,0.5,1.6,0.8
					c0.8,0.4,1.3,0.7,1.6,0.8c0.4,0,1.3,0.2,2.5,0.5c1.1-0.1,1.9-0.2,2.3-0.1c0,0,0.4-0.1,1.1-0.3c0.8-0.2,1.2-0.3,1.3-0.3
					c0.3-0.6,0.7-0.9,1.3-1c0,0.1,0-0.1,0.2-0.6c0.1-0.2,0.3-0.3,0.4-0.3c0.1,0,0.2-0.2,0.2-0.5c0.1-0.3,0.2-0.4,0.4-0.3
					c0.3-0.5,0.6-0.9,0.9-1.4c0.3-0.4,0.4-0.6,0.4-0.5c0.3-0.7,0.8-1.7,1.4-3c0.7-1.4,1.2-2.3,1.5-2.9c0.1-0.7,0.3-1.5,0.6-2.5
					c0.3-1.1,0.5-1.9,0.7-2.5c-0.1-0.6-0.2-1.2-0.2-1.8c-0.3-0.2-0.4-0.5-0.3-0.8c-0.2,0-0.4-0.3-0.6-0.7c-0.6-0.1-0.9-0.3-0.8-0.7
					c0-0.3,0.1-0.5,0.4-0.6c0.3-0.2,0.5-0.3,0.6-0.3C666.3,134,666.3,134,666.3,134z M649,157.2C648.9,157.2,648.9,157.3,649,157.2
					C649,157.3,649,157.3,649,157.2c0.1,0.1,0.1,0,0.1,0C649.1,157.2,649.1,157.2,649,157.2z"/>
				<path class="st1" d="M720,124c0,0.2-0.1,0.3-0.1,0.3c-0.2,0.4-0.7,0.5-1.5,0.2c-0.1,0.1-0.6,0.1-1.5,0.1
					c-0.2,0.1-0.3,0.2-0.5,0.4c-0.2,0.2-0.5,0.5-0.9,1c-0.4,0.5-0.7,0.8-0.9,1c-1,2.6-1.8,4.6-2.4,6c-0.6,3-1.5,6.2-2.6,9.6
					c0.1,0.2,0.2,0.6,0.1,1.1c-0.1,0.6-0.1,1,0,1.1c0,0.2,0.1,0.4,0.4,0.5c0.3,0.2,0.4,0.4,0.4,0.5c0.4,0.2,0.7,0.5,1,0.9
					c-0.1,0.6-0.5,1-1.1,1.2c-0.8,0.4-1.3,0.6-1.4,0.7c-0.2,0.2-0.3,0.6-0.5,1.2c-0.1,0.4-0.3,0.7-0.5,0.8c0-0.1-0.5,2-1.4,6.2
					c-0.4,1.9-0.8,4-1.3,6.4c0,0.9-0.1,2.3-0.3,4.2c0.1,0.3,0.5,1.1,1.3,2.2c0,0.1,0.1,0.2,0.3,0.3c0.2,0.1,0.3,0.3,0.3,0.3
					c0.2,0.3,0.2,0.6,0,0.9c0,0.2-0.1,0.3-0.3,0.2c-0.3,0-0.4,0-0.5,0c0.1-0.2-0.1-0.3-0.6-0.2c-0.2,0-0.6-0.2-0.9-0.4
					c-0.3-0.2-0.7-0.3-1-0.3c-0.1-0.3-0.4-0.6-0.9-1c-0.5-0.4-0.8-0.7-1-0.9c-0.2,0-0.4,0.1-0.7,0.3c-0.3,0.2-0.5,0.3-0.7,0.3
					c-0.3-0.1-0.5-0.1-0.5,0c-0.3,0-0.7-0.1-1.3-0.3c-0.5-0.2-1-0.2-1.4-0.2c-1.3-0.2-1.8-0.9-1.5-1.9c0.9-0.4,1.7-0.6,2.4-0.5
					c1-0.7,1.5-1.1,1.5-1.1c1.3-3,1.9-4.8,1.8-5.4c0.2-0.2,0.4-0.8,0.6-1.8c0.1-1.4,0.3-2.6,0.7-3.8c0-0.2,0-0.4-0.2-0.6
					c-0.2-0.2-0.3-0.5-0.3-0.6c-0.2-0.1-0.3-0.3-0.3-0.6c-0.1-0.4-0.1-0.6-0.2-0.7c-0.4-0.5-0.6-0.9-0.6-1.3c0-0.1-0.1-0.3-0.4-0.5
					c-0.2-0.2-0.2-0.4-0.2-0.6c-1.5-3.2-2.2-4.8-2.2-4.9c-0.3-0.3-0.6-0.9-0.9-1.6c-0.4-0.7-0.7-1.2-0.9-1.6c-0.1-0.4-0.3-1-0.7-1.6
					c-0.4-0.7-0.6-1.2-0.7-1.6c-0.3-0.2-0.5-0.5-0.7-1c-0.3-0.5-0.5-0.8-0.8-0.9c0-0.2-0.1-0.4-0.2-0.7c-0.1-0.3-0.2-0.5-0.2-0.7
					c-0.8-0.9-1.2-1.7-1.4-2.3c-0.3-0.1-0.4-0.2-0.6-0.5c-0.2-0.3-0.3-0.5-0.4-0.5c0.1-0.2,0-0.4-0.2-0.6c-0.2-0.2-0.3-0.4-0.2-0.6
					c-0.4-0.5-1-1.2-1.5-2.2c-0.7-1.1-1.2-1.8-1.5-2.3c-0.1,0.3-0.2,0.8-0.5,1.4c-0.3,0.6-0.4,1.1-0.5,1.5c0,0.2,0,0.4,0,0.8
					c0,0.4,0,0.7,0,0.8c-0.1,0.4-0.2,1.1-0.6,2.4c-0.2,1-0.4,1.9-0.5,2.6c0,0.2,0.1,0.4,0.2,0.7c0.1,0.3,0.1,0.5,0.2,0.7
					c0.1,0.2,0.3,0.6,0.7,1.1c0.4,0.4,0.5,0.8,0.5,1.2c-0.1,0.3-0.4,0.4-0.9,0.4c-0.6,0-0.9,0.1-1,0.2c-0.1,0.5-0.2,0.7-0.5,0.7
					c0,0.1,0,0.3,0.1,0.4c0,0.2,0,0.3,0,0.3c0,0.2-0.1,0.4-0.4,0.5c0.1,0.3,0.1,0.6,0.1,0.9c-0.1,0.4-0.1,0.7-0.1,0.8
					c-0.2,1.4-0.6,3.2-1.2,5.6c-0.7,2.7-1.1,4.5-1.3,5.4c-0.9,4.2-0.8,7.4,0.3,9.7c1.3,0.2,2,0.7,1.9,1.3c-0.1,0.5-0.5,0.8-1.2,0.7
					c-0.9-0.1-1.4,0-1.6,0.1c-0.3-0.2-0.7-0.3-1.1-0.3c-0.2-0.1-0.4-0.2-0.7-0.5c-0.2-0.2-0.4-0.3-0.7-0.4c-0.8-1-1.2-1.5-1-1.4
					c-0.3,0.5-0.9,0.9-1.7,1.4c-1,0.2-2,0-3.1-0.5c-0.3-0.1-1.2-0.6-2.8-1.5c0-0.1,0.2-0.7,0.5-1.5c0.2,0.1,0.8,0.3,1.7,0.6
					c0.5,0,1-0.2,1.4-0.7c0.8-1,1.1-1.4,1-1.3c0.2-0.9,0.4-1.3,0.7-1.4c0-0.6,0.1-1.5,0.4-2.7c0.3-1.2,0.5-2.2,0.4-3
					c0.2-0.9,0.4-1.4,0.5-1.7c0-0.4,0.1-1.2,0.3-2.5c0.2-1.1,0.2-1.9,0.1-2.3c0.5-1.3,0.9-3.1,1.1-5.5c-0.1-0.1-0.2-0.4-0.3-0.9
					c-0.1-0.4-0.2-0.7-0.4-0.8c-1.3-0.7-2-1.1-2-1.1c0-0.2,0-0.3,0.2-0.4c0.1-0.1,0.2-0.2,0.2-0.4c0.1-0.3,0.4-0.4,0.8-0.4
					c0.6,0,0.9-0.1,1.1-0.1c0.1,0,0.5-0.3,1.4-1c0.1-0.5,0.4-1.7,0.9-3.5c0.4-1.4,0.5-2.4,0.5-3.2c0.3-0.6,0.5-1.6,0.7-2.8
					c0.2-1.2,0.5-2.2,0.8-3c0.4-2.2,0.6-3.8,0.6-4.6c0-1.6-0.4-2.8-1.2-3.8c-0.4,0.2-0.5,0.1-0.5-0.1c-0.2,0-0.5,0-0.9,0
					c-0.4,0-0.7,0-0.8,0c-0.6,0-0.9-0.3-1-0.9c0.1-0.2,0.3-0.4,0.7-0.4c0.7-0.1,0.9-0.2,0.9-0.2c0.7,0.2,1.5,0.3,2.2,0.5
					c0.3,0.2,0.8,0.4,1.5,0.7c0.7,0.3,1.2,0.6,1.5,0.7c1.1,0.6,1.9,1.2,2.3,1.8c0.2,0,1-0.2,2.3-0.6c0.4,0.2,1.3,0.3,2.6,0.3
					c1.2,0,2.1,0.2,2.6,0.6c0.1,0.5,0.1,0.9,0,1.3c-0.3,0.2-1.1,0.1-2.5-0.1c-0.9,0.2-1.7,0.8-2.4,1.7c-0.1,0.3-0.1,0.6-0.1,1
					c0,0.4,0,0.8-0.1,1c0.5,2.1,1.2,3.8,2.2,5.1c0.2,0.5,0.7,1.3,1.4,2.4c0.7,1,1.2,1.8,1.3,2.4c0.2,0.2,0.5,0.5,0.8,0.9
					c0.3,0.4,0.6,0.8,0.8,0.9c0.2,0.5,0.7,1.4,1.4,2.6c0.7,1.1,1.1,2,1.3,2.7c0.2,0.1,0.3,0.4,0.5,0.8c0.1,0.4,0.3,0.6,0.6,0.8
					c0.4,1,0.9,2.2,1.5,3.5c0.2,0.4,0.5,1,0.9,1.7c0.5,0.8,0.9,1.4,1,1.7c0.1-0.1,0.2-0.8,0.3-1.9c0-0.2,0.1-0.4,0.2-0.5
					c0.2-0.2,0.2-0.3,0.2-0.5c0,0.1,0.8-3.3,2.4-10.2c0.1-0.2,0.1-0.4,0-0.7c-0.1-0.3-0.1-0.5,0-0.6c1.2-4.7,1.8-7,1.8-6.9
					c0,0.2,0-0.2-0.1-1c0-0.1,0-0.3,0-0.5c0-0.2,0.1-0.4,0-0.5c0-0.3-0.4-1.1-1-2.4c-0.2-0.1-0.6-0.2-1.2-0.4
					c-0.6-0.2-0.9-0.3-1.1-0.5c-0.2-0.3-0.1-0.6,0.1-0.9c0.3-0.3,0.6-0.4,0.9-0.3c0.4,0.1,0.8,0.2,1,0.4c0.3,0.2,0.5,0.4,0.6,0.4
					c0.8,0.1,1.2,0.2,1.2,0.2c2.4,1.2,3.8,2,4,2.2c0.4,0.1,0.8,0,1.3-0.2c0.6-0.2,1-0.3,1.2-0.3c0.3,0.1,1.1,0.1,2.4,0.2
					c1,0,1.7,0.3,2.1,0.8C720.2,123.5,720.1,123.7,720,124z"/>
				<path class="st1" d="M733,129.1c0,0,0.4-0.1,1.2-0.3c0.8-0.2,1.1-0.3,1.1-0.2c0.2,0,0.5,0,1,0c0.4,0,0.8,0.1,1,0.1
					c0.9,0.2,1.6,0.5,2,1c0.6,0,1.1,0.2,1.3,0.6c0,0.1,0,0.2,0,0.4c0,0.2,0,0.4-0.1,0.5c-0.1,0.4-0.4,0.6-1,0.5
					c-1-0.1-1.4-0.2-1.4-0.2c-0.2,0-0.4,0-0.7,0.1c-0.3,0.1-0.5,0.1-0.7,0c-0.3,0.2-0.8,0.5-1.3,0.9c-0.5,0.5-0.9,0.8-1.2,0.9
					c-0.4,1-1,1.8-1.5,2.5c-0.8,1.9-1.6,4.2-2.4,7.1c0,0.2-0.1,0.7-0.3,1.4c-0.1,0.6-0.2,1-0.3,1.3c0,0-0.1,0.1-0.2,0.2
					c-0.1,0.1-0.1,0.2-0.2,0.3c-0.3,1.1-0.5,2.2-0.8,3.3c0.1,0.8,0.2,1.5,0.4,1.8c0.1,0.1,0.3,0.4,0.7,0.8c0.4,0.3,0.5,0.6,0.4,1
					c-0.1,0.4-0.5,0.7-1,0.7c-0.4,0-0.9,0.1-1.3,0.1c-0.1,0.4-0.3,0.6-0.6,0.7c-0.5,2.1-0.9,3.5-1.1,4c0,0.1-0.1,0.7-0.1,1.7
					c-0.3,0.5-0.7,1.5-1.1,3c-0.4,1.5-0.7,2.5-0.9,2.9c0.1,1.1-0.3,2.6-1,4.4c0.2,0.2,1.8,0.8,4.9,2c1,0.6,2.4,1.2,4.2,1.9
					c2.5,0.9,4.1,1.6,4.7,1.8c0.1,0.1,0.3,0.1,0.4,0c0.1,0,0.3,0,0.4,0.1c0.7,0,1.8-0.3,3.4-0.8c0.5-0.6,0.7-0.8,0.6-0.7
					c0.3-0.2,0.5-0.3,0.8-0.2c0.1-0.5,0.4-0.8,0.9-1.1c0.2-0.6,0.4-1.1,0.6-1.7c0,0,0.2,0,0.7,0.1c0.3-0.1,0.6,0,0.9,0.2
					c0.5,0.5,0.7,0.7,0.7,0.7c-0.9,1.9-1.6,3.3-2.2,3.9c0,0.6-0.1,1-0.2,1.3c-0.6,1.1-0.9,1.9-1,2.3c0.1-0.2,0,0.4-0.3,1.8
					c-0.1,0.8-0.4,1.2-0.8,1.5c-0.3-0.1-0.7-0.3-1.4-0.7c-0.4-0.3-0.9-0.4-1.5-0.5c-0.7-0.3-1.8-0.7-3.3-1.1
					c-1.6-0.5-2.7-0.9-3.5-1.2c-5.4-1.4-9.5-2.7-12.2-4c-0.7-0.8-1-1.3-1-1.5c-0.4,0.1-0.8,0.2-1.4,0.3c-0.6,0.2-1.1,0.3-1.3,0.3
					c-0.3-0.1-0.6-0.2-1.1-0.2c-0.5,0-0.8-0.1-1.1-0.3c-0.3-0.1-0.6-0.4-1-0.7c-0.4-0.4-0.8-0.6-1.1-0.8c0,0-0.1-0.4-0.4-1.1
					c0-0.2-0.1-0.5-0.5-1c-0.1-0.9,0.2-1.7,0.8-2.2c0.8,0.1,1.3,0.5,1.7,1c-0.2,0.5-0.2,1.1,0.2,1.6c0.4,0.1,0.7,0.2,0.8,0.2
					c0.2,0,0.4-0.1,0.4-0.4c0.2,0.1,0.5,0.1,0.7,0c0.2-0.1,0.4-0.2,0.5-0.2c0-0.2,0.1-0.3,0.3-0.3c0.2-0.4,0.4-1,0.9-1.8
					c0.1-0.8,0.5-2.2,1.3-4.4c0.6-1.9,1-3.4,1-4.6c0.2-0.4,0.6-1.7,1.1-3.8c0.1-0.4,0.3-1.1,0.6-1.9c0.2-0.7,0.4-1.2,0.4-1.5
					c-0.2-0.7-0.3-1.2-0.5-1.5c0-0.1-0.1-0.1-0.2-0.1c-0.2,0-0.2,0-0.3,0c-0.2-0.2-0.3-0.5-0.2-1.1c0.1-0.3,0.3-0.5,0.6-0.6
					c0.4-0.1,0.7-0.2,0.8-0.3c0,0,0.4-0.2,1.3-0.7c0.3-0.8,0.6-1.9,1.1-3.5c0.4-1.5,0.8-2.7,1.2-3.5c0.3-0.8,0.9-2.5,1.7-5.2
					c0.6-1.9,0.9-3.3,1-4c0.2-0.2,0.2-0.4,0.1-0.7c-0.1-0.3-0.1-0.4,0.1-0.4c0-0.1,0-0.5-0.1-1.2c-0.4-1-0.9-1.6-1.4-1.8
					c-0.3-0.1-0.7-0.1-1,0.1c-0.4,0.2-0.7,0.3-0.9,0.3c-1.2-0.3-1.8-0.7-1.8-1c0.1-0.3,0.2-0.5,0.5-0.6c0,0,0.3,0,0.8-0.1
					c0.2-0.1,0.4-0.2,0.7-0.3c0.3-0.2,0.5-0.3,0.7-0.3c0.4,0.2,0.7,0.1,0.8-0.1c1.1,0.1,1.8,0.2,2.1,0.1c1.9,0.8,3.4,1.8,4.3,3
					C733.1,129.1,733,129.1,733,129.1z"/>
				<path class="st1" d="M777.7,145.5C777.7,145.5,777.6,145.4,777.7,145.5c0.1,0,0-0.1-0.3-0.4c-0.2-0.2-0.5-0.3-0.8-0.3
					c-0.2,0-0.4,0-0.6,0.1c-0.2,0.1-0.4,0.2-0.6,0.1c-0.8,0.4-1.5,1.2-2,2.4c-0.2,0.9-0.2,3.9,0,9c0,0.3,0,0.7,0,1.1
					c0.1,0.5,0.1,0.9,0.1,1c-0.1,0.2,0,0.5,0.2,1c0.1,0.1,0.1,0.3,0,0.6c-0.1,0.3,0,0.4,0.2,0.5c-0.1,1.5,0,2.9,0.2,4.4
					c0.4-0.4,1-1,1.6-1.9c0.7-1,1.3-1.7,1.6-2c0.3-0.6,0.8-1.3,1.5-2.1c0.8-1,1.3-1.7,1.5-2c0.3-0.9,0.8-1.8,1.7-2.5
					c0.1-0.3,0.4-0.9,1.1-1.9c0.9-2.3,1.1-4.1,0.6-5.5c-1.4-0.6-2.2-1.1-2.4-1.4c0-0.2,0.1-0.4,0.3-0.5c0.2-0.2,0.3-0.4,0.3-0.6
					c0.3,0,2.3,0.3,5.8,0.9c0.3,0.3,0.8,0.6,1.5,1c0.6,0.4,1,0.7,1.2,1.1c0.4-0.1,0.5-0.1,0.5,0.2c1.2,0.2,2.7,0.5,4.4,1.1
					c0.2,0.1,0.4,0.3,0.7,0.4c0.4,0.2,0.6,0.3,0.7,0.4c0.5,0.4,0.8,0.7,0.9,1.1c-0.4,0.8-1.1,1-2.3,0.6c-0.4,0.2-1,0.3-1.6,0.4
					c-0.1,0.1-0.7,0.5-1.7,1.2c-0.7,0.5-1.1,1-1.4,1.6c0.3-0.1-0.7,0.8-3,2.8c-0.2,0.5-0.7,1-1.3,1.6c-0.7,0.6-1.1,1.1-1.3,1.5
					c-0.2,0.1-0.5,0.3-0.8,0.6c-0.3,0.4-0.5,0.7-0.7,0.8c-0.2,0-0.4,0.3-0.7,0.6c-0.3,0.4-0.5,0.6-0.7,0.6c-0.2,0.4-0.6,0.9-1.3,1.7
					c-0.5,0.6-0.9,1.2-1.2,1.8c-0.1,0.1-0.1,0.2,0,0.4c0,0.1,0,0.3-0.1,0.4c0,0.2,0.1,0.6,0.3,1.1c0.2,0.5,0.2,0.9,0.1,1.2
					c-0.2,0.2-0.5,0.4-0.9,0.4c-0.7,0.1-1,0.2-1,0.2c-1.9,0.9-2.9,1.4-3.1,1.5c-0.1,0.2-0.4,0.6-0.9,1.1c-0.4,0.4-0.6,0.8-0.7,1.3
					c-0.5,0.4-1.1,1.1-1.9,2.1c-0.8,1.1-1.4,1.9-1.8,2.2c-0.2,0.2-0.8,0.9-1.8,2.1c-0.6,0.9-1.2,1.5-2,1.9c-0.1,0.3-0.2,0.6-0.3,0.9
					c0.1,0-0.5,0.5-1.9,1.4c-0.2,0.3-0.5,0.5-0.8,0.8c-0.5,0.3-0.8,0.5-0.9,0.7c-3.7,1.4-6.6,2.1-8.6,1.8c-3.7-1.2-6-2.6-7-4.4
					c0-0.2,0.1-0.4,0.3-0.4c0.1,0,0.1,0,0.2,0c0.1,0,0.2,0,0.3,0c0-0.3,0.3-0.5,0.7-0.6c0.4,0.1,0.7,0.3,1,0.7
					c0.3,0.4,0.6,0.7,0.8,0.8c1.4,0.4,2.5,0.7,3.2,0.8c0.2,0,0.5,0,0.9-0.1c0.4-0.1,0.7-0.1,0.9-0.1c1.3-0.4,2.6-1.1,3.8-2.1
					c1.2-1,1.8-1.5,1.8-1.5c0.2-0.1,0.5-0.3,0.9-0.6c0.4-0.4,0.7-0.6,0.8-0.7c0.6-0.7,1.6-1.8,3.1-3.4c1.3-1.4,2.4-2.6,3.1-3.5
					c0.1-0.7,0.2-1.7,0.1-2.9c-0.1-1.3,0-2.3,0-2.9c0.2-3.6,0.3-5.5,0.3-5.8c-0.1-1.1-0.2-2.6-0.3-4.3c-0.1-2.5-0.1-3.8-0.1-4.2
					c0-0.3,0-0.6-0.1-1.1c-0.1-0.5-0.1-0.8-0.1-1.1c-0.1-0.7-0.2-1.4-0.3-2.1c0-0.1,0-0.8-0.1-2.2c0.1-0.1,0-0.5-0.2-1
					c-0.1-0.1-0.1-0.3,0.1-0.4c0.1-0.1,0.1-0.3,0-0.4c-0.6-1.6-0.8-2.3-0.7-2.1c-0.2,0-0.2-0.2-0.1-0.5c-0.2-0.1-0.4-0.3-0.6-0.6
					c-0.2-0.3-0.4-0.5-0.6-0.6c-0.9,0-1.5-0.1-1.8-0.2c-0.7-0.2-1-0.5-1-1.1c0.3-0.5,0.7-0.6,1.2-0.4c0.1,0,0.3-0.1,0.5-0.2
					c0.2-0.1,0.4-0.2,0.5-0.2c0.7,0.3,1.6,0.5,2.7,0.6c0.2,0.1,0.6,0.3,1.2,0.6c0.4,0.3,0.9,0.5,1.3,0.5c0.2,0.1,0.4,0.3,0.7,0.6
					c0.2,0.3,0.5,0.5,0.7,0.6c0.5,0.1,1.5,0,3-0.1c1.2-0.1,2.3,0,3.3,0.4c0.5,0.4,0.7,0.9,0.8,1.4c0.1,0.1,0.5,0.5,1,1.2
					c-0.1,0-0.3,0.4-0.6,1.2C778.1,145.5,777.7,145.5,777.7,145.5z M767.7,179.8c-0.1,0-0.1,0.1-0.1,0.1c0,0,0.1,0,0.1,0
					c0.1,0,0.1-0.1,0.1-0.1C767.8,179.8,767.8,179.8,767.7,179.8z"/>
			</g>
		</g>
	</g>
	<g>
		<g>
			<path class="st2" d="M837.4,89.8c0,0,41.6,19.1,54.2,23.5"/>
			<path class="st1" d="M837.8,88.9c8.9,4.3,17.8,8.5,26.7,12.6c4.5,2.1,8.9,4.1,13.4,6.1c4.5,2,9,4,13.6,5.8
				c-4.7-1.6-9.2-3.4-13.8-5.3c-4.6-1.8-9.1-3.7-13.7-5.6c-9.1-3.8-18.1-7.7-27.2-11.6L837.8,88.9z"/>
		</g>
		<g>
			<path class="st2" d="M833.5,100.7c0,0,41.6,19.1,54.2,23.5"/>
			<path class="st1" d="M834,99.7c8.9,4.3,17.8,8.5,26.7,12.6c4.5,2.1,8.9,4.1,13.4,6.1c4.5,2,9,4,13.6,5.8
				c-4.7-1.6-9.2-3.4-13.8-5.3c-4.6-1.8-9.1-3.7-13.7-5.6c-9.1-3.8-18.1-7.7-27.2-11.6L834,99.7z"/>
		</g>
		<g>
			<path class="st2" d="M830.2,109.4c0,0,41.6,19.1,54.2,23.5"/>
			<path class="st1" d="M830.7,108.4c8.9,4.3,17.8,8.5,26.7,12.6c4.5,2.1,8.9,4.1,13.4,6.1c4.5,2,9,4,13.6,5.8
				c-4.7-1.6-9.2-3.4-13.8-5.3c-4.6-1.8-9.1-3.7-13.7-5.6c-9.1-3.8-18.1-7.7-27.2-11.6L830.7,108.4z"/>
		</g>
		<g>
			<path class="st2" d="M880.1,141.8"/>
		</g>
	</g>
</g>
</svg>
