<?xml version="1.0" encoding="utf-8"?>
<!-- Generator: Adobe Illustrator 22.1.0, SVG Export Plug-In . SVG Version: 6.00 Build 0)  -->
<svg version="1.1" id="Layer_1" xmlns="http://www.w3.org/2000/svg" xmlns:xlink="http://www.w3.org/1999/xlink" x="0px" y="0px"
	 width="1000px" height="518.2px" viewBox="0 0 1000 518.2" style="enable-background:new 0 0 1000 518.2;" xml:space="preserve">
<style type="text/css">
	.st0{fill-rule:evenodd;clip-rule:evenodd;fill:#FFFFFF;}
	.st1{fill-rule:evenodd;clip-rule:evenodd;}
	.st2{fill:#FFFFFF;}
</style>
<g>
	<path class="st0" d="M507.9,227.3c0-8.5,3.7-8.6,1.5-11.2c-2.1-2.6-8,1.3-11.4-0.8c-3.4-2.1-1.8-9.6-3.2-9.3c-0.1,0-0.3,0-0.4,0
		l-1.3-47.6c0-1.2,0.8-2.7,1.6-2.8c0-0.2-0.1-0.4-0.1-0.8l1.2-0.1c0.1,0.4,0.3,0.7,0.6,1l1-0.2c0.4-0.7,0.4-1.8,0-2.5l-1-0.2
		c-0.3,0.3-0.5,0.6-0.6,1l-1.2-0.1c0-0.9,0-2.1,0-3.3l1.2-0.1c0.1,0.4,0.3,0.7,0.6,1l1-0.2c0.4-0.7,0.4-1.8,0-2.5l-1-0.2
		c-0.3,0.3-0.5,0.6-0.6,1l-1.2-0.1c0-1.1,0.1-2.3,0.2-3.3l1-0.1c0.1,0.4,0.3,0.7,0.6,1l1-0.2c0.4-0.7,0.4-1.8,0-2.5l-1-0.2
		c-0.3,0.3-0.5,0.6-0.6,1l-0.9-0.1c0.2-1.3,0.4-2.3,0.6-2.8c-1.2,0-2.8-0.9-3.4-1.7c-0.5,0.4-2.7,0.4-3.2,0
		c-0.6,0.9-2.2,1.7-3.4,1.7c0.3,0.5,0.5,1.5,0.6,2.8l-0.9,0.1c-0.1-0.4-0.3-0.7-0.6-1l-1,0.2c-0.4,0.7-0.4,1.8,0,2.5l1,0.2
		c0.3-0.3,0.5-0.6,0.6-1l1,0.1c0.1,1,0.1,2.2,0.2,3.3l-1.2,0.1c-0.1-0.4-0.3-0.7-0.6-1l-1,0.2c-0.4,0.7-0.4,1.8,0,2.5l1,0.2
		c0.3-0.3,0.5-0.6,0.6-1l1.2,0.1c0,1.2,0,2.4,0,3.3l-1.2,0.1c-0.1-0.4-0.3-0.7-0.6-1l-1,0.2c-0.4,0.7-0.4,1.8,0,2.5l1,0.2
		c0.3-0.3,0.5-0.6,0.6-1l1.2,0.1c0,0.3,0,0.6-0.1,0.8c0.8,0.1,1.5,1.7,1.6,2.8l-1.3,47.6c-1.6,0-3.2,0-4.5,0.1
		c-3.9,0.1-8.6,1.9-9.8,6.3c-1.2,4.4,2.2,13.5,1.3,18.9c-0.9,5.4-9.3,12.3-9.3,25.2c0,12.9,11.1,17.9,25.9,17.9
		c14.9,0,27.1-4.9,27.1-20C517.3,239.1,507.9,235.8,507.9,227.3z"/>
	<path class="st1" d="M498,230.6c0,3.9-3.2,7.1-7.1,7.1c-3.9,0-7.1-3.2-7.1-7.1c0-3.9,3.2-7.1,7.1-7.1
		C494.8,223.5,498,226.7,498,230.6z"/>
	<g>
		<polygon class="st2" points="415.8,222.1 379,255.2 342.1,288.1 268.4,354 194.4,419.6 157.5,452.4 120.4,485.1 157.1,452.1 
			194,419.1 267.7,353.2 341.7,287.6 378.7,254.8 		"/>
	</g>
	<g>
		<polygon class="st2" points="417.9,201.3 376.4,232.9 334.7,264.3 251.5,327.2 168,389.8 126.2,421.1 84.4,452.3 125.9,420.7 
			167.6,389.3 250.9,326.4 334.3,263.8 376.1,232.5 		"/>
	</g>
	<g>
		<polygon class="st2" points="413.4,193.9 364.5,219.3 315.5,244.5 217.5,294.9 119.4,345 70.4,370.1 21.3,395 70.2,369.6 
			119.1,344.4 217.1,294 315.2,243.9 364.2,218.8 		"/>
	</g>
	<g>
		<polygon class="st2" points="415.8,176.2 367.5,189.3 319.2,202.3 222.5,228.2 125.8,253.8 77.4,266.6 29,279.2 77.3,266.1 
			125.6,253.2 222.2,227.2 319,201.6 367.4,188.8 		"/>
	</g>
	<g>
		<polygon class="st2" points="409.1,189.5 359.2,208 309.2,226.4 209.2,263 109.1,299.3 59.1,317.5 9,335.5 58.9,317 108.9,298.7 
			208.9,262.1 308.9,225.7 359,207.6 		"/>
	</g>
	<g>
		<polygon class="st2" points="423.8,171.6 376.4,176.3 328.9,180.8 234,189.9 139,198.7 91.5,203 44,207.2 91.5,202.5 138.9,198 
			233.9,188.9 328.9,180.2 376.3,175.8 		"/>
	</g>
	<g>
		<polygon class="st2" points="423.8,234.2 401.4,267.1 378.8,299.9 333.6,365.6 288.1,431 265.3,463.7 242.5,496.4 264.9,463.5 
			287.5,430.6 332.7,365 378.2,299.6 401,266.9 		"/>
	</g>
	<g>
		<polygon class="st2" points="435.5,260.3 426,287.9 416.4,315.5 397.1,370.6 377.5,425.6 367.7,453.1 357.7,480.5 367.2,452.9 
			376.8,425.3 396.2,370.2 415.7,315.2 425.6,287.7 		"/>
	</g>
	<g>
		<polygon class="st2" points="428.1,249.3 413.2,278.9 398.2,308.4 368,367.4 337.6,426.3 322.4,455.7 307,485.1 321.9,455.5 
			337,426 367.1,367 397.6,308.1 412.8,278.6 		"/>
	</g>
	<g>
		<polygon class="st2" points="449.8,279.2 443.8,304.4 437.6,329.6 425.1,379.8 412.3,430 405.9,455.1 399.3,480.1 405.4,454.9 
			411.6,429.8 424.1,379.6 436.8,329.4 443.3,304.3 		"/>
	</g>
	<g>
		<polygon class="st2" points="473.8,283.7 470,306.5 466,329.2 458,374.6 449.8,420 445.6,442.7 441.3,465.3 445.1,442.6 
			449,419.9 457,374.5 465.3,329.1 469.5,306.4 		"/>
	</g>
	<g>
		<polygon class="st2" points="507.4,283 513.9,306 520.2,329 532.7,375.1 544.9,421.3 551,444.3 557,467.5 550.5,444.5 
			544.2,421.5 531.7,375.4 519.4,329.2 513.4,306.1 		"/>
	</g>
	<g>
		<polygon class="st2" points="490.8,285.7 491.3,307 491.7,328.2 492.3,370.8 492.7,413.3 492.8,434.6 492.9,455.9 492.4,434.6 
			491.9,413.3 491.3,370.8 490.9,328.2 490.8,307 		"/>
	</g>
	<g>
		<polygon class="st2" points="527.1,273.2 541.8,298.9 556.4,324.7 585.5,376.4 614.3,428.2 628.7,454.1 643,480.1 628.3,454.4 
			613.7,428.6 584.6,376.9 555.7,325.1 541.4,299.2 		"/>
	</g>
	<g>
		<polygon class="st2" points="548,249.2 573.6,274.9 599,300.6 649.9,352.2 700.5,404 725.8,429.9 751,455.9 725.5,430.2 
			700,404.4 649.2,352.9 598.5,301.1 573.2,275.2 		"/>
	</g>
	<g>
		<polygon class="st2" points="538.5,263.1 562.1,291.7 585.7,320.4 632.7,377.9 679.4,435.5 702.8,464.4 726.1,493.3 702.4,464.7 
			678.9,436 631.9,378.5 585.1,320.8 561.8,292 		"/>
	</g>
	<g>
		<polygon class="st2" points="560.1,225.6 607.1,256.3 654.1,287.1 748,348.8 841.7,410.7 888.6,441.7 935.3,472.8 888.3,442.1 
			841.3,411.3 747.4,349.6 653.7,287.7 606.8,256.7 		"/>
	</g>
	<g>
		<polygon class="st2" points="560.5,207.2 614.6,235.1 668.5,263.1 776.5,319.1 884.3,375.4 938.2,403.5 992,431.8 938,404 
			884,376 776,320 668.2,263.7 614.3,235.5 		"/>
	</g>
	<g>
		<polygon class="st2" points="559.6,193.9 609.8,211.4 659.9,229 760.2,264.2 860.3,299.8 910.4,317.6 960.4,335.5 910.3,318.1 
			860.1,300.4 759.9,265.2 659.7,229.6 609.6,211.8 		"/>
	</g>
	<g>
		<polygon class="st2" points="557,186.9 607.1,196.1 657.1,205.5 757.3,224.2 857.3,243.3 907.4,252.8 957.4,262.5 907.3,253.3 
			857.2,243.9 757.1,225.2 657,206.1 607,196.6 		"/>
	</g>
	<g>
		<polygon class="st2" points="553.1,178.3 602.5,180 651.9,181.8 750.7,185.6 849.4,189.7 898.8,191.7 948.1,193.9 898.7,192.2 
			849.4,190.3 750.6,186.6 651.9,182.5 602.5,180.5 		"/>
	</g>
	<g>
		<polygon class="st2" points="550.7,172 592.5,166.8 634.2,161.8 717.8,151.8 801.4,142.1 843.2,137.2 885,132.5 843.2,137.7 
			801.5,142.7 717.9,152.8 634.3,162.5 592.5,167.3 		"/>
	</g>
	<g>
		<polygon class="st2" points="549.4,164.4 577.9,157.1 606.4,149.9 663.6,135.5 720.7,121.5 749.4,114.5 778,107.6 749.5,115 
			720.9,122.2 663.8,136.5 606.6,150.6 578,157.6 		"/>
	</g>
	<g>
		<polygon class="st2" points="542.7,158.8 565.1,148.7 587.5,138.7 632.4,118.8 677.4,99.2 700,89.5 722.6,79.8 700.2,89.9 
			677.8,99.9 632.8,119.7 587.8,139.4 565.3,149.1 		"/>
	</g>
	<g>
		<polygon class="st2" points="531.9,151.6 548.2,140.8 564.6,130.1 597.5,108.7 630.5,87.6 647.1,77.1 663.7,66.6 647.3,77.5 
			630.9,88.2 598,109.6 565,130.7 548.5,141.2 		"/>
	</g>
	<g>
		<path class="st2" d="M525.7,147.8c7.7-8.5,15.5-16.9,23.2-25.4l23.4-25.2l23.6-25l11.9-12.5l11.9-12.4l-11.6,12.7l-11.7,12.6
			l-23.4,25.2l-23.6,25C541.6,131.3,533.7,139.6,525.7,147.8z"/>
	</g>
	<g>
		<path class="st2" d="M469.6,131.8c-2.2-8.6-4.4-17.3-6.5-25.9l-6.2-26l-6-26l-2.9-13l-2.8-13.1l3.3,12.9l3.2,13l6.2,26l6,26
			C465.8,114.4,467.7,123.1,469.6,131.8z"/>
	</g>
	<g>
		<path class="st2" d="M484.2,128.8c-0.5-9-0.9-18.1-1.2-27.1l-1-27.1l-0.7-27.1L481,33.9l-0.2-13.6l0.7,13.6l0.6,13.6l1,27.1
			l0.7,27.1C484,110.7,484.2,119.8,484.2,128.8z"/>
	</g>
	<g>
		<path class="st2" d="M455.8,135.3c-4.1-7.9-8.1-15.9-12.1-23.9l-11.9-24.1l-11.7-24.2L414.3,51l-5.7-12.2l6.1,11.9l6,12l11.9,24.1
			l11.7,24.2C448.2,119.1,452,127.1,455.8,135.3z"/>
	</g>
	<g>
		<path class="st2" d="M451.5,140.3c-6.8-6.8-13.5-13.7-20.2-20.7l-20-20.8l-19.8-21l-9.8-10.6l-9.8-10.6L382,66.9l10,10.4l20,20.8
			l19.8,21C438.5,126.2,445,133.2,451.5,140.3z"/>
	</g>
	<g>
		<polygon class="st2" points="436,150.1 420,139.7 404,129.1 372,108 340.3,86.6 324.4,75.9 308.6,65 324.7,75.4 340.7,86 
			372.6,107.1 404.4,128.5 420.2,139.3 		"/>
	</g>
	<g>
		<polygon class="st2" points="429.5,161.9 408.5,152.5 387.6,143 345.8,123.8 304,104.5 283.2,94.8 262.4,84.9 283.4,94.3 
			304.3,103.8 346.2,122.9 387.9,142.3 408.8,152 		"/>
	</g>
	<g>
		<polygon class="st2" points="421.3,164.6 392.6,157.2 364,149.6 306.9,134.3 249.8,118.8 221.3,110.9 192.8,103 221.4,110.5 
			250,118 307.1,133.3 364.2,148.9 392.8,156.7 		"/>
	</g>
	<g>
		<polygon class="st2" points="405.6,169.1 363.2,164.2 321,159.1 236.4,149.1 151.9,138.6 109.6,133.4 67.4,128 109.7,132.9 
			152,138 236.5,148.1 321,158.5 363.3,163.7 		"/>
	</g>
	<g>
		<path class="st2" d="M497.3,130.3c1.5-8.9,3-17.8,4.6-26.7l4.9-26.6l5.1-26.6l2.6-13.3l2.7-13.3L515,37.3l-2.4,13.3l-4.9,26.6
			l-5.1,26.6C501,112.6,499.2,121.5,497.3,130.3z"/>
	</g>
	<g>
		<path class="st2" d="M510.3,131.4c2.5-8.7,5.1-17.3,7.7-25.9l7.9-25.9l8.2-25.8l4.2-12.9l4.3-12.8l-3.8,13l-3.9,13L526.8,80
			l-8.2,25.8C515.9,114.3,513.1,122.9,510.3,131.4z"/>
	</g>
	<g>
		<path class="st2" d="M518.6,140c4.4-8.6,8.9-17.2,13.4-25.7l13.7-25.6l13.9-25.5l7-12.7l7.1-12.7l-6.7,12.9l-6.8,12.8l-13.7,25.6
			l-13.9,25.5C528,123.1,523.3,131.6,518.6,140z"/>
	</g>
</g>
</svg>
