<?xml version="1.0" encoding="utf-8"?>
<!-- Generator: Adobe Illustrator 22.1.0, SVG Export Plug-In . SVG Version: 6.00 Build 0)  -->
<svg version="1.1" id="Layer_1" xmlns="http://www.w3.org/2000/svg" xmlns:xlink="http://www.w3.org/1999/xlink" x="0px" y="0px"
	 width="1000px" height="224.2px" viewBox="0 0 1000 224.2" style="enable-background:new 0 0 1000 224.2;" xml:space="preserve">
<style type="text/css">
	.st0{fill:#FFFFFF;}
</style>
<g>
	<path class="st0" d="M496.1,89.3c2.1,2,4.3,3.9,6.5,5.8c0.7,0.6,1.5,1.3,2.2,1.9c1.1,1,2.5,1.8,3.8,2.4c0.4,0.2,0.9,0.3,1.3,0.4
		c0.9,0.2,1.9,0.2,2.8,0c1.3-0.3,2.4-1.1,3.4-2c0.5-0.4,0.9-0.9,1.3-1.4c0.6-0.8,1.2-1.6,1.7-2.4c0.8-1.4,1.5-2.8,2-4.3
		c0.2-0.6,0.4-1.1,0.5-1.7c0.6-2.2,1.7-7,0.3-9c-0.2-0.3-0.4-0.4-0.6-0.5c-0.4-0.1-0.9,0.3-1.6,0.5c-3.9,1.4-8.2,1.7-12.3,2.3
		c-1.1,0.2-6.7,1.6-10.2,3.4c-2.2,1.1-3.6,2.3-2.5,3.4C495.2,88.5,495.6,88.9,496.1,89.3z"/>
	<path class="st0" d="M517.6,112.4c4.7-0.4,8.7-2.7,12.9-4.5c2.2-1,4.5-1.9,6.8-2.8c2.5-0.9,5-1.5,7.6-1.8c2.3-0.3,4.6-0.5,6.9-0.5
		c1.7,0,2.3-0.8,2-2.3c0-0.1,0-0.2-0.1-0.3c-0.4-1.3-0.9-2.6-1.3-4c0,0,0-0.1,0-0.1c-0.9-2.8-2.6-5.2-4.3-7.5
		c-1.3-1.9-4.1-5.5-6.8-6.1c-0.5-0.1-1-0.1-1.6,0c-1.6,0.4-2.8,1.6-3.9,2.7c-0.6,0.6-3.1,3.2-6.1,6.2c-1.2,1.2-2.5,2.5-3.8,3.8
		c-1.3,1.3-2.6,2.6-3.9,3.7c-2.5,2.4-4.5,4.1-5,4c0,0,0,0-0.1,0c3.2,2.9,2.5,6.2,0.3,9.5C517.4,112.3,517.5,112.4,517.6,112.4z"/>
	<path class="st0" d="M485.5,72.6c-0.5,0.9-0.8,1.7,0,2.8c1.4,1.7,2.7,3.6,3.9,5.5c0.4,0.6,0.7,1,1,1c0.3,0.1,0.7-0.1,1.4-0.5
		c2.1-1.2,4.2-2.4,6.4-3.4c2.6-1.2,5.4-2.2,8-3.4c1.9-0.9,3.7-2.1,5.5-3.2c0.2-0.1,0.4-0.2,0.6-0.3c1.7-1,3.2-2.1,4.7-3.3
		c1.3-1.1,2.6-2.3,3.7-3.7c0.1-0.1,0.1-0.2,0.2-0.2c0.6-0.7,0.8-1.5,1.1-2.3c-0.2,0.6-4.1,1.1-4.8,1.2c-0.5,0.1-1,0.1-1.5,0.2
		c-1.2,0.1-2.5,0.2-3.7,0.3c-2.7,0-5.4-0.2-8-0.8c-0.8-0.2-1.6-0.4-2.4-0.6c-3.1-0.9-5.8-2.1-8.2-3.6c-3.2-2-6-4.4-8.9-7.2
		c-0.4-0.4-0.9-0.6-1.4-0.7c-1-0.2-2.1,0-2.7,0.8c-0.9,1.1-1.4,2.4-1.4,3.9c0,0.2,0,0.4,0,0.6c0,1.5,0.1,3,0.2,4.5
		c0,0.2,0,0.5,0,0.7c0.1,1.3,0.1,2.6,0.2,4c0,1.2,0.1,2.4,0.2,3.6c0,0.2,0.1,0.5,0.2,0.6c1.2,1.3,2.4,2.5,3.7,3.9
		c1.3-2.3,1.7-4.6,1.7-6.9c0-1.6-0.3-3.3-0.8-4.9c-0.2-0.8-0.4-1.7-0.7-2.5c0.8,0.9,1.5,1.8,2.2,2.8c0.3,0.5,0.7,0.9,1,1.4
		c0.8,1.2,1.2,2.5,1.1,3.8c0,0.8-0.2,1.7-0.6,2.6C487,70.3,486.2,71.4,485.5,72.6z"/>
	<path class="st0" d="M491.7,51.1c-0.6,0.4-1.3,0.9-2.1,1.4c3.4,2,6.2,4.4,9.9,6.1c-0.1-1.1-0.1-1.9-0.3-2.6
		c-0.4-2.2-0.1-4.3,1.9-5.6c0.9-0.6,2-1.1,3-1.4c2.2-0.5,4.4-0.8,6.7-1.2c-0.3-0.3-0.6-0.6-0.9-0.9c-1.8-1.5-4.1-1.9-6.3-2.5
		c-0.3-0.1-0.5-0.1-0.8-0.2c-2.3-0.5-4.7-0.2-6.6,1.3c-2.4,1.9-3.2,2.4-1.5,5.3c0.6,1,1.4,1.9,2.1,2.9c0,0.1-0.1,0.1-0.1,0.2
		C495.1,53,493.4,52,491.7,51.1z"/>
	<path class="st0" d="M493.8,84.7c0.3-0.1,0.7-0.4,1-0.6c0.3-0.2,0.5-0.4,0.8-0.6c2.1-1.4,4.5-2.8,6.9-3.6c2.2-0.7,4.6-0.8,6.9-1.2
		c4.5-0.8,9.1-2.2,12.8-5.1c0.3-0.2,0.5-0.4,0.8-0.6c1.1-1,2.1-2.1,3-3.3c0.9-1.2,1.8-2.6,2.5-3.9c0.3-0.5,0.5-1,0.8-1.5
		c0.9-1.7,1.7-3.4,1.6-5.3c0-1.4-1.8-4.6-3.6-4.9c-0.5-0.1-0.9,0-1.4,0.3c-1.4,1-0.5,4.2-0.8,5.6c-0.4,1.6-1,3.2-1.9,4.6
		c-0.6,1.1-1.4,2.1-2.3,3c-0.3,0.3-0.5,0.5-0.8,0.8c-1.5,1.4-3.2,2.6-5,3.7c-1.9,1.1-3.8,2-5.8,2.9c-3.2,1.4-6.4,2.6-9.5,4.2
		c-2.3,1.2-5,2.4-6.6,4.5c-0.3,0.4-0.5,0.8-0.7,1.2C492.6,84.9,493.5,84.8,493.8,84.7C493.7,84.7,493.7,84.7,493.8,84.7z"/>
	<path class="st0" d="M503.9,51.6c-0.9,0.4-1.8,1.1-2.3,2c-0.6,1.2-0.5,2.7,0.1,3.9c1.1,2.1,3.5,3.1,5.7,3.5
		c0.5,0.1,0.9,0.2,1.3,0.2c0.8,0.1,1.7,0.1,2.3-0.3c0.7-0.5,1-1.6,0.7-2.4c-0.3-0.8-1.1-1.4-1.9-1.6c0,0-0.1,0-0.1,0
		c-1.4-0.2-2.5,0.6-3.5,1.5c-0.1-0.5,0.2-1.1,0.5-1.5c0.4-0.4,0.8-0.7,1.3-0.9c1.3-0.6,2.7-0.9,4.1-0.8c0.3,0,0.7,0,1,0.1
		c0.6,0.1,1.3,0.4,1.7,0.9c0.5,0.5,0.7,1.3,0.6,2c-0.2,0.9-1,1.7-1.6,2.3c0,0,0,0,0,0c-0.1,0.4,0.1,0.5,0.4,0.6c0,0,0.1,0,0.1,0
		c0,0,0,0,0,0l0,0c0,0,0,0,0,0c1.7-0.1,3.4-0.4,5.2-0.7c1.1-0.2,3.8,0,3.2-1.9c-0.1-0.4-0.3-0.7-0.4-1.1c-0.3-0.7-0.4-1.5-0.3-2.3
		c0-0.3,0.2-0.7,0.4-1.1c0.2-0.5,0.3-0.9,0.1-1.1c0,0,0,0,0,0c-0.3-0.1-0.7-0.2-1.1-0.3c-0.4-0.1-0.8-0.2-1.3-0.2
		c-0.3-0.1-0.6-0.1-1-0.2c-1.3-0.4-2.5-0.8-3.8-1.1c-0.2,0-0.4-0.1-0.6-0.1C511.6,50.1,507.2,50.2,503.9,51.6z"/>
	<path class="st0" d="M464.3,49.5c-0.8,0.8-1.3,1.8-1.7,2.8c-0.5,1.4-0.5,2.9-0.1,4.4c0.4,1.4,1.1,2.7,2.2,3.8
		c0.1,0.1,0.3,0.3,0.5,0.3c1.5,0.6,3.1,1.2,4.6,1.9c0,0,0.1,0,0.1,0.1c1.3,0.6,2.6,1.3,3.9,2c0.9,0.5,1.8,1.1,2.8,1.7
		c0.1-0.4,0.1-0.6,0.1-0.8c0-0.5-0.1-1-0.1-1.5c-0.1-1.6-0.2-3.1-0.3-4.7c-0.1-1.5-0.2-3-0.2-4.5c0-1.1,0-2.2,0.1-3.4
		c0.1-1.2,0.3-2.6,1.1-3.5c0.9-1.1,2.6-1.4,4-1.1c0.1,0,0.3,0.1,0.4,0.1c1.5,0.4,2.4,1.8,3.9,2.2c0.1,0,0.1,0,0.1,0
		c1.4,0.3,3-0.4,4-1.4c1.4-1.3,2.3-3.1,3.6-4.5c1.7-1.8,4-3,6.4-3.4c1.2-0.2,2.1-0.1,3,0.1c1.5,0.3,2.7,1,4.4,1.6
		c0.3,0.1,0.6,0.2,1,0.3c0.8,0.2,1.6,0.2,2.4-0.1c4.6-1.6,0.3-5-1.6-6.4c-2-1.5-4.3-2.5-6.7-3c-1.6-0.3-3.1-0.5-4.7-0.4
		c-5.4,0.2-10.5,2.3-15.1,5.1c-4.6,2.7-8.9,6-13.4,8.8C467.5,47,465.7,48,464.3,49.5z"/>
	<path class="st0" d="M441.2,80.1c-0.2,0.3-0.3,0.6-0.4,1c0,0.2-0.1,0.5,0,0.7c0,0.5,0.3,1,0.6,1.4l0,0c0.2,0.2,0.3,0.4,0.5,0.6
		c1.1,1,2.2,2.1,3.3,3.1c0,0,0,0,0,0c0.1,0.1,0.2,0.1,0.3,0.2c2,1.6,4.1,3.2,6,4.9c0,0,0,0,0.1,0.1c2.1,1.9,4.3,3.7,5.6,6.3
		c0.1,0.3,0.3,0.5,0.4,0.8c0,0,0,0,0,0c2.2,3.5,3.7,7.4,5.6,11.1c1.6,3.2,4.2,5,7.3,5.6c0.6,0.1,1.3,0.2,2,0.3
		c3.4,0.2,6.9-0.1,10.4-0.2c0-0.1,0-0.2,0.1-0.3c-2.1-1.6-4.2-3.2-6.1-5c-5-4.6-9.3-9.8-12.6-15.7c-1.5-2.7-2.8-5.4-3.9-8.3
		c-0.1-0.4-0.3-0.7-0.4-1.1c-0.6-1.6-1-3.2-1.5-4.8c-0.3-1-0.6-1.9-0.9-2.9c-0.2-0.7-0.4-1.5-1.2-1.7c-0.1,0-0.2,0-0.4,0
		c-3.3,0.1-6.6,0.3-9.8,1.3c-0.2,0.1-0.4,0.1-0.6,0.2C443.8,78.3,442.3,78.9,441.2,80.1L441.2,80.1z"/>
	<path class="st0" d="M548.8,51.5c-5-3.4-10.7-6.5-16.4-8.6c-1.8-0.7-3.9-1.4-6-1.8c-4.8-1-9.8-0.7-12.4,4.1c-0.2,0.3,0.8,0.8,2,1.2
		c1.4,0.5,3.3,0.9,4.4,1.2c0.5,0.1,0.8,0.2,0.9,0.2c2.7,0.1,5.3-0.7,8.1-0.4c0.5,0.1,0.9,0.1,1.4,0.2c2.7,0.6,5.2,1.8,7.1,3.8
		c2,2.1,3.9,4.3,5.8,6.5c0.2,0.2,0.3,0.5,0.6,1.1c-1-0.5-1.8-0.8-2.4-1.3c-1.9-1.4-3.7-3-5.8-4.3c-1.3-0.8-2.8-0.9-4.2-1.3
		c-0.1,0.7,0.3,1.1,0.6,1.8c0.4,0.8,0.7,1.6,1,2.4c0.5,1.7,0.6,3.4,0.4,5.2c-0.3,1.8-0.9,3.5-1.9,5.1c0,0,0,0,0,0.1
		c-0.9,1.4-2.1,2.5-3.1,3.7c-0.2,0.2-0.4,0.5-0.6,0.7c-0.9,1.1-1.7,2.2-2.5,3.3c0,0.1-0.1,0.1-0.2,0.2c-1.5,2.2-1.3,4.6-0.9,7.1
		c0.1,0.4,0.2,0.9,0.3,1.4c1.2-1.6,2.2-3.3,3.6-4.7c1-0.9,2-1.9,3-2.7c0.5-0.4,1.1-0.9,1.6-1.3c0.9-0.7,1.7-1.5,2.6-2.4
		c1.1-1.2,2.2-2.4,3-3.8c0.3-0.5,0.6-1,0.8-1.6c0.5-1.2,1.2-2.6,2.7-2.3c0,0,0,0,0.1,0c0,1.8,0,3-0.4,4.5c0,0,0,0.1,0,0.1
		c0,0,0.1,0,0.1,0c0,0,0,0,0,0c0,0,0,0.1,0,0.1c-0.3,1.5-1.2,2.7-2.4,3.8c0,0,0,0-0.1,0c-1.4,1.3-3.2,2.4-4.6,3.5c0,0,0,0,0,0
		c-2.8,2.3-5.4,4.9-7.6,7.8c-0.3,0.4-0.6,0.8-0.9,1.2c-1,1.5-1.9,3.1-2.7,4.7c-0.1,0.3-0.3,0.5-0.4,0.8c-0.5,1-0.9,1.9-1.4,2.9
		c-0.1,0.1-0.2,0.3-0.2,0.5c-0.4,0.8-0.9,1.7-1,2.4c0.3,0,0.7-0.5,0.9-0.7c0.4-0.5,0.8-1,1.2-1.5c0.8-1,1.6-2,2.5-3
		c0.3-0.3,0.6-0.6,1-1c2.7-2.8,5.5-5.6,8.3-8.4c1.7-1.7,3.6-3.3,5.5-4.8c1.4-1.1,2.9-2.3,4.3-3.5c0,0,0,0,0.1-0.1l0,0
		c0.9-0.7,1.7-1.5,2.6-2.3c0.2-0.2,0.4-0.4,0.6-0.7c0.2-0.2,0.4-0.4,0.5-0.6l0,0c1.8-2,3.3-4.3,4.1-6.8
		C553.4,59.3,552.4,54.1,548.8,51.5z"/>
	<path class="st0" d="M456,61.4c-1.3,0.1-2.2,0.2-3.3,1c2,1.4,4.4,2.4,6.6,3.5c2.3,1.1,4.5,2.3,6.7,3.5c2.7,1.5,5.4,3.2,7.8,5.2
		c1.2,1,2.4,2.1,3.4,3.2c0.9,1,1.5,2,2.2,3.1c0.1,0.2,0.2,0.4,0.4,0.6c0.2,0.2,0.5,0.6,0.1,0.7c0,0,0,0,0,0
		c-0.3-0.1-1.3-1.1-1.9-1.6c-0.1-0.1-0.2-0.2-0.2-0.2c-0.8-0.6-1.5-1.2-2.3-1.8c-1.6-1.2-3.2-2.3-4.8-3.3c-3.2-2-6.5-3.7-9.9-5.2
		c-0.6-0.3-2-0.6-2.4-1.2c0,0.2,0,0.3,0,0.4c0,0,0,0,0,0c0.5,2.6,1.3,5.2,2.3,7.7c0.4,1,0.8,2,1.2,3c0.3,0.7,0.6,1.3,0.8,2
		c0.7,1.7,1.5,3.3,2.3,5c0.5,1,1,1.9,1.5,2.9c1.8,3.3,3.7,6.4,5.8,9.5c1.1,1.5,2.2,3,3.3,4.5c1.1,1.4,2.3,2.6,3.5,3.9
		c2.4,2.7,5.3,5,8.5,6.9c1.9,1.1,4.2,2,6.6,2.5c6.4,1.3,13.9,0.3,18.2-4.1c1.3-1.3,3.6-5.7,2-7.7c-0.2-0.2-0.4-0.4-0.7-0.6
		c-5.6-2.8-10.4-6.3-14.9-10.2c-2.1-1.9-4.1-3.8-6.1-5.8c-1.9-2-3.7-4-5.5-6.1c-2.4-2.8-4.8-5.7-7.2-8.6c-1.2-1.3-2.5-2.6-3.9-3.8
		c-2.8-2.5-6-4.8-9.5-6.3c-1.9-0.9-3.8-1.6-5.8-2C459.1,61.5,457.6,61.4,456,61.4z"/>
	<path class="st0" d="M335.2,206.3c8.2-0.3,11.6-4.5,11.6-4.5s1.4-1.5,2.2-2.7c-4.2-1.1-19.3-4.7-26.5-4c0,0,13.7-2.5,26.8,1.9
		c-0.5-1.6-2.1-4.2-2.1-4.2c-5.6-9-23.6-13.4-37.9,6.2C323.7,198.6,326.1,206.6,335.2,206.3z"/>
	<path class="st0" d="M238.8,38.4c-12.7,13.9-8.9,36.2,5,50.1c25.4,25.3,64.9,21.6,101.1,5.9c-29.4,9.2-66,15.1-90.1-5
		c-23.6-19.7-22.7-43.6-9-52.6c3.9-2.6,10.4-1.5,12.9,3.1c2.6,4.8-5.4,15.4-10,7.2c-2.4,2.9-1.3,5.7,0.4,7
		c5.4,3.9,12.1-5.8,12.7-10.3C263.7,29.9,246,30.5,238.8,38.4z"/>
	<path class="st0" d="M324.7,46.3c-0.2,0.6-0.7,3.8-0.6,6c0.1,1.4,0.4,2.4,1.2,2.1c0.3-0.1,0.7-0.3,1-0.4c1.5-0.6,3-1.3,4.5-2
		c0.5-0.2,1-0.5,1.5-0.7c0.8-0.4,1.5-0.8,2.1-1.4c0.2-0.2,0.4-0.4,0.5-0.6c0.3-0.4,0.6-0.9,0.6-1.5c0.1-0.7,0-1.5-0.2-2.2
		c-0.1-0.3-0.3-0.7-0.4-1c-0.2-0.5-0.5-1-0.9-1.4c-0.5-0.7-1.1-1.4-1.7-2c-0.2-0.2-0.5-0.5-0.8-0.7c-1-0.8-3.2-2.5-4.6-2.2
		c-0.2,0-0.3,0.1-0.4,0.2c-0.1,0.2-0.1,0.5-0.1,0.9C326.2,41.8,325.3,44,324.7,46.3z"/>
	<path class="st0" d="M345.2,26.9c-0.1,0-0.1,0-0.2,0c-0.8-0.1-1.6-0.2-2.3-0.2c0,0-0.1,0-0.1,0c-1.7-0.2-3.2,0.2-4.9,0.5
		c-1.3,0.3-3.8,0.8-4.7,2.1c-0.2,0.2-0.3,0.5-0.3,0.8c-0.1,0.9,0.2,1.8,0.5,2.6c0.2,0.4,0.9,2.3,1.8,4.6c0.4,0.9,0.7,1.9,1.1,2.9
		c0.4,1,0.7,2,1,2.8c0.6,1.8,1,3.3,0.9,3.5c0,0,0,0,0,0c2.2-0.9,3.7,0.1,4.9,2c0.1-0.1,0.1-0.2,0.2-0.3c0.9-2.5,0.6-5.1,0.7-7.7
		c0-1.4,0-2.8,0.2-4.1c0.1-1.5,0.4-2.9,0.8-4.3c0.4-1.2,0.8-2.5,1.3-3.7C346.3,27.6,346,27,345.2,26.9z"/>
	<path class="st0" d="M303.9,51.1c-0.3,0.1-0.5,0.3-0.7,0.6c-0.4,0.5-0.5,1.1-0.2,1.6c0.4,0.7,0.9,1.3,1.7,1.6
		c0.1,0,0.2,0.1,0.3,0.1c0.8,0.3,1.6,0.6,2.4,0.9c0.1,0,0.3,0.1,0.4,0.1c0.7,0.3,1.4,0.6,2.1,0.8c0.6,0.2,1.2,0.5,1.9,0.7
		c0.1,0,0.3,0.1,0.4,0c0.9-0.3,1.8-0.7,2.9-1c-0.9-1.2-2-2-3.2-2.5c-0.9-0.4-1.8-0.6-2.7-0.7c-0.5-0.1-0.9-0.2-1.4-0.2
		c0.7-0.2,1.3-0.4,1.9-0.5c0.3-0.1,0.6-0.1,0.9-0.2c0.8-0.1,1.6,0,2.2,0.3c0.4,0.2,0.8,0.5,1.2,0.9c0.5,0.6,0.9,1.3,1.4,1.9
		c0.4,0.5,0.7,0.8,1.4,0.6c1.2-0.3,2.5-0.5,3.7-0.7c0.4-0.1,0.6-0.1,0.8-0.3c0.1-0.2,0.1-0.4,0-0.8c-0.2-1.3-0.3-2.7-0.3-4.1
		c0-1.6,0.1-3.3,0.1-4.9c0-1.2-0.2-2.4-0.4-3.6c0-0.1,0-0.2-0.1-0.4c-0.1-1.1-0.3-2.1-0.6-3.2c-0.3-0.9-0.6-1.9-1-2.8
		c0,0,0-0.1-0.1-0.2c-0.2-0.4-0.6-0.7-0.9-1.1c0.3,0.3-0.4,2.4-0.5,2.7c-0.1,0.3-0.2,0.6-0.3,0.8c-0.2,0.7-0.4,1.3-0.7,2
		c-0.6,1.4-1.3,2.7-2.2,3.9c-0.3,0.4-0.6,0.7-0.9,1.1c-1.1,1.4-2.4,2.5-3.7,3.4C307.9,49.4,306,50.3,303.9,51.1z"/>
	<path class="st0" d="M304.9,39.8c-0.1,0.1-0.2,0.3-0.3,0.4c-0.8,1.1-1.2,2.4-0.8,3.7c0.4,1.7,0.5,2.2,2.4,2c0.7-0.1,1.3-0.3,2-0.4
		c0,0,0,0.1,0.1,0.1c-0.9,0.6-1.7,1.3-2.6,2c0.1,0.4,0.2,0.8,0.3,1.4c1.8-1.3,3.7-2.2,5.4-3.7c-0.6-0.2-1-0.4-1.4-0.5
		c-1.2-0.3-2.2-0.9-2.4-2.3c-0.1-0.6-0.1-1.3,0-1.9c0.2-1.2,0.6-2.4,0.9-3.7c-0.2,0.1-0.5,0.2-0.7,0.3
		C306.5,37.7,305.7,38.8,304.9,39.8z"/>
	<path class="st0" d="M324,36.5c-0.2-0.8-0.6-1.6-1-2.3c-0.4-0.8-0.9-1.5-1.4-2.2c-0.2-0.3-0.4-0.5-0.6-0.8c-0.7-0.8-1.4-1.6-2.4-2
		c-0.7-0.3-2.7-0.1-3.4,0.7c-0.2,0.2-0.2,0.5-0.2,0.8c0.2,1,2,1.2,2.7,1.7c0.8,0.6,1.4,1.2,1.9,2c0.4,0.6,0.8,1.2,1,1.9
		c0.1,0.2,0.2,0.4,0.2,0.6c0.4,1.1,0.6,2.2,0.8,3.4c0.1,1.2,0.2,2.4,0.2,3.6c0,2-0.1,3.9,0,5.9c0.1,1.4,0.1,3.1,0.8,4.4
		c0.1,0.2,0.3,0.5,0.5,0.7c-0.1-0.1,0.1-0.5,0.1-0.7c0,0,0,0,0,0c0-0.2,0-0.4-0.1-0.6c0-0.2-0.1-0.4-0.1-0.5
		c-0.2-1.4-0.4-2.9-0.3-4.4c0.1-1.3,0.6-2.5,1-3.8c0.6-2.5,0.9-5.2,0.3-7.7C324.1,36.8,324,36.6,324,36.5z"/>
	<path class="st0" d="M314.2,32.2c-0.2-0.2-0.4-0.4-0.5-0.3c0,0,0,0,0,0c-0.1,0.2-0.3,0.3-0.4,0.5c-0.1,0.2-0.3,0.4-0.4,0.6
		c-0.1,0.2-0.2,0.3-0.3,0.4c-0.5,0.6-1,1.1-1.5,1.7c-0.1,0.1-0.1,0.2-0.2,0.3c-1.2,1.6-2.1,3.9-2.2,5.9c0,0.6,0.1,1.2,0.5,1.6
		c0.5,0.6,1.3,0.9,2,0.8c1.3-0.1,2.4-1.1,3.1-2.1c0.2-0.2,0.3-0.4,0.4-0.6c0.2-0.4,0.4-0.8,0.4-1.3c-0.1-0.5-0.6-0.9-1.1-0.9
		c-0.5,0-1,0.2-1.3,0.6c0,0,0,0,0,0c-0.5,0.7-0.2,1.4-0.1,2.1c-0.3-0.1-0.5-0.3-0.6-0.6c-0.1-0.3-0.2-0.6-0.2-0.9
		c0-0.8,0.2-1.6,0.5-2.3c0.1-0.2,0.2-0.3,0.3-0.5c0.2-0.3,0.5-0.5,0.8-0.7c0.4-0.1,0.8-0.1,1.2,0.2c0.4,0.3,0.6,0.9,0.8,1.3
		c0,0,0,0,0,0c0.2,0.1,0.3,0.1,0.4-0.1c0,0,0,0,0-0.1v0l0,0l0,0c0.3-0.9,0.6-1.9,0.8-2.8c0.2-0.6,0.9-1.9-0.2-2.1
		c-0.2,0-0.4,0-0.6,0c-0.4,0-0.9-0.2-1.3-0.4C314.5,32.6,314.3,32.4,314.2,32.2z"/>
	<path class="st0" d="M301.6,34.9c-1.2,0.7-2.3,1.6-3.1,2.8c-0.5,0.7-1,1.5-1.3,2.3c-1.1,2.8-1.2,5.9-0.9,8.9c0.3,3,1.1,5.9,1.5,8.9
		c0.1,1.1,0.2,2.3,0.7,3.3c0.2,0.6,0.6,1.1,1.1,1.5c0.6,0.6,1.4,0.9,2.2,1.1c0.8,0.1,1.7,0.1,2.4-0.3c0.1,0,0.2-0.1,0.3-0.2
		c0.7-0.6,1.3-1.3,2-1.9c0,0,0,0,0.1,0c0.6-0.5,1.3-1,1.9-1.5c0.5-0.4,1-0.7,1.5-1.1c-0.2-0.1-0.3-0.2-0.4-0.2
		c-0.3-0.1-0.5-0.2-0.8-0.3c-0.8-0.3-1.7-0.6-2.5-0.9c-0.8-0.3-1.6-0.6-2.3-0.9c-0.6-0.2-1.1-0.5-1.7-0.8c-0.6-0.3-1.3-0.7-1.5-1.4
		c-0.3-0.7-0.1-1.6,0.4-2.3c0-0.1,0.1-0.1,0.1-0.2c0.6-0.7,1.5-0.8,2-1.5c0,0,0,0,0-0.1c0.5-0.7,0.5-1.6,0.2-2.4
		c-0.3-1-1.1-1.9-1.5-2.9c-0.6-1.3-0.6-2.7-0.3-4.1c0.2-0.6,0.4-1.1,0.7-1.5c0.5-0.7,1.1-1.2,1.8-1.9c0.1-0.1,0.3-0.3,0.4-0.4
		c0.3-0.4,0.5-0.8,0.5-1.2C305.5,32.8,302.7,34.2,301.6,34.9z"/>
	<path class="st0" d="M321.8,71.7c-1.7,0.2-3.4,0.2-5.1,0.1c-0.2,0-0.4,0-0.7,0c-0.9-0.1-1.9-0.2-2.8-0.3c-0.6-0.1-1.1-0.2-1.7-0.2
		c-0.4,0-0.9-0.1-1.1,0.3c0,0.1-0.1,0.1-0.1,0.2c-0.7,1.7-1.4,3.5-1.6,5.3c0,0.1,0,0.3,0,0.4c-0.1,0.9-0.1,1.8,0.2,2.7c0,0,0,0,0,0
		c0.1,0.2,0.2,0.3,0.4,0.4c0.1,0.1,0.2,0.1,0.4,0.2c0.3,0.1,0.6,0.1,0.8,0l0,0c0.1,0,0.3-0.1,0.4-0.1c0.8-0.3,1.6-0.7,2.3-1l0,0
		c0.1,0,0.1-0.1,0.2-0.1c1.3-0.7,2.6-1.3,3.9-1.9c0,0,0,0,0,0c1.5-0.7,2.9-1.4,4.5-1.4c0.2,0,0.3,0,0.5,0c0,0,0,0,0,0
		c2.3-0.3,4.7-0.2,7-0.3c2-0.1,3.5-1,4.6-2.5c0.2-0.3,0.4-0.6,0.6-1c0.9-1.7,1.5-3.6,2.3-5.4c0,0-0.1-0.1-0.1-0.1
		c-1.3,0.7-2.6,1.4-4,2C329.2,70.3,325.6,71.3,321.8,71.7z"/>
	<path class="st0" d="M328.7,23.8c-0.1-0.2-0.1-0.3-0.2-0.5c-0.1-0.1-0.1-0.3-0.2-0.4l0,0c-0.6-1.4-1.4-2.7-2.6-3.7
		c-1.9-1.6-4.8-2.3-6.9-1c-2.9,1.8-5.8,4-8.2,6.4c-0.8,0.8-1.6,1.7-2.3,2.7c-1.6,2.2-2.6,4.9-0.8,7.3c0.1,0.2,0.6-0.2,1.1-0.8
		c0.6-0.6,1.2-1.5,1.6-2c0.2-0.2,0.3-0.4,0.3-0.4c0.7-1.4,0.8-2.9,1.7-4.2c0.1-0.2,0.3-0.4,0.4-0.7c0.9-1.3,2.1-2.3,3.6-2.8
		c1.5-0.5,3.1-1,4.7-1.5c0.2-0.1,0.3,0,0.7,0c-0.5,0.4-0.8,0.7-1.2,1c-1.2,0.7-2.4,1.2-3.5,2c-0.7,0.5-1.1,1.2-1.6,1.9
		c0.4,0.2,0.6,0.1,1.1,0.1c0.5,0,1,0,1.5,0.1c1,0.1,1.9,0.5,2.7,1c0.9,0.5,1.6,1.3,2.2,2.1c0,0,0,0,0,0c0.5,0.8,0.8,1.6,1.2,2.5
		c0.1,0.2,0.1,0.3,0.2,0.5c0.4,0.7,0.7,1.4,1.1,2c0,0,0.1,0.1,0.1,0.1c0.8,1.3,2.1,1.7,3.4,2.1c0.2,0.1,0.5,0.1,0.8,0.2
		c-0.6-1-1.2-1.9-1.6-2.9c-0.3-0.7-0.5-1.4-0.7-2.2c-0.1-0.4-0.2-0.7-0.3-1.1c-0.2-0.6-0.4-1.2-0.6-1.9c-0.3-0.9-0.7-1.7-1.3-2.4
		c-0.2-0.3-0.4-0.5-0.6-0.8c-0.5-0.5-1.1-1.2-0.6-1.9c0,0,0,0,0,0c0.9,0.4,1.6,0.7,2.2,1.3c0,0,0,0,0.1,0c0,0,0,0,0-0.1v0
		c0,0,0,0,0.1,0c0.7,0.5,1.1,1.3,1.4,2.1c0,0,0,0,0,0c0.4,1,0.5,2.2,0.8,3.2c0,0,0,0,0,0c0.5,2,1.3,3.9,2.3,5.7
		c0.1,0.3,0.3,0.5,0.4,0.7c0.5,0.9,1.1,1.7,1.8,2.5c0.1,0.1,0.2,0.3,0.3,0.4c0.4,0.5,0.8,0.9,1.2,1.4c0.1,0.1,0.1,0.2,0.2,0.2
		c0.3,0.4,0.6,0.9,1,1c0.1-0.1-0.1-0.5-0.2-0.6c-0.2-0.3-0.3-0.6-0.5-1c-0.3-0.7-0.7-1.3-0.9-2c-0.1-0.2-0.2-0.5-0.3-0.7
		c-0.8-2.1-1.6-4.1-2.4-6.2c-0.5-1.3-0.9-2.6-1.2-3.9c-0.3-1-0.5-2-0.8-3c0,0,0,0,0,0v0C329.2,25,329,24.4,328.7,23.8z"/>
	<path class="st0" d="M339.9,61.3c2.2-3,3.3-7.1,2.1-10.3c-0.4-1-2.1-3.2-3.5-2.8c-0.2,0-0.3,0.1-0.5,0.2c-2.7,2.2-5.6,3.9-8.7,5.3
		c-1.4,0.7-2.9,1.2-4.4,1.8c-1.5,0.5-2.9,1-4.4,1.4c-2,0.6-4,1.2-6,1.7c-1,0.3-1.9,0.7-2.8,1.1c-2,0.9-3.8,2-5.4,3.4
		c-0.9,0.8-1.7,1.6-2.4,2.5c-0.5,0.7-0.9,1.5-1.3,2.3c-0.3,0.7-0.4,1.2-0.3,1.9c1.2-0.7,2.2-1.7,3.3-2.6c1.1-0.9,2.2-1.8,3.4-2.7
		c1.4-1,2.9-2,4.4-2.8c0.8-0.4,1.6-0.7,2.4-1c0.7-0.2,1.4-0.3,2.1-0.4c0.1,0,0.3,0,0.4-0.1c0.2,0,0.4-0.1,0.4,0.1c0,0,0,0,0,0
		c-0.1,0.1-0.9,0.4-1.3,0.6c-0.1,0-0.1,0.1-0.2,0.1c-0.5,0.2-1,0.5-1.4,0.8c-1,0.5-1.9,1.1-2.8,1.7c-1.8,1.2-3.4,2.5-5,3.9
		c-0.3,0.3-0.8,0.9-1.2,0.9c0.1,0.1,0.1,0.1,0.2,0.1c0,0,0,0,0,0c1.5,0.4,3,0.5,4.5,0.6c0.6,0,1.2,0.1,1.8,0.1c0.4,0,0.8,0,1.2,0
		c1,0,2.1,0,3.1,0c0.6,0,1.2-0.1,1.8-0.1c2.1-0.1,4.1-0.4,6.2-0.8c1-0.2,2.1-0.4,3.1-0.7c1-0.2,1.9-0.6,2.8-0.9
		c2-0.6,3.8-1.6,5.5-2.8C338.2,63.4,339.1,62.5,339.9,61.3z"/>
	<path class="st0" d="M308.5,161.9c0.4-0.1,0.7-0.2,1.1-0.3c1.7-0.4,3.3-0.9,5-1.4c0.5-0.2,1.1-0.3,1.6-0.5c0.9-0.3,1.7-0.6,2.4-1.2
		c0.2-0.2,0.4-0.3,0.6-0.5c0.4-0.4,0.7-0.9,0.9-1.4c0.3-0.8,0.2-1.6,0.1-2.3c-0.1-0.4-0.2-0.8-0.3-1.1c-0.2-0.6-0.4-1.1-0.7-1.6
		c-0.4-0.8-0.9-1.6-1.5-2.4c-0.2-0.3-0.4-0.5-0.7-0.8c-0.9-1-3-3.1-4.4-3c-0.2,0-0.3,0.1-0.4,0.2c-0.2,0.2-0.1,0.5-0.2,0.9
		c-0.5,2.4-1.7,4.7-2.7,6.9c-0.3,0.6-1.3,3.9-1.5,6.2C307.4,161,307.6,162.1,308.5,161.9z"/>
	<path class="st0" d="M322.9,155.4c2.5-0.7,3.9,0.7,4.8,2.9c0.1-0.1,0.2-0.2,0.2-0.2c1.3-2.5,1.4-5.2,1.8-7.9
		c0.2-1.4,0.4-2.9,0.8-4.3c0.4-1.5,0.9-3,1.5-4.4c0.6-1.2,1.2-2.4,1.9-3.6c0.5-0.8,0.3-1.4-0.5-1.7c0,0-0.1,0-0.2-0.1
		c-0.8-0.2-1.6-0.4-2.4-0.6c0,0-0.1,0-0.1,0c-1.7-0.4-3.4-0.3-5.2-0.2c-1.4,0.1-4.1,0.3-5.2,1.5c-0.2,0.2-0.4,0.5-0.5,0.8
		c-0.3,0.9-0.1,1.9,0.1,2.8c0.1,0.5,0.6,2.6,1.2,5c0.2,1,0.5,2.1,0.7,3.1c0.2,1.1,0.5,2.2,0.6,3.1
		C323,153.6,323.2,155.1,322.9,155.4C323,155.4,322.9,155.4,322.9,155.4z"/>
	<path class="st0" d="M293.3,157.7c0.9,0,1.6,0.2,2.3,0.6c0.4,0.3,0.8,0.6,1.1,1.1c0.5,0.7,0.8,1.4,1.2,2.2c0.3,0.5,0.6,1,1.4,0.9
		c1.3-0.2,2.7-0.2,4-0.2c0.4,0,0.7,0,0.8-0.2c0.1-0.1,0.2-0.4,0.2-0.9c0-1.4,0.1-2.9,0.3-4.3c0.2-1.7,0.6-3.4,0.8-5.1
		c0.1-1.2,0.1-2.5,0.2-3.8c0-0.1,0-0.3,0-0.4c0-1.1,0-2.3-0.2-3.4c-0.1-1-0.4-2-0.7-3c0-0.1,0-0.1,0-0.2c-0.2-0.5-0.5-0.9-0.8-1.3
		c0.2,0.3-0.8,2.4-0.9,2.8c-0.1,0.3-0.3,0.6-0.4,0.8c-0.3,0.7-0.7,1.3-1,1.9c-0.8,1.4-1.8,2.6-2.9,3.8c-0.3,0.4-0.7,0.7-1.1,1
		c-1.4,1.3-2.9,2.2-4.4,3c-2,1-4.1,1.6-6.4,2.2c-0.3,0.1-0.6,0.3-0.8,0.5c-0.4,0.4-0.7,1.1-0.5,1.6c0.3,0.8,0.8,1.5,1.5,1.9
		c0.1,0.1,0.2,0.1,0.3,0.2c0.8,0.5,1.5,0.9,2.3,1.3c0.1,0.1,0.3,0.1,0.4,0.2c0.7,0.4,1.4,0.8,2.1,1.2c0.6,0.4,1.2,0.7,1.9,1.1
		c0.1,0.1,0.3,0.1,0.4,0.1c1-0.2,2-0.4,3.1-0.6c-0.8-1.4-1.8-2.3-3-3c-0.8-0.5-1.7-0.9-2.7-1.2c-0.5-0.2-1-0.3-1.5-0.4
		c0.7-0.1,1.4-0.2,2.1-0.2C292.6,157.8,293,157.7,293.3,157.7z"/>
	<path class="st0" d="M289.4,143.6c-0.1,0.1-0.2,0.2-0.4,0.3c-1,1-1.6,2.3-1.4,3.7c0.2,1.8,0.2,2.4,2.2,2.4c0.7,0,1.4-0.1,2.1-0.1
		c0,0,0,0.1,0,0.1c-1,0.5-2,1.1-3,1.7c0,0.4,0,0.9,0,1.5c2.1-1.1,4.2-1.7,6.2-3c-0.6-0.3-1-0.5-1.4-0.7c-1.2-0.5-2.2-1.3-2.2-2.7
		c0-0.7,0-1.3,0.3-1.9c0.4-1.2,1-2.4,1.5-3.7c-0.3,0.1-0.5,0.1-0.7,0.2C291.3,141.7,290.4,142.7,289.4,143.6z"/>
	<path class="st0" d="M308.4,151.6c1-2.5,1.8-5.3,1.5-8.1c0-0.2,0-0.4-0.1-0.6c-0.1-0.9-0.4-1.7-0.7-2.6c-0.3-0.9-0.7-1.7-1.2-2.5
		c-0.2-0.3-0.3-0.6-0.5-0.9c-0.6-1-1.2-1.9-2.2-2.5c-0.7-0.4-2.8-0.5-3.6,0.3c-0.2,0.2-0.3,0.5-0.3,0.8c0,1,1.9,1.5,2.6,2.2
		c0.7,0.7,1.3,1.5,1.7,2.4c0.3,0.7,0.6,1.4,0.8,2.1c0,0.2,0.1,0.4,0.1,0.7c0.2,1.2,0.3,2.4,0.3,3.7c0,1.3-0.2,2.6-0.4,3.8
		c-0.3,2-0.7,4.1-0.9,6.1c-0.1,1.5-0.4,3.3,0.2,4.7c0.1,0.3,0.2,0.5,0.4,0.8c-0.1-0.1,0.2-0.6,0.2-0.7c0,0,0,0,0-0.1
		c0-0.2,0-0.5,0-0.7c0-0.2,0-0.4,0-0.6c0-1.5,0-3.1,0.4-4.6C307.2,154.1,307.9,152.9,308.4,151.6z"/>
	<path class="st0" d="M297.5,142.6c0.1-0.2,0.2-0.3,0.4-0.5c0.3-0.3,0.6-0.5,1-0.6c0.4-0.1,0.9,0,1.2,0.3c0.4,0.4,0.5,1,0.7,1.5
		c0,0,0,0,0,0c0.1,0.2,0.3,0.1,0.4,0c0,0,0,0,0.1-0.1v0l0,0c0,0,0,0,0,0c0.5-0.9,0.9-1.9,1.3-2.8c0.3-0.6,1.2-1.9,0.1-2.2
		c-0.2-0.1-0.5-0.1-0.7-0.1c-0.5-0.1-0.9-0.3-1.3-0.6c-0.1-0.1-0.3-0.3-0.4-0.6c-0.2-0.2-0.4-0.4-0.5-0.4h0
		c-0.2,0.1-0.3,0.3-0.5,0.4c-0.2,0.2-0.3,0.4-0.5,0.6c-0.1,0.1-0.3,0.3-0.4,0.4c-0.6,0.5-1.2,1-1.8,1.6c-0.1,0.1-0.2,0.2-0.2,0.3
		c-1.5,1.5-2.8,3.8-3.1,5.9c-0.1,0.6,0,1.2,0.3,1.8c0.4,0.7,1.2,1.1,2,1.1c1.4,0.1,2.6-0.8,3.6-1.8c0.2-0.2,0.4-0.4,0.5-0.6
		c0.3-0.4,0.6-0.8,0.6-1.3c0-0.5-0.5-1-1-1.1c-0.5-0.1-1,0.1-1.4,0.5c0,0,0,0,0,0c-0.6,0.7-0.5,1.4-0.4,2.2
		c-0.3-0.1-0.5-0.4-0.6-0.7c-0.1-0.3-0.1-0.6,0-0.9C296.7,144.1,297,143.3,297.5,142.6z"/>
	<path class="st0" d="M279.5,165c0.2,0.7,0.5,1.2,0.9,1.7c0.6,0.7,1.3,1.2,2.2,1.4c0.8,0.3,1.7,0.3,2.6,0.1c0.1,0,0.2-0.1,0.3-0.1
		c0.8-0.6,1.6-1.2,2.4-1.7c0,0,0,0,0.1,0c0.7-0.5,1.5-0.9,2.2-1.3c0.6-0.3,1.1-0.6,1.7-0.9c-0.2-0.2-0.3-0.3-0.3-0.3
		c-0.3-0.2-0.5-0.3-0.8-0.4c-0.8-0.4-1.6-0.9-2.5-1.3c-0.8-0.4-1.5-0.9-2.3-1.3c-0.6-0.4-1.1-0.7-1.7-1.1c-0.6-0.4-1.2-0.9-1.4-1.7
		c-0.2-0.8,0.1-1.7,0.7-2.3c0.1-0.1,0.1-0.1,0.2-0.2c0.7-0.6,1.7-0.6,2.3-1.3c0,0,0,0,0.1-0.1c0.6-0.6,0.7-1.7,0.6-2.5
		c-0.2-1.1-0.8-2.1-1.1-3.2c-0.4-1.4-0.3-3,0.3-4.3c0.3-0.7,0.6-1.1,1-1.5c0.6-0.6,1.3-1,2.2-1.7c0.2-0.1,0.3-0.2,0.4-0.4
		c0.3-0.3,0.6-0.8,0.7-1.2c0.6-2.8-2.4-1.7-3.8-1.2c-1.4,0.5-2.6,1.4-3.6,2.4c-0.6,0.7-1.2,1.4-1.7,2.2c-1.6,2.8-2.1,6-2.2,9.2
		c-0.1,3.2,0.2,6.4,0.2,9.5C279.3,162.6,279.2,163.8,279.5,165z"/>
	<path class="st0" d="M287.6,186.3c0.1,0.2,0.2,0.4,0.4,0.5c0.1,0.1,0.2,0.2,0.3,0.2c0.3,0.1,0.6,0.2,0.9,0.2l0,0
		c0.2,0,0.3,0,0.5-0.1c0.9-0.2,1.7-0.5,2.6-0.7h0c0.1,0,0.1,0,0.2-0.1c1.4-0.5,2.9-1,4.4-1.4c0,0,0,0,0,0c1.6-0.5,3.2-1,5-0.8
		c0.2,0,0.3,0,0.5,0.1h0c2.5,0,4.9,0.5,7.4,0.7c2.1,0.2,3.8-0.5,5.1-1.9c0.3-0.3,0.5-0.6,0.8-0.9c1.2-1.7,2.1-3.5,3.2-5.3
		c0,0-0.1-0.1-0.1-0.1c-1.5,0.5-2.9,1.1-4.4,1.5c-3.9,1-7.9,1.6-11.9,1.4c-1.8-0.1-3.6-0.3-5.4-0.6c-0.2,0-0.5-0.1-0.7-0.2
		c-1-0.2-1.9-0.5-2.9-0.8c-0.6-0.2-1.1-0.3-1.7-0.5c-0.4-0.1-0.9-0.3-1.2,0.1c0,0.1-0.1,0.1-0.1,0.2c-1,1.7-1.9,3.4-2.4,5.3
		c0,0.1-0.1,0.3-0.1,0.4C287.6,184.4,287.4,185.3,287.6,186.3C287.6,186.3,287.6,186.3,287.6,186.3z"/>
	<path class="st0" d="M321,151.6c0.1-0.1,0-0.5-0.1-0.7c-0.1-0.4-0.2-0.7-0.4-1.1c-0.3-0.7-0.5-1.5-0.7-2.2
		c-0.1-0.3-0.1-0.5-0.2-0.8c-0.6-2.3-1.1-4.5-1.6-6.8c-0.3-1.4-0.5-2.9-0.7-4.3c-0.1-1.1-0.2-2.2-0.4-3.3c0,0,0,0,0,0h0
		c-0.1-0.7-0.2-1.4-0.4-2c0-0.2-0.1-0.4-0.1-0.5c0-0.2-0.1-0.3-0.1-0.4l0,0c-0.4-1.5-1.1-3-2.1-4.2c-1.7-2-4.6-3.1-7.1-2.1
		c-3.3,1.4-6.6,3.3-9.5,5.5c-0.9,0.7-1.9,1.5-2.8,2.4c-2,2.1-3.5,4.7-1.9,7.5c0.1,0.2,0.6-0.1,1.2-0.6c0.7-0.6,1.5-1.4,2-1.8
		c0.2-0.2,0.3-0.3,0.4-0.4c0.9-1.3,1.3-2.9,2.4-4.2c0.2-0.2,0.4-0.4,0.6-0.6c1.1-1.2,2.5-2.1,4.2-2.4c1.7-0.3,3.4-0.6,5.1-0.9
		c0.2,0,0.3,0,0.7,0.1c-0.6,0.4-1,0.7-1.4,0.8c-1.3,0.5-2.7,0.9-4,1.6c-0.8,0.4-1.3,1.1-2,1.7c0.4,0.3,0.7,0.2,1.1,0.3
		c0.5,0,1,0.1,1.5,0.3c1,0.3,1.9,0.8,2.7,1.4c0.8,0.7,1.5,1.6,2,2.5c0,0,0,0,0,0c0.4,0.9,0.6,1.8,0.9,2.7c0,0.2,0.1,0.4,0.2,0.5
		c0.3,0.8,0.5,1.6,0.9,2.3c0,0.1,0,0.1,0.1,0.2c0.6,1.4,1.9,2.1,3.3,2.7c0.2,0.1,0.5,0.2,0.8,0.3c-0.5-1.1-1-2.1-1.2-3.3
		c-0.2-0.8-0.3-1.6-0.4-2.4c-0.1-0.4-0.1-0.8-0.2-1.2c-0.1-0.7-0.2-1.4-0.4-2c-0.2-0.9-0.5-1.9-1-2.7c-0.2-0.3-0.4-0.6-0.6-0.9
		c-0.5-0.6-0.9-1.4-0.3-2.1c0,0,0,0,0,0c0.9,0.6,1.5,1,2.1,1.6c0,0,0,0,0,0c0,0,0,0,0.1,0l0,0c0,0,0,0,0.1,0c0.7,0.6,1,1.5,1.2,2.4
		c0,0,0,0,0,0c0.2,1.1,0.2,2.4,0.3,3.4c0,0,0,0,0,0c0.3,2.1,0.8,4.3,1.6,6.3c0.1,0.3,0.2,0.6,0.4,0.8c0.4,1,0.9,1.9,1.5,2.8
		c0.1,0.2,0.2,0.3,0.3,0.5c0.3,0.5,0.7,1.1,1,1.6c0.1,0.1,0.1,0.2,0.2,0.3C320.4,150.8,320.7,151.3,321,151.6z"/>
	<path class="st0" d="M299.5,167.9c-0.1,0-0.2,0-0.2,0.1c-0.6,0.2-1.1,0.4-1.6,0.6c-1.1,0.4-2.1,0.9-3.2,1.4c-2,1-3.9,2.1-5.7,3.3
		c-0.3,0.2-0.9,0.8-1.4,0.8c0.1,0.1,0.1,0.1,0.2,0.1c0,0,0,0,0,0c1.5,0.6,3,1,4.6,1.3c0.6,0.1,1.3,0.2,1.9,0.4
		c0.4,0.1,0.9,0.1,1.3,0.2c1.1,0.2,2.1,0.3,3.2,0.4c0.6,0.1,1.3,0.1,1.9,0.2c2.2,0.1,4.4,0.2,6.6,0.1c1.1,0,2.2-0.1,3.3-0.2
		c1.1-0.1,2-0.3,3.1-0.5c2.1-0.4,4.2-1.1,6.1-2.1c1.2-0.6,2.3-1.5,3.3-2.5c2.7-2.8,4.5-6.9,3.7-10.5c-0.3-1.1-1.8-3.6-3.2-3.4
		c-0.2,0-0.4,0.1-0.5,0.2c-3.2,1.9-6.4,3.3-9.8,4.3c-1.6,0.5-3.2,0.9-4.9,1.2c-1.6,0.3-3.2,0.6-4.8,0.9c-2.2,0.3-4.4,0.6-6.6,0.9
		c-1,0.2-2.1,0.5-3.1,0.8c-2.2,0.6-4.3,1.5-6.2,2.8c-1,0.7-2,1.4-2.8,2.3c-0.6,0.7-1.2,1.4-1.7,2.2c-0.4,0.7-0.6,1.2-0.6,2
		c1.3-0.5,2.6-1.5,3.8-2.2c1.3-0.8,2.6-1.6,3.9-2.3c1.6-0.9,3.3-1.7,5-2.3c0.9-0.3,1.8-0.5,2.7-0.7c0.8-0.1,1.5-0.1,2.2-0.1
		c0.1,0,0.3,0,0.4,0c0.2,0,0.4-0.1,0.4,0.2c0,0,0,0,0,0C300.7,167.6,299.9,167.8,299.5,167.9z"/>
	<path class="st0" d="M188.9,133.4c0.7,0.7,1.3,1.1,1.5,0.5c0.1-0.2,0.2-0.5,0.3-0.7c0.5-1,1-2,1.4-3.1c0.2-0.3,0.3-0.7,0.4-1
		c0.2-0.5,0.4-1.1,0.4-1.7c0-0.2,0-0.4,0-0.5c0-0.4-0.1-0.7-0.3-1c-0.3-0.5-0.7-0.8-1.1-1c-0.2-0.1-0.4-0.2-0.7-0.3
		c-0.4-0.1-0.7-0.2-1.1-0.3c-0.6-0.1-1.2-0.2-1.8-0.2c-0.2,0-0.5,0-0.7,0c-0.9,0-2.8,0.2-3.4,0.9c-0.1,0.1-0.1,0.2-0.1,0.3
		c0,0.2,0.2,0.3,0.4,0.5c1,1.3,1.6,2.8,2.3,4.3C186.7,130.4,187.9,132.3,188.9,133.4z"/>
	<path class="st0" d="M193.7,118.4c-0.6-0.7-1.2-1.4-1.8-2.2c-0.6-0.8-1.1-1.7-1.6-2.6c-0.4-0.8-0.7-1.6-1-2.5
		c-0.2-0.6-0.5-0.8-1.1-0.5c0,0-0.1,0-0.1,0.1c-0.5,0.3-0.9,0.6-1.3,0.9c0,0,0,0,0,0c-0.9,0.7-1.6,1.6-2.3,2.5
		c-0.6,0.7-1.6,2.2-1.5,3.2c0,0.2,0.1,0.4,0.2,0.6c0.3,0.5,0.9,0.8,1.5,1.1c0.3,0.1,1.5,0.8,3,1.6c0.6,0.3,1.2,0.6,1.9,1
		c0.6,0.3,1.3,0.7,1.8,1c1.2,0.7,2,1.2,2,1.4c0,0,0,0,0,0c0.7-1.5,2-1.6,3.5-1.2c0-0.1,0-0.2,0-0.2
		C196.1,121,194.9,119.7,193.7,118.4z"/>
	<path class="st0" d="M178.4,143.5c0.5,0.2,1.1,0.3,1.6,0.1c0.1,0,0.1,0,0.2-0.1c0.6-0.2,1.1-0.4,1.6-0.6c0.1,0,0.2-0.1,0.3-0.1
		c0.5-0.2,1-0.3,1.5-0.5c0.4-0.2,0.9-0.3,1.3-0.5c0.1,0,0.2-0.1,0.2-0.1c0.3-0.6,0.7-1.2,1-1.8c-1-0.2-1.9-0.1-2.8,0.2
		c-0.6,0.2-1.2,0.5-1.7,0.8c-0.3,0.2-0.6,0.4-0.8,0.5c0.2-0.4,0.5-0.8,0.8-1.1c0.1-0.2,0.3-0.4,0.4-0.5c0.4-0.4,0.8-0.7,1.3-0.9
		c0.3-0.1,0.7-0.1,1-0.1c0.5,0.1,1,0.2,1.6,0.3c0.4,0.1,0.7,0.1,1-0.3c0.5-0.7,1-1.4,1.6-2.1c0.2-0.2,0.3-0.4,0.3-0.5
		c0-0.1-0.1-0.2-0.4-0.5c-0.7-0.6-1.4-1.3-2-2c-0.8-0.8-1.4-1.8-2.2-2.6c-0.6-0.6-1.2-1.1-1.8-1.7c-0.1-0.1-0.1-0.1-0.2-0.2
		c-0.6-0.5-1.2-1-1.8-1.4c-0.6-0.4-1.2-0.7-1.8-1c0,0-0.1,0-0.1,0c-0.3-0.1-0.6-0.1-1-0.1c0.3,0,0.9,1.4,1,1.7
		c0.1,0.2,0.2,0.4,0.2,0.5c0.2,0.4,0.4,0.9,0.5,1.3c0.3,1,0.5,2,0.6,3.1c0,0.3,0.1,0.6,0.1,1c0,1.2-0.1,2.4-0.4,3.5
		c-0.4,1.4-0.9,2.7-1.7,4.1c-0.1,0.2-0.1,0.4-0.1,0.6C177.8,143,178.1,143.4,178.4,143.5z"/>
	<path class="st0" d="M177.9,140c0.4-1.5,0.9-2.8,1.1-4.4c-0.4,0.2-0.7,0.3-0.9,0.4c-0.8,0.4-1.6,0.5-2.3-0.1
		c-0.3-0.3-0.6-0.6-0.9-1c-0.4-0.7-0.8-1.5-1.2-2.4c-0.1,0.2-0.2,0.3-0.2,0.4c-0.3,0.8-0.2,1.7-0.2,2.6c0,0.1,0,0.2,0,0.3
		c0.1,0.9,0.5,1.7,1.2,2.3c1,0.7,1.2,0.9,2.1-0.1c0.3-0.3,0.6-0.8,0.8-1.1c0,0,0,0,0.1,0c-0.2,0.7-0.3,1.5-0.5,2.2
		C177.3,139.5,177.6,139.7,177.9,140z"/>
	<path class="st0" d="M182,125.5c-0.1-0.1-0.2-0.1-0.3-0.2c-0.5-0.3-1-0.6-1.6-0.8c-0.6-0.2-1.2-0.4-1.7-0.5c-0.2,0-0.4-0.1-0.6-0.1
		c-0.7-0.1-1.5-0.2-2.1,0c-0.5,0.2-1.5,1.2-1.4,1.9c0,0.2,0.1,0.3,0.3,0.5c0.5,0.4,1.6-0.3,2.2-0.4c0.6-0.1,1.3,0,1.9,0.2
		c0.5,0.1,0.9,0.3,1.4,0.5c0.1,0.1,0.3,0.1,0.4,0.2c0.7,0.4,1.3,0.9,1.9,1.4c0.6,0.6,1.2,1.2,1.7,1.8c0.9,1,1.7,2.1,2.7,3
		c0.7,0.7,1.5,1.6,2.4,1.9c0.2,0.1,0.4,0.1,0.5,0.1c-0.1,0-0.2-0.3-0.2-0.4c0,0,0,0,0,0c-0.1-0.1-0.2-0.2-0.3-0.3
		c-0.1-0.1-0.2-0.1-0.3-0.2c-0.8-0.6-1.6-1.3-2.1-2.1c-0.5-0.7-0.8-1.6-1.2-2.4C184.5,128.1,183.5,126.5,182,125.5z"/>
	<path class="st0" d="M178.2,129.7c-0.2-0.6-0.6-1.2-0.9-1.8c-0.2-0.4-0.4-1.4-1.1-1c-0.1,0.1-0.2,0.2-0.3,0.3
		c-0.2,0.2-0.5,0.3-0.8,0.4c-0.1,0-0.3,0-0.5,0c-0.2,0-0.4,0-0.4,0.1c0,0,0,0,0,0c0,0.1,0,0.3,0,0.4c0,0.2,0,0.3,0,0.5
		c0,0.1,0,0.2,0,0.4c0,0.5,0,1,0,1.6c0,0.1,0,0.1,0,0.2c0.1,1.4,0.7,3,1.6,4.1c0.3,0.3,0.6,0.6,1,0.6c0.5,0.1,1-0.1,1.4-0.5
		c0.6-0.7,0.7-1.6,0.7-2.5c0-0.2,0-0.4-0.1-0.5c-0.1-0.3-0.2-0.6-0.4-0.8c-0.3-0.2-0.7-0.2-1,0c-0.3,0.2-0.4,0.6-0.4,0.9
		c0,0,0,0,0,0c0.1,0.6,0.5,0.8,0.9,1.1c-0.2,0.1-0.4,0.1-0.6,0c-0.2-0.1-0.4-0.2-0.5-0.4c-0.4-0.4-0.6-0.9-0.8-1.4
		c0-0.1-0.1-0.2-0.1-0.4c0-0.3,0-0.5,0.1-0.7c0.1-0.2,0.4-0.4,0.7-0.5c0.3,0,0.7,0.2,1,0.3c0,0,0,0,0,0
		C178.2,130,178.2,129.9,178.2,129.7C178.2,129.8,178.2,129.7,178.2,129.7C178.2,129.7,178.2,129.7,178.2,129.7L178.2,129.7
		C178.2,129.7,178.2,129.7,178.2,129.7z"/>
	<path class="st0" d="M169,137.5c0.1,0.6,0.2,1.2,0.4,1.8c0.7,2,2.1,3.6,3.6,5c1.5,1.4,3.3,2.6,4.8,4c0.6,0.5,1.2,1.1,1.9,1.4
		c0.4,0.2,0.8,0.3,1.2,0.3c0.6,0,1.1-0.2,1.6-0.5c0.5-0.3,0.9-0.7,1.1-1.3c0-0.1,0.1-0.1,0.1-0.2c0.1-0.6,0.1-1.3,0.2-1.9
		c0,0,0,0,0-0.1c0.1-0.6,0.2-1.1,0.3-1.7c0.1-0.4,0.2-0.8,0.3-1.2c-0.2,0-0.2,0-0.3,0c-0.2,0.1-0.4,0.1-0.6,0.2
		c-0.6,0.2-1.1,0.4-1.7,0.7c-0.6,0.2-1.1,0.4-1.6,0.6c-0.4,0.1-0.8,0.2-1.3,0.3c-0.5,0.1-1,0.2-1.4,0c-0.5-0.2-0.8-0.8-0.9-1.4
		c0-0.1,0-0.1,0-0.2c0-0.6,0.4-1.1,0.4-1.7c0,0,0,0,0-0.1c0-0.6-0.5-1.1-1-1.3c-0.6-0.4-1.4-0.5-2.1-0.8c-0.9-0.4-1.6-1.1-2-2
		c-0.2-0.4-0.3-0.8-0.3-1.1c-0.1-0.6,0-1.1,0.1-1.8c0-0.1,0-0.3,0-0.4c0-0.3-0.1-0.6-0.3-0.9c-1.1-1.5-1.9,0.5-2.2,1.3
		C169,135.6,168.9,136.5,169,137.5z"/>
	<path class="st0" d="M202.1,135.2c-0.4,0.9-0.7,1.9-1.1,2.8c-1.1,2.4-2.6,4.6-4.4,6.5c-0.8,0.9-1.7,1.7-2.6,2.4
		c-0.1,0.1-0.2,0.2-0.4,0.3c-0.5,0.4-1.1,0.7-1.6,1.1c-0.3,0.2-0.7,0.4-1,0.7c-0.2,0.2-0.5,0.3-0.5,0.7c0,0,0,0.1,0,0.2
		c0.4,1.2,0.9,2.4,1.6,3.5c0,0.1,0.1,0.1,0.2,0.2c0.4,0.5,0.8,1,1.3,1.3l0,0c0.1,0,0.3,0.1,0.4,0c0.1,0,0.2,0,0.3-0.1
		c0.2-0.1,0.3-0.2,0.5-0.4v0c0.1-0.1,0.1-0.2,0.2-0.3c0.3-0.5,0.5-1.1,0.8-1.6l0,0c0,0,0-0.1,0-0.1c0.4-0.9,0.7-1.9,1.1-2.8
		c0,0,0,0,0,0c0.4-1,0.9-2,1.7-2.8c0.1-0.1,0.2-0.2,0.2-0.2c0,0,0,0,0,0c1.1-1.2,2.3-2.2,3.5-3.4c1-1,1.4-2.1,1.3-3.4
		c0-0.3-0.1-0.5-0.1-0.8c-0.3-1.3-0.8-2.6-1.3-3.8C202.2,135.2,202.1,135.2,202.1,135.2z"/>
	<path class="st0" d="M179.5,117.2C179.5,117.2,179.5,117.2,179.5,117.2L179.5,117.2c-0.4-0.3-0.8-0.5-1.2-0.7
		c-0.1-0.1-0.2-0.1-0.3-0.2c-0.1,0-0.2-0.1-0.3-0.1l0,0c-1-0.4-2-0.7-3-0.7c-1.7,0-3.5,1-4,2.6c-0.7,2.2-1.2,4.7-1.3,7
		c0,0.7-0.1,1.6,0,2.4c0.2,1.9,0.9,3.7,2.9,4.1c0.1,0,0.2-0.4,0.2-0.9c0-0.6,0-1.3-0.1-1.8c0-0.2,0-0.3,0-0.4
		c-0.3-1-0.9-1.9-1.1-2.9c0-0.2-0.1-0.4-0.1-0.5c-0.1-1.1,0.1-2.1,0.6-3.1c0.6-1,1.2-1.9,1.7-2.9c0.1-0.1,0.2-0.2,0.3-0.3
		c-0.1,0.4-0.1,0.8-0.2,1c-0.3,0.9-0.7,1.7-0.9,2.6c-0.1,0.6,0,1.1,0,1.7c0.3-0.1,0.4-0.2,0.6-0.4c0.2-0.2,0.5-0.5,0.8-0.6
		c0.6-0.4,1.2-0.6,1.9-0.7c0.7-0.1,1.4-0.1,2.1,0.1c0,0,0,0,0,0c0.6,0.2,1.2,0.5,1.7,0.7c0.1,0,0.2,0.1,0.3,0.1
		c0.5,0.2,1,0.4,1.5,0.6c0,0,0.1,0,0.1,0c1,0.3,1.9-0.1,2.7-0.5c0.2-0.1,0.3-0.2,0.5-0.3c-0.7-0.2-1.5-0.4-2.2-0.8
		c-0.5-0.3-0.9-0.5-1.4-0.8c-0.2-0.1-0.4-0.3-0.7-0.4c-0.4-0.2-0.8-0.5-1.2-0.7c-0.6-0.3-1.1-0.5-1.7-0.7c-0.2-0.1-0.5-0.1-0.7-0.1
		c-0.5,0-1.1-0.1-1.2-0.7c0,0,0,0,0,0c0.7-0.2,1.1-0.4,1.7-0.4c0,0,0,0,0,0c0,0,0,0,0,0l0,0c0,0,0,0,0,0c0.6-0.1,1.2,0.1,1.7,0.4
		c0,0,0,0,0,0c0.7,0.4,1.3,0.9,1.8,1.3c0,0,0,0,0,0c1.2,0.8,2.4,1.4,3.8,1.9c0.2,0.1,0.4,0.1,0.6,0.2c0.7,0.2,1.4,0.3,2.1,0.5
		c0.1,0,0.2,0,0.4,0.1c0.4,0.1,0.8,0.1,1.2,0.2c0.1,0,0.1,0,0.2,0c0.3,0.1,0.7,0.1,1,0.1c0-0.1-0.3-0.2-0.4-0.2
		c-0.2-0.1-0.5-0.2-0.7-0.3c-0.5-0.2-0.9-0.4-1.4-0.6c-0.2-0.1-0.3-0.2-0.5-0.2c-1.4-0.7-2.7-1.4-4.1-2.1c-0.8-0.4-1.6-1-2.4-1.5
		C180.7,118,180.2,117.6,179.5,117.2z"/>
	<path class="st0" d="M194.6,124.7c-0.1,0.1-0.1,0.2-0.1,0.3c-0.4,2.4-1.1,4.6-2.1,6.7c-0.4,1-0.9,2-1.5,2.9
		c-0.5,0.9-1.1,1.8-1.6,2.8c-0.8,1.2-1.5,2.4-2.3,3.6c-0.4,0.6-0.7,1.2-0.9,1.9c-0.6,1.3-1.1,2.8-1.3,4.2c-0.1,0.8-0.1,1.6-0.1,2.4
		c0.1,0.6,0.2,1.2,0.4,1.8c0.2,0.5,0.3,0.8,0.7,1.1c0.3-0.9,0.4-1.9,0.5-2.8c0.2-1,0.3-1.9,0.5-2.9c0.2-1.2,0.6-2.4,1-3.5
		c0.2-0.6,0.5-1.1,0.8-1.6c0.3-0.4,0.6-0.8,0.9-1.1c0.1-0.1,0.1-0.1,0.2-0.2c0.1-0.1,0.2-0.3,0.2-0.1c0,0,0,0,0,0
		c0,0.1-0.3,0.6-0.4,0.9c0,0.1,0,0.1,0,0.1c-0.1,0.4-0.3,0.7-0.4,1.1c-0.3,0.7-0.5,1.4-0.7,2.2c-0.4,1.4-0.6,2.8-0.8,4.3
		c0,0.3,0,0.8-0.2,1c0.1,0,0.1,0,0.1,0c0,0,0,0,0,0c0.9-0.5,1.8-1.1,2.6-1.7c0.3-0.3,0.6-0.5,1-0.8c0.2-0.2,0.4-0.4,0.6-0.5
		c0.5-0.5,1.1-0.9,1.6-1.4c0.3-0.3,0.6-0.6,0.9-0.9c1-1,2-2.1,2.8-3.2c0.4-0.6,0.9-1.1,1.3-1.7c0.4-0.6,0.7-1.1,1.1-1.7
		c0.7-1.2,1.2-2.5,1.6-3.9c0.2-0.8,0.3-1.8,0.2-2.7c-0.2-2.5-1.5-5.2-3.6-6.3C197,124.3,195.1,123.9,194.6,124.7z"/>
	<path class="st0" d="M369.7,112c3.1-3.4,5-4,8.6-5.8c3.2-1.6,6.9-2.8,11.5-3.1c22.7-1.7,44.5,11.4,57.8,21.2
		c-1.8,0.4-4.5-1.7-6.9-3.1c-7-4-15.5-8.1-25.6-8.9c-14.9-1.1-30,8-31.6,21.6c-1,7.8,8.1,17.4,15.7,9.5c2.4-2.5,4.7-10.9-0.6-11.8
		c-1.7-0.3-4,0.5-4.5,3.2c7.5-1.6,5.3,7.8,1,8.8c-4.1,1-8.2-1.9-8.8-5.3c-1.8-11.7,13.4-20.2,23.2-21.4c4.3-0.5,9.7-0.3,13.6,0.2
		c1.7,0.2,3.4,0.5,5.1,0.9c-8.8,0.4-19.3,8.7-17.7,27.3c9.7-8.8,16.1-4.7,22.1-10.3c5.5-5,5.2-10,5.2-10s0.1-1.8-0.1-3.2
		c-3.5,1.8-16,8.2-20.5,13c0,0,7.6-9.5,18.8-14.3c7.8,3.2,14.3,8.2,20,14.3c-17.4,9.4-31.2,25.7-43.1,45.7
		c-4.9,8.1-10.1,16.1-17.5,20.8c-1.7,0.9-3.6,1.7-5.5,2.3c-1,0.3-2.3,0.6-3.8,0.8c-7.2,0-13.5-4.9-13.5-11.2
		c0-10.8,14.9-14.4,14.4-3.4c4.1,0.3,5.4-5.7,3.7-8.8c-4.6-8.6-17.5-3.8-20.2,4.4c-2.2,6.8,0.9,14.9,7.3,19
		c-6.1-0.9-12.5-3.9-15.6-11c-5.5-12.6,0.1-18.2,10.6-21.9c10.5-3.7,7.1-10.7,8.8-14.2c1.7-3.5,5.3-3,5.3-3
		c-3.5-5.1-12.2-6.2-19.3-3.1c10.5-11.5-0.5-24.8-0.5-24.8c-1.9,7.4-13.7,12.6-16.6,16c-2.8,3.4-1.2,10.6-1.2,10.6
		c-1.1-3-6.6-6.8-9.5-6.9c-3.9,21,4.7,37.9,15.8,48.6c-5-8.1-8.4-20.6,0.1-30.4c-8.1,25.9,9.1,37.5,10.1,38.2
		c4.5,2.6,8.9,4.2,12.6,4.7c3.1,0.4,6.2,0.2,8.9-0.3c11.3-0.3,18.3-10.9,25.3-20.2c0.4,6.8,2,12.9,9.1,16.2c0.1-3-2.2-5.2-2.8-8.7
		c-0.6-3.1-0.7-6.6,0.2-10.6c4.1-19.9,20.8-35.3,32.5-44.2c-0.1,1.6-2.6,3.5-4.3,5.2c-5.2,5-10.8,11.2-14,19.7
		c-4.7,12.5-0.6,27.6,10.6,32.4c6.4,2.7,16.9-2.7,12-11.1c-1.6-2.6-8.1-6.7-10.2-2.5c-0.7,1.4-0.5,3.5,1.7,4.6
		c0.5-6.8,8-2.6,7.8,1.4c-0.2,3.8-3.7,6.6-6.7,6.2c-10.5-1.3-14-16.5-12.5-25.1c0.7-3.8,2.2-8.4,3.6-11.6
		c4.1-9.5,10.8-16.3,18.7-21.2c6.6,7.7,11.8,16.6,16.1,25.2c-3-10-7.6-19-13.3-26.9c9.3-5.1,20-7.9,30-9.8
		c-11.9,0.1-22.4,2.7-31.9,7.3c-16.1-20.6-40.2-33.2-63.2-36.8C387.3,95.1,373.2,100.2,369.7,112z"/>
	<path class="st0" d="M89.9,152.3c-1.8,18.7,22.4,34.4,55.8,34.4c26.1,0,46-12.3,67.4-19.7c-20,10.5-26.2,27.2-26.2,27.2
		c-0.8,4.5,1.6,1.8,1.6,1.8c12.2-26.4,38.9-32.8,44.9-34c1.8-0.2,3.5-0.4,5.3-0.5c-1.6,0.8-3,1.8-4.3,3.2
		c-6.5,7.1-3.7,18.3,3.3,22.2c6.3,3.4,17-1.1,14.8-9c-0.8-2.8-5-5.7-7.3-3.2c6.5,6.4-4.5,12.7-10.8,6.2c-4.3-4.5-2.2-13.3,4.2-17
		c8.4-3.8,19.8-1.9,32.8,3.1c-0.7-1.7-2.9-2.9-8.4-4.7c-0.5-0.1-0.9-0.3-1.4-0.4c-0.2-0.1-0.3-0.1-0.6-0.2c-0.7-0.2-1.9-0.5-3.4-0.9
		c-1.8-0.4-3.6-0.8-5.3-1c-3.2-0.5-6.8-0.9-10.3-0.9c-0.8,0-1.6,0-2.4,0.1c-0.2-0.1-0.5-0.1-0.9-0.1c-15.5-1.3-30.4,4.2-48.5,6.2
		c-12.8,0.2-27.3-2.1-35.6-13.3c-8.9-12.1-6.7-23.2,0-25.7c1.9-0.7,4.7,0.5,5.4,3c0.8,2.6-3.6,6.6-4.9,2.2c-1.3,1.1-1,2.5-0.4,3.3
		c2.1,2.5,5.8-1.3,6.4-3.3c1.9-6.4-5.9-8.2-9.7-5.4c-6.6,5-6.7,15.9-1.6,24.1c6.3,10.1,16.4,14.7,27.5,15.8c-2.4,0-4.9-0.1-7.5-0.4
		c-10.2-0.9-23.3-7-23.3-7s3.9,9.2,22.9,10.9c20.1,1.8,39.1-6.5,57.5-8.7c-24.8,5.2-46.7,21.1-75.5,21.1c-30,0-46.7-17.3-53.8-26.3
		C90.7,146.4,89.9,152.3,89.9,152.3z"/>
	<path class="st0" d="M199.4,118.7c8.1,21,25.5,35.5,47.9,36.7c0,0-0.4-0.1-1-0.2c1.1-0.1,2-0.4,2.5-1c-3,0.1-6.8-1-10-3
		c-3.2-2-9.8-9.2-6.1-16.7c3.6-7.5,8.4-7.1,14.2-3.8c5.8,3.3,7.7-1,10-1.6c2.3-0.6,3.4,1.2,3.4,1.2c0.9-3.6-2-8.1-6.2-10
		c9.4,0.3,11.2-10,11.2-10c-4.1,2.1-11.2-1.3-13.9-1.3c-2.7,0-5.3,3.6-5.3,3.6c0.9-1.7,0.5-5.7-0.6-7.1
		c-11.1,6.5-15.5,17.1-16.1,26.4c1.7-5.5,6.1-12,13.9-11.9c-15.1,6.5-13.6,19-13.5,19.7c0.6,3.1,1.6,5.7,2.8,7.6
		c1.9,2.8,4.4,4.8,6.8,6.1c-5.2-1.5-11.9-4-16.8-7.6c-10.4-8.3-17.2-16.2-19.3-28.9c-1-6.4,1-10,2.2-12.1
		C195.5,109.8,199.4,118.7,199.4,118.7z"/>
	<path class="st0" d="M156.6,190.2c0,0-30.7,3.2-51.6-4.4c-24.2-9.9-41.5-21.1-52.3-43.9c-5.5-11.5-3.6-19.4-2.5-24.2
		c-14.2,12.9-7,25.6-4.8,28.8c-6.9-4.1-14.2-6.4-22.2-3.8C9.6,147.2,5,163,11.3,173.1c5.7,9.1,22.7,11.2,25.8-0.6
		c1.1-4.2-2.2-11.1-7.1-9.5c3.7,13.1-15.3,13.1-18.5,0.1c-2.2-9,6.7-18.1,17.7-18.2c9.8,0.9,18.1,6.3,25.8,13.1
		c2.8,3,5.8,5.8,8.9,8.5v0l0,0C89.5,188.5,122.4,198.3,156.6,190.2z"/>
	<path class="st0" d="M348.1,83.4c3.6,4.2,8.4,5.5,13.7,5.6c-2.3,1-10.7,5.6-7.3,17.7c1.1-3,2.7-8,9.8-12.6
		c13.9-9,27.4-9.2,44.3-6.3c14.3,3,30.2,15.4,30.2,15.4c-16.2-16.3-37.9-22.3-59.7-18.9l0,0c0,0,0,0,0,0c-2.6,0.4-5.3,1-7.9,1.6
		c-6.6,1.1-13.2,1.2-18.9-1.7c-6.1-3.8-7.9-12-3.6-16.2c6.3-6.1,16.8,0.5,10.2,6.4c2.2,2.5,6.4-0.1,7.3-2.8
		c2.4-7.6-7.8-12.4-14.1-9.3C345,65.9,342,76.3,348.1,83.4z"/>
	<path class="st0" d="M320.6,176.4c3.9,2.5,7.7,1.8,7.7,1.8l4.3,3.7c5.9,0,11.7,4,11.7,4c-2.7-4-4.7-9.2-5.1-10.5l-6-5.1
		c0-5.1-3.3-9.3-3.3-9.3s0.3,2.9-1.2,7.1C326.6,173.6,320.6,176.4,320.6,176.4z"/>
	<path class="st0" d="M653.3,192.7c0,0-1.6,2.5-2.1,4.2c13.1-4.4,26.8-1.9,26.8-1.9c-7.1-0.7-22.3,3-26.5,4c0.8,1.3,2.2,2.7,2.2,2.7
		s3.4,4.3,11.6,4.5c9,0.3,11.4-7.7,25.8-7.4C676.9,179.3,658.9,183.7,653.3,192.7z"/>
	<path class="st0" d="M745.7,89.5c-24.1,20-60.7,14.1-90.1,5c36.2,15.7,75.7,19.4,101.1-5.9c13.9-13.9,17.7-36.2,5-50.1
		c-7.3-7.9-24.9-8.5-23,5.6c0.6,4.4,7.3,14.1,12.7,10.3c1.7-1.3,2.8-4.1,0.4-7c-4.6,8.2-12.6-2.4-10-7.2c2.5-4.6,8.9-5.7,12.8-3.1
		C768.4,45.9,769.3,69.8,745.7,89.5z"/>
	<path class="st0" d="M674.1,38.5c-0.1-0.1-0.2-0.2-0.4-0.2c-1.4-0.3-3.6,1.4-4.6,2.2c-0.3,0.2-0.5,0.4-0.8,0.7
		c-0.7,0.6-1.2,1.3-1.7,2c-0.3,0.5-0.6,0.9-0.9,1.4c-0.2,0.3-0.3,0.7-0.4,1c-0.2,0.7-0.4,1.5-0.2,2.2c0.1,0.5,0.3,1,0.6,1.5
		c0.1,0.2,0.3,0.4,0.5,0.6c0.6,0.6,1.3,1.1,2.1,1.4c0.5,0.2,1,0.5,1.5,0.7c1.5,0.7,3,1.4,4.5,2c0.3,0.1,0.7,0.3,1,0.4
		c0.8,0.3,1.1-0.7,1.2-2.1c0.1-2.2-0.5-5.4-0.6-6c-0.6-2.3-1.5-4.5-1.6-6.9C674.2,39,674.2,38.7,674.1,38.5z"/>
	<path class="st0" d="M667.5,29.2c-0.9-1.3-3.4-1.9-4.7-2.1c-1.6-0.3-3.2-0.6-4.9-0.5c0,0-0.1,0-0.1,0c-0.8,0.1-1.6,0.1-2.3,0.2
		c-0.1,0-0.1,0-0.2,0c-0.8,0.2-1.1,0.7-0.7,1.6c0.5,1.2,1,2.4,1.3,3.7c0.4,1.4,0.7,2.8,0.8,4.3c0.1,1.4,0.1,2.7,0.1,4.1
		c0,2.6-0.2,5.2,0.7,7.7c0,0.1,0.1,0.1,0.2,0.3c1.2-1.9,2.7-3,4.9-2c0,0,0,0,0,0c-0.2-0.2,0.2-1.6,0.9-3.5c0.3-0.9,0.6-1.8,1-2.8
		c0.4-1,0.7-1.9,1.1-2.9c0.9-2.2,1.6-4.1,1.8-4.6c0.3-0.8,0.6-1.7,0.5-2.6C667.8,29.7,667.7,29.4,667.5,29.2z"/>
	<path class="st0" d="M688.9,54.1c-1.2,0.5-2.3,1.2-3.2,2.5c1,0.4,1.9,0.7,2.8,1c0.1,0,0.3,0,0.4,0c0.6-0.2,1.2-0.5,1.9-0.7
		c0.7-0.3,1.4-0.6,2.1-0.8c0.1,0,0.3-0.1,0.4-0.1c0.8-0.3,1.6-0.6,2.3-0.9c0.1,0,0.2-0.1,0.3-0.1c0.8-0.3,1.3-0.9,1.7-1.6
		c0.2-0.5,0.1-1.1-0.2-1.6c-0.2-0.2-0.4-0.5-0.7-0.6c-2.1-0.8-4-1.7-5.8-2.9c-1.3-0.9-2.6-2-3.7-3.4c-0.3-0.4-0.6-0.7-0.9-1.1
		c-0.9-1.2-1.6-2.5-2.2-3.9c-0.3-0.6-0.5-1.3-0.7-2c-0.1-0.3-0.2-0.6-0.3-0.8c-0.1-0.4-0.8-2.5-0.5-2.7c-0.3,0.3-0.7,0.7-0.9,1.1
		c0,0.1,0,0.1-0.1,0.2c-0.4,0.9-0.8,1.8-1,2.8c-0.3,1-0.5,2.1-0.6,3.2c0,0.1,0,0.2,0,0.4c-0.2,1.2-0.3,2.4-0.4,3.6
		c-0.1,1.6,0.1,3.3,0.1,4.9c0,1.4-0.1,2.7-0.3,4.1c-0.1,0.4-0.1,0.7,0,0.8c0.1,0.2,0.3,0.2,0.8,0.3c1.3,0.2,2.5,0.4,3.7,0.7
		c0.7,0.2,1.1-0.2,1.4-0.6c0.5-0.6,0.9-1.3,1.4-1.9c0.4-0.4,0.8-0.7,1.2-0.9c0.7-0.3,1.4-0.4,2.2-0.3c0.3,0,0.6,0.1,1,0.2
		c0.6,0.1,1.3,0.3,1.9,0.5c-0.5,0.1-0.9,0.1-1.4,0.2C690.6,53.6,689.7,53.8,688.9,54.1z"/>
	<path class="st0" d="M690.7,44.7c-0.4,0.1-0.8,0.3-1.4,0.5c1.7,1.5,3.6,2.4,5.4,3.7c0.1-0.6,0.2-1,0.2-1.4c-0.9-0.7-1.8-1.3-2.6-2
		c0,0,0-0.1,0-0.1c0.7,0.1,1.3,0.3,2,0.4c1.9,0.2,2-0.3,2.4-2c0.3-1.3-0.1-2.6-0.8-3.7c-0.1-0.1-0.2-0.2-0.3-0.4
		c-0.8-1-1.5-2-2.7-2.6c-0.2-0.1-0.4-0.2-0.6-0.3c0.3,1.3,0.7,2.5,0.9,3.7c0.1,0.6,0.1,1.3,0,1.9C692.9,43.8,692,44.4,690.7,44.7z"
		/>
	<path class="st0" d="M681.9,29.2c-1,0.4-1.7,1.2-2.3,2c-0.2,0.2-0.4,0.5-0.6,0.8c-0.5,0.7-1,1.4-1.4,2.2c-0.4,0.7-0.8,1.5-1,2.3
		c0,0.2-0.1,0.4-0.1,0.5c-0.6,2.5-0.3,5.2,0.3,7.7c0.3,1.3,0.8,2.5,1,3.8c0.1,1.4,0,2.9-0.3,4.4c0,0.2-0.1,0.3-0.1,0.5
		c0,0.2-0.1,0.4-0.1,0.6c0,0,0,0,0,0c0,0.1,0.2,0.6,0.1,0.7c0.2-0.2,0.3-0.4,0.5-0.7c0.7-1.3,0.7-3,0.8-4.4c0.1-1.9,0-3.9,0-5.9
		c0-1.2,0-2.4,0.2-3.6c0.1-1.2,0.4-2.3,0.8-3.4c0.1-0.2,0.1-0.4,0.2-0.6c0.3-0.7,0.6-1.3,1-1.9c0.5-0.8,1.2-1.5,2-2
		c0.7-0.5,2.5-0.7,2.7-1.7c0.1-0.3,0-0.6-0.2-0.8C684.6,29,682.6,28.9,681.9,29.2z"/>
	<path class="st0" d="M689.5,35.1c-0.5-0.6-1-1.1-1.5-1.7c-0.1-0.1-0.2-0.3-0.3-0.4c-0.1-0.2-0.3-0.4-0.4-0.6
		c-0.1-0.2-0.2-0.3-0.4-0.5l0,0c-0.2,0-0.4,0.1-0.6,0.3c-0.2,0.2-0.3,0.4-0.5,0.5c-0.4,0.2-0.8,0.4-1.2,0.4c-0.2,0-0.4,0-0.6,0
		c-1.1,0.2-0.4,1.5-0.2,2.1c0.3,0.9,0.5,1.9,0.8,2.8l0,0l0,0c0,0,0,0,0,0c0,0,0,0,0,0.1c0.1,0.1,0.2,0.2,0.4,0.1c0,0,0,0,0,0
		c0.2-0.4,0.4-1,0.8-1.3c0.4-0.2,0.8-0.3,1.2-0.2c0.3,0.1,0.6,0.4,0.8,0.7c0.1,0.1,0.2,0.3,0.3,0.5c0.4,0.7,0.5,1.5,0.5,2.3
		c0,0.3,0,0.6-0.2,0.9c-0.1,0.3-0.3,0.5-0.6,0.6c0.2-0.7,0.4-1.4-0.1-2.1c0,0,0,0,0,0c-0.3-0.4-0.8-0.7-1.3-0.6
		c-0.5,0-1,0.4-1.1,0.9c-0.1,0.4,0.1,0.9,0.4,1.3c0.1,0.2,0.3,0.4,0.4,0.6c0.8,1,1.8,2,3.1,2.1c0.8,0.1,1.5-0.2,2-0.8
		c0.4-0.5,0.5-1.1,0.5-1.6c0-2-1-4.3-2.2-5.9C689.7,35.3,689.6,35.2,689.5,35.1z"/>
	<path class="st0" d="M698.8,63.7c0.8-0.1,1.6-0.5,2.2-1.1c0.5-0.4,0.8-0.9,1.1-1.5c0.4-1,0.5-2.2,0.7-3.3c0.4-3,1.1-5.9,1.4-8.9
		c0.3-3,0.3-6.1-0.9-8.9c-0.3-0.8-0.8-1.6-1.3-2.3c-0.8-1.1-1.9-2.1-3.1-2.8c-1.2-0.6-3.9-2.1-3.7,0.7c0,0.5,0.2,0.9,0.5,1.2
		c0.1,0.2,0.2,0.3,0.4,0.4c0.7,0.7,1.3,1.2,1.8,1.9c0.3,0.4,0.5,0.9,0.7,1.5c0.4,1.3,0.3,2.8-0.3,4.1c-0.4,1-1.1,1.9-1.5,2.9
		c-0.2,0.7-0.3,1.7,0.2,2.4c0,0,0,0,0.1,0.1c0.5,0.7,1.5,0.8,2,1.5c0,0.1,0.1,0.1,0.1,0.2c0.5,0.7,0.7,1.6,0.4,2.3
		c-0.3,0.6-0.9,1-1.5,1.4c-0.6,0.3-1.1,0.6-1.7,0.8c-0.8,0.3-1.5,0.7-2.3,0.9c-0.8,0.3-1.7,0.6-2.5,0.9c-0.3,0.1-0.5,0.2-0.8,0.3
		c-0.1,0-0.2,0.1-0.4,0.2c0.6,0.4,1.1,0.7,1.5,1.1c0.6,0.5,1.3,1,1.9,1.5c0,0,0,0,0.1,0c0.7,0.6,1.3,1.3,2,1.9
		c0.1,0.1,0.2,0.1,0.3,0.2C697.1,63.7,698,63.8,698.8,63.7z"/>
	<path class="st0" d="M690.3,71.6c0-0.1-0.1-0.1-0.1-0.2c-0.3-0.4-0.7-0.3-1.1-0.3c-0.6,0.1-1.1,0.1-1.7,0.2
		c-0.9,0.1-1.9,0.2-2.8,0.3c-0.2,0-0.4,0-0.7,0c-1.7,0.1-3.4,0.1-5.1-0.1c-3.8-0.4-7.5-1.4-11-2.9c-1.4-0.6-2.6-1.3-4-2
		c0,0-0.1,0.1-0.2,0.1c0.8,1.8,1.4,3.7,2.3,5.4c0.2,0.3,0.4,0.7,0.6,1c1.1,1.5,2.6,2.4,4.6,2.5c2.4,0.1,4.7,0,7,0.3c0,0,0,0,0,0
		c0.2,0,0.3,0,0.5,0c1.7,0.1,3.1,0.8,4.5,1.4c0,0,0,0,0.1,0c1.3,0.6,2.6,1.2,3.9,1.9c0,0,0.1,0.1,0.2,0.1l0,0c0.8,0.3,1.6,0.7,2.3,1
		c0.1,0.1,0.3,0.1,0.4,0.1h0c0.3,0,0.6,0.1,0.8,0c0.1,0,0.2-0.1,0.4-0.2c0.2-0.1,0.3-0.3,0.4-0.4c0,0,0,0,0,0
		c0.4-0.9,0.3-1.8,0.3-2.7c0-0.1,0-0.2,0-0.4C691.7,75.1,691,73.3,690.3,71.6z"/>
	<path class="st0" d="M666.5,39.5c-0.3,0.7-0.6,1.3-0.9,2c-0.2,0.3-0.3,0.6-0.5,1c-0.1,0.2-0.2,0.5-0.2,0.6c0.4-0.2,0.7-0.7,1-1
		c0.1-0.1,0.1-0.2,0.2-0.2c0.4-0.5,0.8-0.9,1.2-1.4c0.1-0.1,0.2-0.3,0.3-0.4c0.6-0.8,1.3-1.6,1.8-2.5c0.2-0.2,0.3-0.5,0.4-0.7
		c1-1.8,1.8-3.7,2.3-5.7c0,0,0,0,0,0c0.3-1,0.4-2.1,0.8-3.2c0,0,0,0,0,0c0.3-0.8,0.7-1.6,1.4-2.1c0,0,0,0,0,0l0,0c0,0,0,0,0,0.1
		c0,0,0,0,0,0c0.6-0.6,1.3-0.8,2.2-1.3c0,0,0,0,0,0c0.5,0.7,0,1.4-0.6,1.9c-0.2,0.3-0.4,0.5-0.6,0.8c-0.5,0.7-0.9,1.5-1.3,2.4
		c-0.2,0.6-0.4,1.2-0.6,1.9c-0.1,0.4-0.2,0.7-0.3,1.1c-0.2,0.7-0.4,1.5-0.7,2.2c-0.4,1.1-1,2-1.6,2.9c0.3-0.1,0.5-0.1,0.8-0.2
		c1.3-0.4,2.6-0.8,3.4-2.1c0,0,0.1-0.1,0.1-0.1c0.4-0.7,0.8-1.4,1.1-2c0.1-0.2,0.1-0.3,0.2-0.5c0.4-0.8,0.7-1.7,1.2-2.5c0,0,0,0,0,0
		c0.6-0.9,1.3-1.6,2.2-2.1c0.8-0.5,1.8-0.9,2.7-1c0.5-0.1,1-0.1,1.5-0.1c0.4,0,0.7,0.1,1.1-0.1c-0.5-0.6-0.9-1.4-1.6-1.9
		c-1.1-0.8-2.4-1.3-3.5-2c-0.4-0.2-0.7-0.6-1.2-1c0.4,0,0.5,0,0.7,0c1.6,0.5,3.1,1,4.7,1.5c1.5,0.5,2.7,1.5,3.6,2.8
		c0.2,0.2,0.3,0.4,0.4,0.7c0.8,1.3,1,2.9,1.7,4.2c0,0.1,0.1,0.2,0.3,0.4c0.4,0.5,1,1.4,1.6,2c0.5,0.5,0.9,0.9,1.1,0.8
		c1.9-2.4,0.9-5.1-0.8-7.3c-0.7-1-1.5-1.9-2.3-2.7c-2.4-2.4-5.3-4.6-8.2-6.4c-2.1-1.3-5-0.6-6.9,1c-1.1,1-1.9,2.3-2.6,3.7l0,0
		c-0.1,0.1-0.1,0.3-0.2,0.4c-0.1,0.2-0.1,0.3-0.2,0.5c-0.2,0.6-0.4,1.2-0.6,1.9v0c0,0,0,0,0,0c-0.3,1-0.5,2-0.8,3
		c-0.3,1.3-0.7,2.6-1.2,3.9c-0.8,2.1-1.6,4.1-2.4,6.2C666.6,39.1,666.6,39.3,666.5,39.5z"/>
	<path class="st0" d="M682.1,60.5c0.1,0,0.3,0,0.4,0.1c0.7,0.1,1.4,0.2,2.1,0.4c0.8,0.3,1.6,0.6,2.4,1c1.6,0.8,3,1.8,4.4,2.8
		c1.1,0.9,2.2,1.8,3.3,2.7c1.1,0.9,2.1,1.9,3.3,2.6c0.1-0.7,0-1.2-0.3-1.9c-0.3-0.8-0.8-1.6-1.3-2.3c-0.7-0.9-1.5-1.8-2.4-2.5
		c-1.6-1.4-3.5-2.5-5.4-3.4c-0.9-0.4-1.9-0.8-2.8-1.1c-2-0.6-4.1-1.1-6-1.7c-1.5-0.5-3-0.9-4.4-1.4c-1.5-0.5-3-1.1-4.4-1.8
		c-3-1.4-5.9-3.1-8.7-5.3c-0.2-0.1-0.3-0.2-0.5-0.2c-1.4-0.4-3.1,1.8-3.5,2.8c-1.3,3.2-0.1,7.3,2.1,10.3c0.8,1.1,1.8,2.1,2.8,2.8
		c1.7,1.2,3.5,2.1,5.5,2.8c0.9,0.3,1.8,0.6,2.8,0.9c1,0.3,2.1,0.5,3.1,0.7c2.1,0.4,4.1,0.6,6.2,0.8c0.6,0,1.2,0.1,1.8,0.1
		c1,0,2.1,0,3.1,0c0.4,0,0.8,0,1.2,0c0.6,0,1.2,0,1.8-0.1c1.5-0.1,3-0.2,4.5-0.6c0,0,0,0,0,0c0,0,0.1-0.1,0.2-0.1
		c-0.4-0.1-0.9-0.7-1.2-0.9c-1.6-1.4-3.2-2.7-5-3.9c-0.9-0.6-1.9-1.2-2.8-1.7c-0.5-0.3-1-0.5-1.5-0.8c0,0-0.1,0-0.2-0.1
		c-0.4-0.2-1.2-0.5-1.2-0.6c0,0,0,0,0,0C681.7,60.4,682,60.5,682.1,60.5z"/>
	<path class="st0" d="M688.5,145.4c-0.1-0.1-0.2-0.1-0.4-0.2c-1.5-0.1-3.5,2-4.5,3c-0.2,0.3-0.5,0.5-0.7,0.8
		c-0.6,0.7-1.1,1.5-1.5,2.4c-0.3,0.5-0.5,1.1-0.7,1.6c-0.1,0.4-0.2,0.7-0.3,1.1c-0.2,0.8-0.2,1.6,0.1,2.3c0.2,0.5,0.5,1,0.9,1.4
		c0.2,0.2,0.4,0.4,0.6,0.5c0.7,0.5,1.6,0.9,2.4,1.2c0.6,0.2,1.1,0.3,1.6,0.5c1.6,0.5,3.3,1,5,1.4c0.4,0.1,0.7,0.2,1.1,0.3
		c0.9,0.2,1.1-0.9,0.9-2.3c-0.2-2.3-1.3-5.6-1.5-6.2c-1-2.3-2.2-4.5-2.7-6.9C688.6,145.9,688.6,145.6,688.5,145.4z"/>
	<path class="st0" d="M680.2,136.7c-1.2-1.2-3.9-1.4-5.2-1.5c-1.7-0.1-3.5-0.2-5.2,0.2c0,0-0.1,0-0.1,0c-0.8,0.2-1.6,0.3-2.4,0.6
		c-0.1,0-0.1,0-0.2,0.1c-0.9,0.3-1,0.9-0.5,1.7c0.7,1.2,1.4,2.4,1.9,3.6c0.6,1.4,1.1,2.9,1.5,4.4c0.3,1.4,0.5,2.9,0.8,4.3
		c0.4,2.7,0.6,5.4,1.8,7.9c0,0.1,0.1,0.1,0.2,0.2c1-2.2,2.4-3.5,4.8-2.9c0,0,0,0,0,0c-0.2-0.2,0-1.8,0.4-3.8c0.2-1,0.4-2,0.7-3.1
		c0.2-1.1,0.5-2.1,0.7-3.1c0.6-2.5,1.1-4.6,1.2-5c0.2-0.9,0.4-1.9,0.1-2.8C680.6,137.2,680.4,136.9,680.2,136.7z"/>
	<path class="st0" d="M706.2,159.6c-1.2,0.7-2.2,1.6-3,3c1.1,0.2,2.1,0.4,3.1,0.6c0.1,0,0.3,0,0.4-0.1c0.6-0.4,1.2-0.7,1.9-1.1
		c0.7-0.4,1.4-0.8,2.1-1.2c0.1-0.1,0.3-0.1,0.4-0.2c0.8-0.4,1.6-0.9,2.3-1.3c0.1-0.1,0.2-0.1,0.3-0.2c0.7-0.4,1.2-1.1,1.5-1.9
		c0.2-0.5,0-1.2-0.5-1.6c-0.2-0.2-0.5-0.4-0.8-0.5c-2.3-0.5-4.4-1.2-6.4-2.2c-1.5-0.8-3-1.7-4.4-3c-0.4-0.3-0.7-0.7-1.1-1
		c-1.1-1.1-2.1-2.4-2.9-3.8c-0.4-0.6-0.7-1.3-1-1.9c-0.1-0.3-0.3-0.6-0.4-0.8c-0.2-0.4-1.2-2.5-0.9-2.8c-0.3,0.4-0.7,0.8-0.8,1.3
		c0,0.1,0,0.1,0,0.2c-0.3,1-0.5,2-0.7,3c-0.2,1.1-0.2,2.3-0.2,3.4c0,0.1,0,0.3,0,0.4c0,1.3,0,2.5,0.2,3.8c0.2,1.7,0.6,3.4,0.8,5.1
		c0.2,1.4,0.3,2.9,0.3,4.3c0,0.5,0,0.7,0.2,0.9c0.1,0.1,0.4,0.2,0.8,0.2c1.3,0,2.7,0,4,0.2c0.8,0.1,1.1-0.3,1.4-0.9
		c0.4-0.7,0.7-1.5,1.2-2.2c0.3-0.5,0.7-0.8,1.1-1.1c0.7-0.4,1.4-0.6,2.3-0.6c0.3,0,0.7,0,1,0.1c0.7,0.1,1.4,0.1,2.1,0.2
		c-0.5,0.1-1,0.3-1.5,0.4C707.9,158.8,707,159.2,706.2,159.6z"/>
	<path class="st0" d="M707.2,141.1c0.5,1.3,1.1,2.5,1.5,3.7c0.2,0.6,0.3,1.3,0.2,1.9c0,1.4-1,2.2-2.2,2.7c-0.4,0.2-0.8,0.4-1.4,0.7
		c2,1.3,4.1,2,6.2,3c0-0.6,0-1.1,0.1-1.5c-1.1-0.6-2.1-1.1-3.1-1.7c0,0,0-0.1,0-0.1c0.7,0,1.4,0.2,2.1,0.1c2,0,2-0.6,2.2-2.4
		c0.1-1.4-0.4-2.7-1.4-3.7c-0.1-0.1-0.2-0.2-0.4-0.3c-1-0.9-1.9-1.9-3.2-2.4C707.7,141.2,707.4,141.1,707.2,141.1z"/>
	<path class="st0" d="M695.2,134.5c-1,0.6-1.6,1.5-2.2,2.5c-0.2,0.3-0.3,0.6-0.5,0.9c-0.4,0.8-0.8,1.6-1.2,2.5
		c-0.3,0.8-0.6,1.7-0.7,2.6c0,0.2,0,0.4-0.1,0.6c-0.3,2.8,0.5,5.5,1.5,8.1c0.5,1.3,1.2,2.5,1.5,3.8c0.4,1.5,0.4,3.1,0.4,4.6
		c0,0.2,0,0.4,0,0.6c0,0.2,0,0.5,0,0.7c0,0,0,0,0,0.1c0,0.1,0.3,0.6,0.2,0.7c0.2-0.2,0.3-0.5,0.4-0.8c0.6-1.5,0.3-3.2,0.2-4.7
		c-0.2-2.1-0.6-4.1-0.9-6.1c-0.2-1.3-0.3-2.5-0.4-3.8c0-1.2,0-2.5,0.3-3.7c0-0.2,0.1-0.4,0.1-0.7c0.2-0.7,0.5-1.4,0.8-2.1
		c0.5-0.9,1-1.7,1.7-2.4c0.6-0.6,2.5-1.1,2.6-2.2c0-0.3-0.1-0.6-0.3-0.8C698.1,134,695.9,134.1,695.2,134.5z"/>
	<path class="st0" d="M707.2,147.5c0.3-0.5,0.4-1.2,0.3-1.8c-0.3-2.1-1.6-4.3-3.1-5.9c-0.1-0.1-0.2-0.2-0.2-0.3
		c-0.6-0.5-1.2-1-1.8-1.6c-0.1-0.1-0.3-0.3-0.4-0.4c-0.2-0.2-0.4-0.4-0.5-0.6c-0.1-0.2-0.3-0.3-0.5-0.4c0,0,0,0,0,0
		c-0.2,0-0.4,0.2-0.5,0.4c-0.2,0.2-0.3,0.5-0.4,0.6c-0.3,0.3-0.8,0.5-1.2,0.6c-0.2,0-0.5,0-0.7,0.1c-1.1,0.3-0.2,1.6,0.1,2.2
		c0.4,0.9,0.8,1.9,1.3,2.8v0l0,0c0,0,0,0,0,0c0,0,0,0,0.1,0.1c0.1,0.1,0.3,0.2,0.4,0c0,0,0,0,0,0c0.1-0.5,0.3-1.1,0.7-1.5
		c0.3-0.3,0.8-0.4,1.2-0.3c0.4,0.1,0.7,0.3,1,0.6c0.1,0.1,0.2,0.3,0.4,0.5c0.5,0.7,0.8,1.5,0.9,2.3c0,0.3,0,0.6,0,0.9
		c-0.1,0.3-0.3,0.6-0.6,0.7c0.1-0.8,0.2-1.6-0.4-2.2c0,0,0,0,0,0c-0.4-0.4-0.9-0.6-1.4-0.5c-0.5,0.1-1,0.6-1,1.1
		c0,0.5,0.3,0.9,0.6,1.3c0.2,0.2,0.3,0.4,0.5,0.6c0.9,1,2.2,1.9,3.6,1.8C706,148.6,706.8,148.2,707.2,147.5z"/>
	<path class="st0" d="M721.4,151.9c-0.1-3.2-0.6-6.4-2.2-9.2c-0.5-0.8-1-1.6-1.7-2.2c-1-1.1-2.2-1.9-3.6-2.4
		c-1.3-0.5-4.4-1.6-3.7,1.2c0.1,0.5,0.4,0.9,0.7,1.2c0.1,0.1,0.3,0.3,0.4,0.4c0.9,0.6,1.6,1.1,2.2,1.7c0.4,0.4,0.7,0.8,1,1.5
		c0.6,1.3,0.7,2.9,0.3,4.3c-0.3,1.1-0.9,2.1-1.1,3.2c-0.1,0.8,0,1.8,0.6,2.5c0,0,0.1,0,0.1,0.1c0.7,0.6,1.7,0.7,2.3,1.3
		c0.1,0.1,0.1,0.1,0.2,0.2c0.6,0.6,1,1.5,0.7,2.3c-0.2,0.7-0.8,1.2-1.4,1.7c-0.6,0.4-1.1,0.8-1.7,1.1c-0.8,0.5-1.5,0.9-2.3,1.3
		c-0.8,0.5-1.6,0.9-2.5,1.3c-0.3,0.1-0.5,0.3-0.8,0.4c-0.1,0-0.2,0.1-0.3,0.3c0.6,0.3,1.2,0.6,1.7,0.9c0.8,0.4,1.5,0.9,2.2,1.3
		c0,0,0,0,0.1,0c0.8,0.6,1.6,1.2,2.4,1.7c0.1,0.1,0.2,0.1,0.3,0.1c0.9,0.2,1.8,0.2,2.6-0.1c0.8-0.3,1.6-0.8,2.2-1.4
		c0.4-0.5,0.7-1.1,0.9-1.7c0.3-1.2,0.2-2.4,0.2-3.6C721.2,158.2,721.5,155.1,721.4,151.9z"/>
	<path class="st0" d="M712.7,183.1c-0.5-1.9-1.4-3.6-2.4-5.3c0-0.1-0.1-0.1-0.1-0.2c-0.4-0.4-0.8-0.2-1.2-0.1
		c-0.6,0.2-1.2,0.3-1.7,0.5c-0.9,0.3-1.9,0.5-2.9,0.8c-0.2,0-0.4,0.1-0.7,0.2c-1.8,0.3-3.6,0.6-5.4,0.6c-4,0.2-8-0.3-11.9-1.4
		c-1.5-0.4-3-1-4.4-1.5c0,0.1-0.1,0.1-0.1,0.1c1,1.8,2,3.6,3.2,5.3c0.2,0.3,0.5,0.6,0.8,0.9c1.3,1.4,3,2.1,5.1,1.9
		c2.5-0.2,4.9-0.7,7.4-0.7c0,0,0,0,0,0c0.2,0,0.3,0,0.5-0.1c1.7-0.2,3.3,0.4,5,0.8c0,0,0,0,0,0c1.5,0.4,2.9,0.9,4.4,1.4
		c0.1,0,0.1,0,0.2,0.1h0c0.9,0.2,1.7,0.5,2.6,0.7c0.2,0,0.3,0.1,0.5,0.1h0c0.3,0,0.6,0,0.9-0.2c0.1-0.1,0.2-0.1,0.3-0.2
		c0.2-0.1,0.3-0.3,0.4-0.5c0,0,0,0,0,0c0.3-1,0.1-1.9-0.1-2.8C712.7,183.3,712.7,183.2,712.7,183.1z"/>
	<path class="st0" d="M683.1,135.8c-0.2,1.4-0.4,2.9-0.7,4.3c-0.5,2.3-1.1,4.5-1.6,6.8c-0.1,0.3-0.1,0.5-0.2,0.8
		c-0.2,0.8-0.4,1.5-0.7,2.2c-0.1,0.4-0.2,0.7-0.4,1.1c-0.1,0.2-0.2,0.5-0.1,0.7c0.4-0.3,0.6-0.8,0.9-1.2c0.1-0.1,0.1-0.2,0.2-0.3
		c0.4-0.5,0.7-1.1,1-1.6c0.1-0.2,0.2-0.3,0.3-0.5c0.6-0.9,1.1-1.9,1.5-2.8c0.1-0.3,0.2-0.6,0.4-0.8c0.8-2,1.3-4.1,1.5-6.3
		c0,0,0,0,0,0c0.1-1.1,0.1-2.3,0.3-3.4c0,0,0,0,0,0c0.2-0.9,0.5-1.7,1.2-2.4c0,0,0,0,0,0h0c0,0,0,0,0,0c0,0,0,0,0.1,0
		c0.6-0.7,1.2-1,2.1-1.6c0,0,0,0,0,0c0.6,0.7,0.2,1.5-0.3,2.1c-0.2,0.3-0.4,0.6-0.6,0.9c-0.4,0.8-0.8,1.8-1,2.7
		c-0.2,0.7-0.3,1.4-0.4,2c-0.1,0.4-0.1,0.8-0.2,1.2c-0.1,0.8-0.2,1.6-0.4,2.4c-0.3,1.2-0.8,2.2-1.2,3.3c0.3-0.1,0.5-0.2,0.8-0.3
		c1.4-0.6,2.6-1.3,3.3-2.7c0-0.1,0-0.1,0.1-0.2c0.3-0.8,0.6-1.5,0.9-2.3c0.1-0.2,0.1-0.3,0.2-0.5c0.3-0.9,0.5-1.9,0.9-2.7
		c0,0,0,0,0,0c0.5-1,1.1-1.9,2-2.5c0.8-0.7,1.7-1.2,2.7-1.4c0.5-0.1,1-0.2,1.5-0.3c0.4,0,0.8,0,1.1-0.3c-0.6-0.6-1.2-1.3-2-1.7
		c-1.3-0.6-2.6-1-4-1.6c-0.4-0.2-0.8-0.5-1.4-0.8c0.4,0,0.6-0.1,0.7-0.1c1.7,0.3,3.4,0.5,5.1,0.9c1.6,0.3,3,1.2,4.2,2.4
		c0.2,0.2,0.4,0.4,0.6,0.6c1.1,1.3,1.4,2.8,2.4,4.2c0,0.1,0.2,0.2,0.4,0.4c0.5,0.5,1.3,1.3,2,1.8c0.6,0.5,1.1,0.8,1.2,0.6
		c1.6-2.8,0.1-5.4-1.9-7.5c-0.9-0.9-1.9-1.7-2.8-2.4c-2.9-2.2-6.2-4.1-9.5-5.5c-2.4-1-5.3,0.1-7.1,2.1c-1,1.2-1.7,2.7-2.1,4.2l0,0
		c0,0.1-0.1,0.3-0.1,0.4c-0.1,0.2-0.1,0.4-0.1,0.5c-0.2,0.7-0.3,1.3-0.4,2l0,0c0,0,0,0,0,0C683.3,133.6,683.2,134.7,683.1,135.8z"/>
	<path class="st0" d="M677.2,157.4c-1.5-0.2-3,2.3-3.2,3.4c-0.9,3.6,1,7.7,3.7,10.5c1,1.1,2.2,1.9,3.3,2.5c1.9,1,4,1.7,6.1,2.1
		c1,0.2,2,0.4,3.1,0.5c1.1,0.1,2.2,0.2,3.3,0.2c2.2,0.1,4.4,0.1,6.6-0.1c0.6,0,1.3-0.1,1.9-0.2c1.1-0.1,2.2-0.2,3.2-0.4
		c0.4-0.1,0.9-0.1,1.3-0.2c0.6-0.1,1.2-0.2,1.9-0.4c1.6-0.3,3.1-0.7,4.6-1.3c0,0,0,0,0,0c0,0,0.1-0.1,0.2-0.1c-0.4,0-1-0.6-1.4-0.8
		c-1.9-1.2-3.7-2.3-5.8-3.3c-1-0.5-2.1-1-3.2-1.4c-0.5-0.2-1.1-0.4-1.6-0.6c0,0-0.1,0-0.2-0.1c-0.4-0.1-1.3-0.3-1.4-0.4c0,0,0,0,0,0
		c-0.1-0.2,0.2-0.2,0.4-0.2c0.1,0,0.3,0,0.4,0c0.8,0,1.5,0,2.2,0.1c0.9,0.2,1.8,0.4,2.7,0.7c1.7,0.6,3.4,1.4,5,2.3
		c1.3,0.7,2.6,1.5,3.9,2.3c1.2,0.7,2.5,1.7,3.8,2.2c0-0.8-0.2-1.3-0.6-2c-0.5-0.8-1-1.6-1.7-2.2c-0.9-0.9-1.8-1.6-2.8-2.3
		c-1.9-1.3-4-2.1-6.2-2.8c-1-0.3-2.1-0.5-3.1-0.8c-2.2-0.3-4.4-0.6-6.6-0.9c-1.6-0.3-3.2-0.5-4.8-0.9c-1.6-0.3-3.3-0.7-4.9-1.2
		c-3.4-1-6.7-2.4-9.8-4.3C677.6,157.5,677.4,157.4,677.2,157.4z"/>
	<path class="st0" d="M808.9,124.9c-0.5,0.3-0.9,0.6-1.1,1c-0.2,0.3-0.3,0.7-0.3,1c0,0.2,0,0.3,0,0.5c0,0.6,0.2,1.2,0.4,1.7
		c0.2,0.3,0.3,0.7,0.4,1c0.4,1,0.9,2.1,1.4,3.1c0.1,0.2,0.2,0.4,0.3,0.7c0.3,0.5,0.9,0.2,1.5-0.5c1.1-1.1,2.2-3,2.4-3.4
		c0.7-1.5,1.3-3,2.3-4.3c0.2-0.2,0.4-0.4,0.4-0.5c0-0.1,0-0.2-0.1-0.3c-0.6-0.8-2.5-0.9-3.4-0.9c-0.2,0-0.5,0-0.7,0
		c-0.6,0-1.2,0.1-1.8,0.2c-0.4,0.1-0.7,0.2-1.1,0.3C809.4,124.7,809.1,124.8,808.9,124.9z"/>
	<path class="st0" d="M803.7,122.9c1.5-0.4,2.8-0.3,3.5,1.2c0,0,0,0,0,0c0-0.2,0.9-0.7,2-1.4c0.6-0.3,1.2-0.7,1.8-1
		c0.6-0.3,1.3-0.7,1.9-1c1.5-0.8,2.7-1.4,3-1.6c0.6-0.3,1.1-0.6,1.5-1.1c0.1-0.2,0.2-0.4,0.2-0.6c0.1-1.1-0.9-2.5-1.5-3.2
		c-0.7-0.9-1.4-1.8-2.3-2.5c0,0,0,0,0,0c-0.4-0.3-0.9-0.7-1.3-0.9c0,0-0.1,0-0.1-0.1c-0.5-0.3-0.9-0.1-1.1,0.5
		c-0.3,0.9-0.6,1.7-1,2.5c-0.4,0.9-0.9,1.8-1.5,2.6c-0.6,0.8-1.2,1.5-1.8,2.2c-1.2,1.3-2.5,2.6-3.2,4.3
		C803.7,122.7,803.7,122.8,803.7,122.9z"/>
	<path class="st0" d="M817.2,140.1c-0.8-0.3-1.7-0.4-2.8-0.2c0.4,0.6,0.7,1.2,1,1.8c0,0.1,0.1,0.1,0.2,0.1c0.4,0.2,0.9,0.3,1.3,0.5
		c0.5,0.2,1,0.3,1.5,0.5c0.1,0,0.2,0.1,0.3,0.1c0.5,0.2,1.1,0.4,1.6,0.6c0.1,0,0.1,0.1,0.2,0.1c0.5,0.2,1.1,0.1,1.6-0.1
		c0.3-0.1,0.6-0.5,0.6-0.9c0-0.2,0-0.4-0.1-0.6c-0.7-1.4-1.3-2.7-1.7-4.1c-0.3-1.1-0.4-2.2-0.4-3.5c0-0.3,0-0.6,0-1
		c0.1-1,0.3-2.1,0.6-3.1c0.1-0.5,0.3-0.9,0.5-1.3c0.1-0.2,0.2-0.4,0.2-0.5c0.1-0.2,0.7-1.6,1-1.7c-0.3,0-0.7,0-1,0.1
		c0,0-0.1,0-0.1,0c-0.6,0.3-1.2,0.6-1.8,1c-0.6,0.4-1.2,0.9-1.8,1.4c-0.1,0.1-0.1,0.1-0.2,0.2c-0.6,0.5-1.2,1.1-1.8,1.7
		c-0.8,0.8-1.4,1.7-2.2,2.6c-0.6,0.7-1.3,1.4-2,2c-0.2,0.2-0.3,0.3-0.4,0.5c0,0.1,0.1,0.3,0.3,0.5c0.6,0.7,1.1,1.3,1.6,2.1
		c0.3,0.4,0.6,0.4,1,0.3c0.5-0.1,1-0.3,1.6-0.3c0.4,0,0.7,0,1,0.1c0.5,0.1,0.9,0.4,1.3,0.9c0.1,0.2,0.3,0.4,0.4,0.5
		c0.3,0.4,0.5,0.7,0.8,1.1c-0.3-0.2-0.6-0.4-0.8-0.5C818.4,140.5,817.8,140.3,817.2,140.1z"/>
	<path class="st0" d="M823.9,138.2c0.9,1,1.1,0.7,2.1,0.1c0.8-0.5,1.1-1.4,1.2-2.3c0-0.1,0-0.2,0-0.3c0-0.9,0.1-1.8-0.2-2.6
		c-0.1-0.2-0.1-0.3-0.2-0.4c-0.4,0.8-0.8,1.6-1.2,2.4c-0.2,0.4-0.5,0.7-0.9,1c-0.7,0.6-1.5,0.5-2.3,0.1c-0.3-0.1-0.5-0.2-1-0.4
		c0.2,1.6,0.8,2.9,1.1,4.4c0.3-0.2,0.6-0.4,0.8-0.6c-0.2-0.8-0.3-1.5-0.5-2.2c0,0,0.1,0,0.1,0C823.3,137.5,823.5,137.9,823.9,138.2z
		"/>
	<path class="st0" d="M813.9,133.1c0.9-1,1.8-2,2.7-3c0.6-0.6,1.1-1.2,1.7-1.8c0.6-0.5,1.2-1,1.9-1.4c0.1-0.1,0.2-0.1,0.4-0.2
		c0.4-0.2,0.9-0.4,1.4-0.5c0.6-0.2,1.3-0.2,1.9-0.2c0.6,0.1,1.6,0.8,2.2,0.4c0.2-0.1,0.2-0.3,0.3-0.5c0.1-0.7-0.9-1.7-1.4-1.9
		c-0.7-0.2-1.4-0.1-2.2,0c-0.2,0-0.4,0.1-0.6,0.1c-0.6,0.1-1.2,0.3-1.7,0.5c-0.5,0.2-1.1,0.4-1.6,0.8c-0.1,0.1-0.2,0.1-0.3,0.2
		c-1.5,1-2.5,2.6-3.4,4.2c-0.4,0.8-0.7,1.7-1.2,2.4c-0.6,0.8-1.3,1.5-2.1,2.1c-0.1,0.1-0.2,0.1-0.3,0.2c-0.1,0.1-0.2,0.2-0.3,0.3
		c0,0,0,0,0,0c0,0.1-0.2,0.4-0.2,0.4c0.2,0,0.4-0.1,0.5-0.1C812.4,134.7,813.2,133.8,813.9,133.1z"/>
	<path class="st0" d="M823.3,131.9C823.3,131.9,823.3,131.9,823.3,131.9c0-0.4-0.1-0.7-0.4-0.9c-0.3-0.2-0.7-0.2-1,0
		c-0.2,0.2-0.3,0.5-0.4,0.8c0,0.2,0,0.3-0.1,0.5c-0.1,0.9,0,1.9,0.6,2.5c0.4,0.4,0.9,0.6,1.4,0.5c0.4-0.1,0.7-0.3,1-0.6
		c0.9-1.1,1.5-2.7,1.6-4.1c0-0.1,0-0.2,0-0.2c0-0.5,0-1,0-1.6c0-0.1,0-0.3,0-0.4c0-0.2,0-0.3,0-0.5c0-0.1,0-0.3,0-0.4v0
		c-0.1-0.1-0.2-0.1-0.4-0.1c-0.2,0-0.4,0-0.4,0c-0.3,0-0.6-0.2-0.8-0.4c-0.1-0.1-0.2-0.2-0.3-0.3c-0.7-0.4-0.9,0.6-1.1,1
		c-0.3,0.6-0.6,1.2-0.9,1.8c0,0,0,0,0,0v0c0,0,0,0,0,0c0,0,0,0,0,0.1c0,0.1,0,0.2,0.2,0.2c0,0,0,0,0,0c0.3-0.1,0.7-0.4,1-0.3
		c0.3,0,0.5,0.2,0.7,0.5c0.1,0.2,0.2,0.5,0.1,0.7c0,0.1,0,0.3-0.1,0.4c-0.1,0.5-0.4,1-0.8,1.4c-0.1,0.2-0.3,0.3-0.5,0.4
		c-0.2,0.1-0.4,0.1-0.6,0C822.8,132.8,823.3,132.5,823.3,131.9z"/>
	<path class="st0" d="M816.6,146C816.6,146.1,816.6,146.1,816.6,146c0.1,0.7,0.1,1.3,0.2,2c0,0.1,0,0.2,0.1,0.2
		c0.3,0.5,0.7,1,1.1,1.3c0.5,0.3,1.1,0.5,1.6,0.5c0.4,0,0.8-0.1,1.2-0.3c0.7-0.3,1.3-0.9,1.9-1.4c1.6-1.4,3.3-2.6,4.8-4
		c1.5-1.4,2.9-3,3.6-5c0.2-0.6,0.3-1.2,0.4-1.8c0.1-1,0-1.9-0.3-2.8c-0.3-0.9-1.1-2.9-2.2-1.3c-0.2,0.3-0.3,0.6-0.3,0.9
		c0,0.1,0,0.3,0,0.4c0,0.7,0.2,1.2,0.1,1.8c0,0.3-0.1,0.7-0.3,1.1c-0.4,0.9-1.1,1.6-2,2c-0.7,0.3-1.5,0.4-2.1,0.8
		c-0.5,0.3-0.9,0.8-1,1.3c0,0,0,0,0,0.1c0,0.6,0.4,1.1,0.4,1.7c0,0.1,0,0.1,0,0.2c-0.1,0.6-0.3,1.1-0.9,1.4c-0.4,0.2-1,0.1-1.4,0
		c-0.4-0.1-0.9-0.2-1.3-0.3c-0.5-0.2-1.1-0.4-1.6-0.6c-0.6-0.2-1.1-0.4-1.7-0.7c-0.2-0.1-0.4-0.1-0.5-0.2c-0.1,0-0.1,0-0.3,0
		c0.1,0.5,0.2,0.8,0.3,1.2C816.4,144.9,816.5,145.5,816.6,146z"/>
	<path class="st0" d="M798.3,135.2c-0.4,1.3-1,2.5-1.3,3.8c-0.1,0.3-0.1,0.5-0.1,0.8c-0.1,1.2,0.3,2.4,1.2,3.4
		c1.2,1.1,2.4,2.2,3.5,3.4c0,0,0,0,0,0c0.1,0.1,0.2,0.2,0.2,0.2c0.8,0.8,1.3,1.8,1.7,2.8c0,0,0,0,0,0c0.4,0.9,0.8,1.8,1.1,2.8
		c0,0,0,0.1,0,0.1c0,0,0,0,0,0c0.2,0.5,0.5,1.1,0.8,1.6c0,0.1,0.1,0.2,0.2,0.3v0c0.1,0.2,0.3,0.3,0.5,0.4c0.1,0,0.2,0.1,0.3,0.1
		c0.1,0,0.3,0,0.4,0c0,0,0,0,0,0c0.6-0.3,1-0.8,1.3-1.3c0-0.1,0.1-0.1,0.1-0.2c0.8-1.1,1.2-2.3,1.6-3.5c0-0.1,0-0.1,0-0.2
		c0-0.3-0.2-0.5-0.5-0.7c-0.3-0.2-0.7-0.4-1-0.7c-0.5-0.4-1.1-0.7-1.6-1.1c-0.1-0.1-0.2-0.2-0.4-0.3c-0.9-0.7-1.8-1.5-2.6-2.4
		c-1.8-1.9-3.2-4.1-4.4-6.5c-0.4-0.9-0.8-1.9-1.1-2.8C798.4,135.2,798.4,135.2,798.3,135.2z"/>
	<path class="st0" d="M829.1,125.8c-0.2,1.1-0.8,1.9-1.1,2.9c0,0,0,0.2,0,0.4c0,0.4-0.1,1.2-0.1,1.8c0,0.5,0.1,0.9,0.2,0.9
		c2.1-0.4,2.8-2.2,2.9-4.1c0.1-0.8,0.1-1.7,0-2.4c-0.1-2.3-0.6-4.8-1.3-7c-0.5-1.6-2.3-2.6-4-2.6c-1,0-2.1,0.3-3,0.7l0,0
		c-0.1,0-0.2,0.1-0.3,0.1c-0.1,0.1-0.2,0.1-0.3,0.2c-0.4,0.2-0.8,0.4-1.2,0.7l0,0c0,0,0,0,0,0c-0.6,0.4-1.2,0.8-1.8,1.2
		c-0.8,0.5-1.6,1-2.4,1.5c-1.4,0.7-2.7,1.4-4.1,2.1c-0.2,0.1-0.3,0.2-0.5,0.2c-0.5,0.2-0.9,0.4-1.4,0.6c-0.2,0.1-0.5,0.2-0.7,0.3
		c-0.1,0-0.3,0.1-0.4,0.2c0.3,0.1,0.7,0,1-0.1c0.1,0,0.2,0,0.2,0c0.4-0.1,0.8-0.1,1.3-0.2c0.1,0,0.2,0,0.4-0.1
		c0.7-0.1,1.4-0.3,2.1-0.5c0.2-0.1,0.4-0.1,0.6-0.2c1.3-0.5,2.6-1.1,3.8-1.9c0,0,0,0,0,0c0.6-0.4,1.2-0.9,1.8-1.3c0,0,0,0,0,0
		c0.5-0.3,1.1-0.5,1.7-0.4c0,0,0,0,0.1,0l0,0c0,0,0,0,0,0c0,0,0,0,0,0c0.6,0,1,0.2,1.7,0.4c0,0,0,0,0,0c0,0.6-0.7,0.7-1.2,0.7
		c-0.2,0-0.5,0.1-0.7,0.1c-0.6,0.1-1.2,0.4-1.7,0.7c-0.4,0.2-0.8,0.4-1.2,0.7c-0.2,0.1-0.5,0.3-0.7,0.4c-0.4,0.3-0.9,0.6-1.4,0.8
		c-0.7,0.4-1.4,0.6-2.2,0.8c0.2,0.1,0.3,0.2,0.5,0.3c0.9,0.4,1.7,0.8,2.7,0.5c0,0,0.1,0,0.1,0c0.5-0.2,1-0.4,1.5-0.6
		c0.1,0,0.2-0.1,0.3-0.1c0.6-0.3,1.1-0.6,1.7-0.7c0,0,0,0,0,0c0.7-0.2,1.4-0.2,2.1-0.1c0.7,0.1,1.3,0.4,1.9,0.7
		c0.3,0.2,0.5,0.4,0.8,0.6c0.2,0.2,0.3,0.4,0.6,0.4c0-0.6,0.1-1.2,0-1.7c-0.2-0.9-0.6-1.8-0.9-2.6c-0.1-0.3-0.1-0.6-0.2-1
		c0.2,0.2,0.3,0.2,0.3,0.3c0.6,1,1.2,1.9,1.7,2.9c0.5,0.9,0.7,2,0.6,3.1C829.2,125.5,829.2,125.6,829.1,125.8z"/>
	<path class="st0" d="M799.3,130.9c-0.1,1,0,1.9,0.2,2.7c0.4,1.4,0.9,2.7,1.6,3.9c0.4,0.6,0.7,1.2,1.1,1.7c0.4,0.6,0.8,1.2,1.3,1.7
		c0.9,1.1,1.8,2.2,2.8,3.2c0.3,0.3,0.6,0.6,0.9,0.9c0.5,0.5,1,1,1.6,1.4c0.2,0.2,0.4,0.4,0.6,0.5c0.3,0.3,0.6,0.5,1,0.8
		c0.8,0.6,1.7,1.3,2.6,1.7c0,0,0,0,0,0c0,0,0.1,0,0.1,0c-0.2-0.2-0.1-0.8-0.2-1c-0.2-1.4-0.4-2.9-0.8-4.3c-0.2-0.7-0.4-1.4-0.7-2.2
		c-0.1-0.4-0.3-0.7-0.4-1.1c0,0,0-0.1-0.1-0.1c-0.1-0.2-0.4-0.8-0.4-0.9c0,0,0,0,0,0c0.1-0.1,0.2,0,0.2,0.1c0.1,0.1,0.1,0.1,0.2,0.2
		c0.3,0.4,0.6,0.7,0.9,1.1c0.3,0.5,0.6,1.1,0.8,1.6c0.4,1.1,0.8,2.3,1,3.5c0.2,1,0.4,1.9,0.5,2.9c0.2,0.9,0.2,2,0.5,2.8
		c0.4-0.3,0.6-0.6,0.7-1.1c0.2-0.6,0.3-1.2,0.4-1.8c0.1-0.8,0-1.6-0.1-2.4c-0.2-1.5-0.6-2.9-1.3-4.2c-0.3-0.6-0.6-1.3-0.9-1.9
		c-0.8-1.2-1.6-2.4-2.4-3.6c-0.6-0.9-1.1-1.8-1.6-2.8c-0.5-1-1-1.9-1.5-2.9c-0.9-2.1-1.7-4.3-2.1-6.7c0-0.1-0.1-0.2-0.1-0.3
		c-0.5-0.8-2.4-0.5-3.1-0.1C800.7,125.7,799.5,128.4,799.3,130.9z"/>
	<path class="st0" d="M850.5,150c5.1-8.2,5.1-19.1-1.6-24.1c-3.8-2.8-11.6-1-9.7,5.4c0.6,2,4.3,5.7,6.4,3.3c0.7-0.8,0.9-2.2-0.4-3.3
		c-1.4,4.4-5.7,0.4-5-2.2c0.8-2.5,3.5-3.7,5.4-3c6.7,2.6,8.9,13.6,0,25.7c-8.3,11.2-22.8,13.6-35.6,13.3c-18.1-2-33-7.5-48.5-6.2
		c-0.4,0-0.6,0.1-0.9,0.1c-0.8,0-1.6-0.1-2.4-0.1c-3.5,0-7.1,0.4-10.3,0.9c-1.8,0.2-3.6,0.6-5.3,1c-1.5,0.3-2.7,0.6-3.4,0.9
		c-0.2,0.1-0.4,0.1-0.6,0.2c-0.5,0.1-1,0.3-1.4,0.4c-5.5,1.7-7.7,3-8.4,4.7c13-5.1,24.4-6.9,32.8-3.1c6.4,3.7,8.5,12.4,4.2,17
		c-6.2,6.5-17.3,0.2-10.7-6.2c-2.3-2.5-6.6,0.3-7.3,3.2c-2.2,7.9,8.5,12.4,14.8,9c7.1-3.8,9.8-15.1,3.4-22.2
		c-1.3-1.4-2.7-2.4-4.3-3.2c1.8,0.1,3.6,0.3,5.3,0.5c6,1.1,32.8,7.6,44.9,34c0,0,2.4,2.7,1.6-1.8c0,0-6.1-16.7-26.1-27.2
		c21.4,7.5,41.3,19.7,67.4,19.7c33.4,0,57.6-15.7,55.8-34.4c0,0-0.8-5.9-7.9,3.1c-7.1,9-23.8,26.3-53.8,26.3
		c-28.9,0-50.8-15.9-75.5-21.1c18.4,2.1,37.4,10.4,57.5,8.7c19.1-1.7,22.9-10.9,22.9-10.9s-13.1,6.1-23.3,7
		c-2.6,0.2-5.1,0.3-7.5,0.4C834.2,164.7,844.2,160.1,850.5,150z"/>
	<path class="st0" d="M963.4,172.5c3,11.8,20.1,9.7,25.8,0.6c6.3-10.2,1.8-26-11.9-30.3c-8-2.6-15.3-0.4-22.2,3.8
		c2.2-3.2,9.4-15.9-4.8-28.8c1.1,4.8,2.9,12.6-2.5,24.2c-10.8,22.8-28.1,34-52.3,43.9c-20.9,7.7-51.6,4.4-51.6,4.4
		c34.2,8.1,67.1-1.7,92.7-23.7l0,0c0,0,0,0,0,0c3.1-2.7,6-5.5,8.9-8.5c7.7-6.8,16.1-12.1,25.8-13.1c10.9,0,19.9,9.1,17.7,18.2
		c-3.2,13-22.2,13-18.5-0.1C965.7,161.4,962.3,168.3,963.4,172.5z"/>
	<path class="st0" d="M561.8,103.2c0,0,15.9-12.4,30.2-15.4c16.9-2.9,30.4-2.6,44.3,6.3c7,4.5,8.7,9.5,9.8,12.6
		c3.4-12.1-5-16.7-7.3-17.7c5.3-0.1,10.1-1.4,13.6-5.6c6.1-7.2,3.1-17.5-3.9-21c-6.3-3.1-16.5,1.7-14.1,9.3c0.9,2.7,5.1,5.4,7.3,2.8
		c-6.6-6,4-12.6,10.2-6.4c4.4,4.2,2.5,12.4-3.6,16.2c-5.8,2.9-12.3,2.8-18.9,1.7c-2.6-0.7-5.3-1.2-7.9-1.6c0,0,0,0,0,0l0,0
		C599.7,80.9,578,86.9,561.8,103.2z"/>
	<path class="st0" d="M771.2,132c-0.6-9.3-4.9-19.9-16.1-26.4c-1.1,1.4-1.5,5.4-0.6,7.1c0,0-2.6-3.6-5.3-3.6
		c-2.7,0-9.7,3.3-13.9,1.3c0,0,1.7,10.3,11.2,10c-4.2,2-7.1,6.5-6.2,10c0,0,1.2-1.9,3.5-1.2c2.3,0.6,4.1,4.9,10,1.6
		c5.8-3.3,10.6-3.7,14.2,3.8c3.6,7.5-2.9,14.7-6.1,16.7c-3.2,2-7,3.1-10,3c0.5,0.6,1.4,0.9,2.5,1c-0.6,0.1-1,0.2-1,0.2
		c22.4-1.2,39.8-15.7,47.9-36.7c0,0,3.9-8.9-6.3-13.9c1.2,2.2,3.2,5.7,2.2,12.1c-2,12.7-8.9,20.6-19.3,28.9
		c-4.9,3.6-11.6,6.1-16.8,7.6c2.5-1.3,5-3.3,6.9-6.1c1.3-1.9,2.3-4.5,2.8-7.6c0.1-0.7,1.6-13.1-13.5-19.7
		C765,120.1,769.4,126.6,771.2,132z"/>
	<path class="st0" d="M651.3,153c0,0,1.7-7.2-1.2-10.6c-2.8-3.4-14.7-8.6-16.6-16c0,0-11.1,13.3-0.5,24.8c-7-3.2-15.8-2-19.3,3.1
		c0,0,3.6-0.6,5.3,3c1.7,3.5-1.7,10.5,8.8,14.2c10.5,3.7,16,9.3,10.5,21.9c-3.1,7.1-9.5,10.1-15.5,11c6.5-4,9.6-12.1,7.3-19
		c-2.7-8.2-15.6-13-20.2-4.4c-1.7,3.1-0.4,9.1,3.7,8.8c-0.4-10.9,14.4-7.3,14.4,3.4c0,6.4-6.3,11.2-13.5,11.2
		c-1.5-0.2-2.8-0.5-3.8-0.8c-1.9-0.6-3.8-1.4-5.5-2.3c-7.4-4.7-12.7-12.7-17.5-20.8c-11.9-19.9-25.7-36.2-43.1-45.7
		c5.6-6,12.2-11,20-14.3c11.2,4.9,18.8,14.3,18.8,14.3c-4.4-4.7-17-11.2-20.5-13c-0.2,1.3-0.1,3.2-0.1,3.2s-0.2,4.9,5.2,10
		c6,5.6,12.4,1.5,22.1,10.3c1.5-18.6-8.9-26.9-17.7-27.3c1.6-0.4,3.3-0.7,5.1-0.9c3.9-0.5,9.3-0.7,13.6-0.2
		c9.8,1.1,25,9.6,23.2,21.4c-0.5,3.4-4.6,6.3-8.8,5.3c-4.3-1-6.5-10.5,1-8.8c-0.5-2.7-2.8-3.6-4.5-3.2c-5.3,0.9-2.9,9.3-0.6,11.8
		c7.5,8,16.6-1.7,15.7-9.5c-1.7-13.6-16.7-22.7-31.7-21.6c-10.1,0.8-18.7,4.9-25.6,8.9c-2.4,1.4-5.2,3.4-7,3.1
		c13.3-9.8,35.1-22.9,57.8-21.2c4.6,0.4,8.3,1.5,11.5,3.1c3.6,1.8,5.5,2.4,8.6,5.8c-3.6-11.8-17.6-16.9-26.1-15.5
		c-22.9,3.6-47,16.2-63.2,36.8c-9.5-4.6-20.1-7.2-31.9-7.3c10,1.9,20.7,4.7,30,9.8c-5.7,7.9-10.4,16.8-13.3,26.9
		c4.3-8.6,9.6-17.6,16.1-25.2c7.9,4.9,14.6,11.6,18.7,21.2c1.4,3.2,2.9,7.7,3.6,11.6c1.5,8.6-2,23.8-12.5,25.1
		c-3,0.4-6.5-2.4-6.7-6.2c-0.2-3.9,7.4-8.1,7.8-1.4c2.2-1.1,2.3-3.3,1.7-4.6c-2.1-4.3-8.7-0.2-10.2,2.5c-4.9,8.4,5.6,13.8,12,11.1
		c11.2-4.8,15.3-19.9,10.6-32.4c-3.2-8.5-8.8-14.8-14-19.7c-1.8-1.7-4.2-3.6-4.3-5.2c11.7,9,28.3,24.4,32.5,44.2
		c0.8,4,0.7,7.5,0.2,10.6c-0.6,3.5-2.9,5.7-2.8,8.7c7.1-3.2,8.7-9.4,9.1-16.2c7,9.3,14,19.9,25.3,20.2c2.8,0.5,5.8,0.7,8.9,0.3
		c3.7-0.4,8.1-2,12.6-4.7c1-0.6,18.2-12.2,10.1-38.2c8.5,9.7,5.1,22.3,0.1,30.4c11.1-10.7,19.7-27.7,15.8-48.6
		C657.9,146.2,652.4,150,651.3,153z"/>
	<path class="st0" d="M656.2,185.9c0,0,5.8-4,11.7-4l4.3-3.7c0,0,3.8,0.7,7.7-1.8c0,0-6-2.8-8-8.3c-1.5-4.2-1.2-7.1-1.2-7.1
		s-3.3,4.2-3.3,9.3l-6.1,5.1C661,176.6,658.9,181.9,656.2,185.9z"/>
</g>
</svg>
