<?xml version="1.0" encoding="utf-8"?>
<!-- Generator: Adobe Illustrator 22.1.0, SVG Export Plug-In . SVG Version: 6.00 Build 0)  -->
<svg version="1.1" xmlns="http://www.w3.org/2000/svg" xmlns:xlink="http://www.w3.org/1999/xlink" x="0px" y="0px" width="300px"
	 height="57px" viewBox="0 0 300 57" style="enable-background:new 0 0 300 57;" xml:space="preserve">
<style type="text/css">
	.st0{display:none;}
	.st1{display:inline;opacity:0.4;stroke:#000000;stroke-miterlimit:10;}
	.st2{fill:none;stroke:#FFFFFF;stroke-miterlimit:10;}
	.st3{fill:#FFFFFF;}
	.st4{font-family:'Today';}
	.st5{font-size:67.0138px;}
	.st6{font-family:'Lullaby';}
	.st7{font-size:12px;}
	.st8{font-size:15.1733px;}
</style>
<g id="Layer_2" class="st0">
	<rect x="-12.5" y="-15.5" class="st1" width="338" height="116"/>
</g>
<g id="Layer_1">
	<g>
		<g>
			<g>
				<g>
					<path class="st2" d="M205.1,25.3c0,0,10.9-10.3,14.3-1.7s-2.2,22-13.2,23.8c-8.4,1.4-16.3-4.3-21.8-9.1"/>
					<g>
						<path class="st3" d="M185.5,39.1l-0.6,3l-0.1,0l-2-4.1c-0.9-1.2-1.7-2.5-2.6-3.7c1.3,0.8,2.6,1.5,3.9,2.3l4.3,1.6l0,0.1
							L185.5,39.1z"/>
					</g>
				</g>
			</g>
			<text transform="matrix(0.9915 -0.13 0.13 0.9915 77.8617 44.6073)" class="st3 st4 st5">Handsome</text>
		</g>
		<path class="st2" d="M136.5,12.7c0.2,1.5-5.7,3.6-13.2,4.6c-7.5,1-13.8,0.6-14-1c-0.2-1.5,5.7-3.6,13.2-4.6
			C130.1,10.7,136.3,11.2,136.5,12.7z"/>
	</g>
</g>
<g id="Layer_3">
	<text transform="matrix(1 0 0 1 57.5 12.5)" class="st3 st6 st7">THE</text>
	<text transform="matrix(1 0 0 1 136.5 51.8994)" class="st3 st6 st8">DEVILS</text>
</g>
</svg>
